<?xml version="1.0" encoding="utf-8"?>
<!-- Generator: Adobe Illustrator 16.0.0, SVG Export Plug-In . SVG Version: 6.00 Build 0)  -->
<!DOCTYPE svg PUBLIC "-//W3C//DTD SVG 1.1//EN" "http://www.w3.org/Graphics/SVG/1.1/DTD/svg11.dtd">
<svg id="bear_symbol" xmlns="http://www.w3.org/2000/svg" xmlns:xlink="http://www.w3.org/1999/xlink" viewBox="0 0 500 500" enable-background="new 0 0 500 500">
<g>
	<circle cx="250" cy="254.7" r="201.61"/>
	<g>
		<g>
			<path fill-rule="evenodd" clip-rule="evenodd" fill="#FFFFFF" d="M229.03,328.1c0.39-0.26,1.08-0.72,1.77-1.19
				c-0.05-0.17-0.09-0.34-0.14-0.51c-0.96,0.24-1.92,0.48-3.57,0.89c1.37-1.14,2.26-1.89,3.15-2.63c-0.13-0.17-0.26-0.34-0.4-0.52
				c-0.74,0.28-1.47,0.55-2.83,1.06c3.22-4.1,5.77-8.02,10.54-9.35c2.56-0.72,5.22-1.16,7.86-1.51c1.88-0.25,2.32-1.32,1.86-2.81
				c-0.29-0.94-0.95-1.85-1.66-2.56c-2.24-2.25-4.53-4.46-6.91-6.57c-1.53-1.36-3.31-2.42-4.84-3.78c-2.57-2.29-4.84-4.95-7.57-7.02
				c-2.33-1.76-3.35-4.36-5.13-6.45c-0.5-0.59-0.93-1.23-1.79-2.36c-2.05,2.75-3.68,4.95-5.32,7.15c-2,2.68-4.09,5.34-6.05,7.97
				c-2.39,3.21-5.92,4.88-8.25,8.09c-1.94,2.67-5.39,4.2-8.05,6.38c-2.98,2.44-5.78,5.1-8.74,7.57c-2.39,1.99-4.83,3.93-7.36,5.73
				c-2.25,1.6-4.62,3.03-7,4.42c-2.07,1.2-4.27,2.17-6.33,3.38c-1.22,0.72-2.19,1.89-3.43,2.53c-1.04,0.53-2.31,0.66-3.5,0.79
				c-0.94,0.11-1.92-0.13-2.87-0.06c-4.36,0.34-8.77-0.01-13.03,1.73c-1.45,0.59-3.78,0.04-5.29-0.77
				c-2.59-1.39-4.87-0.61-7.74,0.17c0.61-1.08,1.06-1.9,1.93-3.44c-3.06,0.88-5.48,1.58-7.91,2.28c-0.14-0.15-0.29-0.3-0.43-0.46
				c1.19-0.82,2.39-1.63,3.58-2.45c-0.23-0.33-0.46-0.66-0.7-0.99c-1.98,0.76-3.95,1.52-5.88,2.27c0.05-2.48,1.37-3.83,3.79-4.88
				c1.84-0.8,3.25-2.64,4.75-4.12c3.33-3.27,7.57-4.14,11.91-4.07c4.81,0.08,7.98-1.88,9.71-6.24c2.24-5.66,6.54-9.83,10.58-14.06
				c5.76-6.03,9.35-13.07,11.51-20.98c1.41-5.15,2.85-10.29,4.25-15.44c0.33-1.21,0.78-2.46,0.71-3.67c-0.04-0.6-1.11-1.55-1.77-1.6
				c-1.59-0.13-3.26,0-4.82,0.34c-1.78,0.39-3.47,1.2-5.24,1.68c-1.1,0.3-2.36,0.14-3.4,0.55c-3.51,1.39-6.98,2.89-10.41,4.46
				c-0.81,0.37-1.42,1.16-2.18,1.65c-1.26,0.91-2.52,1.82-3.46,2.49c-0.63-0.79-1.26-1.56-1.97-2.44c-0.47,1.4-0.79,2.33-1.16,3.42
				c-0.6-0.8-1.09-1.46-1.73-2.32c-0.31,1.79-0.58,3.28-0.85,4.83c-0.41-0.51-0.91-1.11-1.4-1.71c-0.17,0.08-0.33,0.16-0.5,0.24
				c0.28,0.82,0.56,1.65,0.62,1.83c-0.47,1.27-0.77,2.07-1.17,3.16c-0.36-0.62-0.63-1.1-1.19-2.06c-0.2,1.2-0.3,1.85-0.4,2.42
				c-0.34-0.44-0.73-0.94-1.34-1.73c-0.06,3.71-2.04,5.37-4.84,6.39c-2.77-4.85-8.58-6.31-14.09-3.95
				c-1.59,0.68-3.08,1.61-4.54,2.56c-4.16,2.72-8.56,2.49-12.82,0.65c-1.04-0.45-1.52-2.51-1.96-3.92
				c-0.27-0.85,0.03-1.88,0.08-2.94c0.12,0.05,0.54,0.25,1.07,0.5c0.16-0.47,0.32-0.92,0.49-1.39c0.78,0.63,1.46,1.17,2.57,2.06
				c-0.44-1.72-1.12-2.9-0.89-3.87c0.22-0.95,1.45-1.61,2.08-2.51c0.7-1.01,1.22-2.16,1.82-3.24c-0.18-0.24-0.36-0.48-0.54-0.72
				c-3.07,1.72-6.14,3.44-9.36,5.25c0.11,0.49,0.24,1.08,0.42,1.86c-0.37-0.08-0.74-0.05-0.91-0.22c-1.67-1.66-3.63-2.28-6.01-2.45
				c-2-0.14-3.99-1.05-5.88-1.87c-0.63-0.27-0.94-1.29-1.04-2.24c-1.19-0.57-2.46-1.01-3.55-1.73c-1.2-0.8-1.13-1.76,0.11-2.65
				c6.53-4.67,10.77-11.44,15.79-17.48c2.01-2.42,1.63-5.25-0.13-7.73c-0.4-0.56-0.48-1.74-0.16-2.34
				c2.26-4.21,4.57-8.41,7.06-12.49c0.89-1.46,2.42-2.52,3.47-3.91c0.57-0.76,1.15-1.89,1.02-2.75c-0.51-3.43,0.57-6.46,2.1-9.33
				c1.54-2.87,3.14-3.11,5.81-1.29c0.99,0.68,1.93,1.44,2.96,2.03c2.97,1.7,6.16,0.49,7.72-2.55c0.89-1.74,2.09-3.41,3.46-4.81
				c2.59-2.65,4.55-2.32,7.51,0.77c1.78,1.87,2.72,2.08,4.56,0.19c4.82-4.94,10.55-8.41,16.92-10.99c2.44-0.99,4.61-2.63,7-3.77
				c1.6-0.77,3.45-1.03,5.05-1.8c2.86-1.38,5.68-2.87,8.4-4.51c2.58-1.56,4.92-3.54,7.53-5.05c6.17-3.57,12.12-7.63,19.57-8.34
				c3.12-0.3,6.17-1.3,9.28-1.81c0.99-0.16,2.06,0.29,3.1,0.34c3.99,0.19,8.02,0.05,11.96,0.58c2.53,0.34,4.87,1.98,7.4,2.43
				c3.57,0.64,6.58,2.29,9.59,4.11c1.15,0.7,2.32,1.37,3.47,2.08c4.68,2.88,9.99,3.15,15.22,3.41c9.57,0.48,18.88-1.58,28.13-3.61
				c10.43-2.29,20.94-3.34,31.58-3.36c0.39,0,0.79,0.05,1.18,0.11c3.7,0.56,7.49,0.82,11.08,1.78c5.36,1.43,10.67,3.15,15.84,5.14
				c5.05,1.95,9.95,4.32,14.85,6.65c5.2,2.48,9.77,5.89,13.73,10.08c3.38,3.57,6.79,7.12,10.04,10.8
				c5.57,6.31,11.4,12.48,14.09,20.74c0.66,2.01,0.87,4.03-0.8,5.81c-0.38,0.4-0.75,1.21-0.61,1.66c1.48,4.49,3.2,8.9,4.59,13.42
				c0.77,2.48,0.72,5.24,1.6,7.66c3.04,8.32,1.69,17.24,3.72,25.67c1.21,5.02,2.32,10.07,3.76,15.01c0.53,1.83,1.89,3.42,2.91,5.09
				c1.59,2.62,3.51,5.09,4.73,7.87c0.99,2.27,1.19,4.89,1.67,7.36c0.22,1.17,0.48,2.39,0.36,3.55c-0.2,1.82-0.33,3.63-2.31,4.83
				c-4.28,2.61-8.33,5.59-12.61,8.2c-1.05,0.64-2.61,0.58-3.94,0.63c-3.03,0.13-6.07,0.18-9.11,0.17c-1.58,0-3.28,0.13-4.73-0.37
				c-2.84-0.98-5.56-1.33-8.38,0.04c-0.17-0.23-0.34-0.46-0.5-0.68c0.8-0.34,1.6-0.68,2.4-1.03c-0.19-0.28-0.38-0.56-0.57-0.83
				c-1.17,0.39-2.33,0.77-4.05,1.34c1.06-1.38,1.83-2.38,2.61-3.38c-0.14-0.19-0.27-0.38-0.41-0.57c-1.03,0.64-2.06,1.27-3.59,2.21
				c0.56-1,0.79-1.71,1.26-2.21c4.22-4.51,9.14-7.66,15.57-7.75c0.24,0,0.49,0.04,0.72,0c1.96-0.4,4.16-1.16,4.09-3.3
				c-0.04-1.31-1.64-2.95-2.96-3.73c-1.43-0.84-3.35-1.07-5.07-1.16c-4.18-0.22-8.17-0.94-11.93-2.92c-1.45-0.76-3.3-0.75-4.76-1.49
				c-4.72-2.4-9.49-4.75-11.6-10.22c-0.7-1.82-1.95-3.43-3.31-5.73c-1.79,1.25-3.85,2.61-5.83,4.08c-1.98,1.46-3.41,3.46-6.17,4.12
				c-1.76,0.42-3.16,2.52-4.6,3.99c-0.87,0.89-1.39,2.13-2.29,2.98c-0.54,0.51-1.51,0.56-2.63,0.93c-0.09,0.44-2.28,2.46-3.21,3.06
				c-1.32,0.86-2.61,1.9-3.62,3.1c-3.5,4.19-6.87,8.48-10.28,12.75c-0.45,0.56-0.98,1.14-1.17,1.8c-1.19,4.03-4.62,4.42-7.92,4.8
				c-5.13,0.59-10.29,1.04-15.45,1.39c-3.29,0.23-6.61,0.29-9.91,0.19c-1.22-0.03-2.4-0.79-3.64-1.09c-1.53-0.37-3.1-0.62-4.67-0.92
				c-0.36-2.16-2.03-0.72-3.34-0.49c0-0.65,0-1.28,0-2.34c-0.98,0.85-1.67,1.45-2.67,2.33c0.29-0.89,0.47-1.45,0.85-2.61
				c-1.33,0.6-2.23,1.01-3.35,1.51c0.45-0.9,0.82-1.66,1.2-2.42c-0.12-0.09-0.23-0.18-0.35-0.27c-0.49,0.38-0.97,0.76-1.84,1.44
				c1.15-2.83,3.05-4.25,5.24-5.41c1.54-0.82,3.01-1.8,4.62-2.45c1.6-0.64,3.3-1.19,5-1.37c3.49-0.36,7.02-0.33,10.5-0.69
				c2.92-0.3,3.85-2.04,3.48-4.97c-0.41-3.21-0.42-6.46-0.74-9.68c-0.23-2.37-0.83-4.7-1-7.07c-0.2-2.9-0.21-5.82-0.14-8.73
				c0.08-3.25,0.34-6.5,0.55-10.33c-0.96,0.22-2.11,0.48-3.44,0.77c0.05,0.18-0.07-0.27-0.37-1.48c-0.63,0.92-1.01,1.49-1.38,2.04
				c-0.17-0.44-0.35-0.91-0.74-1.93c-0.5,1.2-0.79,1.92-1.37,3.31c0-1.06,0-1.4,0-1.81c-3.86-0.53-7.67-1.28-11.52-1.53
				c-4.23-0.26-8.48-0.06-13.1-0.06c0.49,1.75,0.82,3.86,1.65,5.76c1.79,4.11,3.96,8.05,5.74,12.16c1.04,2.39,1.95,4.93,2.31,7.49
				c0.24,1.66-0.29,3.63-1.04,5.18c-1.71,3.5-3.83,6.78-5.65,10.23c-0.69,1.31-0.94,2.85-1.49,4.24c-0.99,2.46-3.57,3.21-5.55,3.53
				c-3.54,0.58-7.25,0.11-10.88,0.13c-1.03,0.01-2.06,0.17-3.09,0.29c-2.45,0.28-4.89,0.68-7.35,0.85
				C235.21,327.97,232,328,229.03,328.1z"/>
		</g>
	</g>
</g>
</svg>
