<?xml version="1.0" encoding="utf-8"?>
<!-- Generator: Adobe Illustrator 16.0.0, SVG Export Plug-In . SVG Version: 6.00 Build 0)  -->
<!DOCTYPE svg PUBLIC "-//W3C//DTD SVG 1.1//EN" "http://www.w3.org/Graphics/SVG/1.1/DTD/svg11.dtd">
<svg version="1.1" id="giraffe_x5F_symbol" xmlns="http://www.w3.org/2000/svg" xmlns:xlink="http://www.w3.org/1999/xlink" x="0px"
	 y="0px" width="500px" height="500px" viewBox="0 0 500 500" enable-background="new 0 0 500 500" xml:space="preserve">
		<g id="pattern">
			<defs>
				<rect id="SVGID_1_" width="500" height="500"/>
			</defs>
			<clipPath id="SVGID_2_">
				<use xlink:href="#SVGID_1_"  overflow="visible"/>
			</clipPath>
			<path clip-path="url(#SVGID_2_)" fill="#FFFFFF" d="M382.54,220.57c5.04-7.35,12.94-6.94,20.3-6.05
				c6.43,0.78,12.21,2.75,17.36,5.75c0.29-1.28,0.88-2.34,1.67-3.17c-1.23-2.35-2.21-4.91-3.08-7.47c-1.53,0.53-3.38,0.42-6.05-0.2
				c-6.36-1.47-12.75-2.79-17.56-3.83c-5.19,0.57-8.68,0.85-12.14,1.36c-3.05,0.45-4.96-0.62-5.99-3.54c-2.4-6.8-4.33-13.4-1.73-20.85
				c1.56-4.48,1.26-9.61,1.79-14.45c0.95-8.76,2.81-10.24,11.38-8.94c4.3,0.65,8.6,1.32,12.9,2.02c-1.25-2.33-2.55-4.62-3.87-6.91
				c-0.58-0.32-1.15-0.69-1.68-1.12c-0.43-0.34-0.82-0.71-1.21-1.08c-7.12,2.41-14.33,4.02-20.96,5.89c-5.69,0.1-9.55-2.89-11.37-8.01
				c-2.08-5.86-3.91-11.81-5.92-17.69c-1.8-5.27,2.83-7.63,5.58-9.13c2.31-1.26,4.67-2.43,7.06-3.55c-0.1-0.1-0.2-0.2-0.31-0.29
				c-1.44-1.34-2.92-2.66-4.4-3.96c-3.41,1-6.83,1.84-10.31,2.29c-7.67,0.99-15.76-0.14-23.51-1.36c-5.77-0.91-7.33-4.08-4.78-9.34
				c2.35-4.84,5-9.54,7.81-14.15c-0.69-0.45-1.38-0.91-2.06-1.36c-1.71-1.13-2.75-2.58-3.27-4.14c-1.41-0.64-2.81-1.27-4.22-1.91
				c-1.35-0.61-2.68-1.26-4-1.93c-0.09-0.02-0.19-0.04-0.28-0.06c-1.13,0.71-2.52,1.13-4.19,1.13c-3.78,0-6.16-2.15-7.17-4.87
				c-5.99-0.65-11.97-1.41-17.91-2.36c-1.23,1.84-3.44,3.19-6.63,3.94c-9.2,2.19-15.28,8.38-20.97,15.25
				c-9.04,10.93-13.2,10.08-20.49-0.38c-5.52-7.91-6.97-11.96-7.51-26.16c0-0.15,0-0.31-0.01-0.46c-0.71-0.06-1.43-0.12-2.14-0.18
				c-1.37-0.13-2.75-0.27-4.12-0.41c-0.78,0.57-1.72,1.03-2.86,1.31c-0.26,11.13-3,21.24-10.69,29.81c-4.63,5.16-8.24,5.79-13.4,0.94
				c-2.76-2.59-5.2-5.53-7.65-8.44c-3.56-4.23-7.74-7.43-12.64-9.59c-0.22,0.09-0.45,0.17-0.67,0.26c-2.56,1.06-5.14,2.09-7.73,3.09
				c3.78,2.27,7.54,5.33,11.07,8.76c1.09,1.06,1.62,3.42,1.36,5.02c-0.72,4.48-1.93,8.89-3.05,13.31c-0.73,2.89-2.63,3.9-5.52,3.08
				c-1.6-0.46-3.27-0.72-4.85-1.25c-5.38-1.81-10.44-1.8-14.88,2.32c-0.33,0.3-0.78,0.47-1.17,0.71c-7.87,4.83-12.21,2.95-12.85-6.34
				c-0.17-2.47-0.4-4.89-0.77-7.28c-2.38,1.31-4.74,2.67-7.05,4.1c1.32,4.39-0.68,6.71-6.07,7.92c-0.6,0.13-1.2,0.24-1.8,0.35
				c-0.31,0.52-0.63,1.04-0.94,1.56c-1.77,2.95-5.01,4.26-8.17,3.78c-1.28,1.1-2.58,2.19-3.94,3.23c-2.92,2.24-6.04,4.26-8.71,6.81
				c-0.38,0.36-0.73,0.73-1.06,1.11c0.72,9.85-5.18,18.54-10.4,26.37c-2.68,4.01-5.11,7.99-6.73,12.55c-0.97,2.74-1.79,5.52-2.65,8.29
				c0.53,3.75,1.09,7.67,1.69,11.88c-0.89,2.86-2.06,7.58-3.94,12.01c-0.53,1.26-3.28,2.57-4.72,2.31c-0.46-0.09-0.93-0.16-1.39-0.23
				c-0.96,3.29-2.1,6.52-3.45,9.67c3.02,1.69,5.49,4.38,7.4,8.12c2.42,4.73,5.5,9.13,7.76,13.92c2.41,5.11,1.36,7.87-3.32,10.73
				c-4.45,2.72-8.9,5.44-13.35,8.15c0.26,3.17,0.32,6.34,0.37,9.22c6.9-5.28,13.93-10.4,21.13-15.25c5.13-3.46,15.95,2.35,17.82,9.66
				c1.23,4.78,1.15,9.9,1.51,13.5c-0.56,6.45-0.73,11.49-1.51,16.43c-1,6.34-4.06,8.79-9.9,8.11c-8.25-0.95-16.27-2.82-23.62-6.59
				c-0.03,1.01-0.23,2.01-0.6,2.94c0.12,0.32,0.23,0.65,0.35,0.97c1.7,0.79,2.88,2.17,3.57,3.79c9.4,2.71,18.89,4.54,28.63,5.56
				c6.05,0.64,8.16,4.33,5.1,9.62c-4.92,8.5-10.23,16.79-15.84,24.86c2.22,3.18,4.53,6.33,6.73,9.65c0.32,0.49,0.63,0.98,0.94,1.48
				c0.17-1.1,0.45-2.21,0.9-3.29c3.77-9.11,7.97-18.05,12.25-26.93c2.75-5.69,4.86-6.45,10.54-3.77c6.03,2.85,11.98,5.92,17.67,9.4
				c6.6,4.04,8.04,10.86,4.71,17.83c-1.35,2.83-2.29,5.94-2.97,9.02c-1.74,7.9-5.55,13.29-14.43,13.76
				c-4.46,0.24-8.88,1.05-13.32,1.62c0.21,0.36,0.42,0.73,0.62,1.11c0.23,0.43,0.46,0.86,0.68,1.28c0.85,0.21,1.64,0.57,2.37,1.05
				c2.28-0.03,4.54,0,6.77,0.24c7.9,0.82,14.14-2.27,20.1-6.91c10.26-7.97,10.65-7.86,16.1,3.78c5.42,11.55,10.62,23.2,16.02,34.76
				c0.8,1.72,1.05,3.24,0.72,4.6c7.15,2.5,14.47,4.54,22.03,5.8c0.71,0.12,1.41,0.22,2.12,0.32c0.02-0.02,0.03-0.04,0.04-0.05
				c4.34-4.19,8.77-8.29,13.31-12.27c6.97-6.1,8.44-6.11,15.4-0.11c4.57,3.94,9.04,8.01,13.46,12.13c1.92,1.79,2.89,4.01,2.04,6.42
				c2.1,0.1,4.2,0.21,6.29,0.33c0.74-0.58,1.57-1.01,2.46-1.29c2.26-2.56,4.81-3.17,8.88-2.3c0.38-0.08,0.76-0.16,1.16-0.2
				c2.91-0.31,5.79,0.21,8.58,1c0.14,0,0.28,0,0.42,0c0.67,0,1.29,0.08,1.87,0.2c0.74-0.13,1.48-0.26,2.23-0.39
				c0.41-0.58,0.88-1.11,1.4-1.57c-3.34-1.3-6.3-3.29-9.18-5.42c-1.32-0.97-1.95-4.69-1.2-6.41c6.05-13.9,12.47-27.64,18.87-41.38
				c1.71-3.67,4.54-4.15,7.89-2.03c0.13,0.08,0.28,0.14,0.38,0.25c10.23,10.9,23.33,11.75,37.01,10.64c0.88-0.07,1.77,0.12,3,0.21
				c-0.68,4.82-1.31,9.42-2,14.01c-0.32,2.11-0.49,4.25-0.66,6.39c0.55,0.01,1.06,0.06,1.55,0.15c1.75-0.94,3.54-1.8,5.35-2.66
				c0.92-0.43,1.8-0.91,2.64-1.43c0.44-3.65,1.76-7.03,4.57-9.36c-0.57-1.52-0.76-3.25-0.51-5.12c0.61-4.46,1.52-9.08,3.46-13.07
				c0.97-1.99,4.66-4.06,6.87-3.82c5.77,0.63,11.39,0.51,16.94-0.29c1.92-2.34,3.75-4.71,5.5-7.12c-1.16,0.32-2.26,0.63-3.26,0.93
				c-9.42-0.4-15.73-2.25-19.66-7.78c-6.33-8.89-12.31-18.09-17.75-27.55c-3.39-5.88-1.17-9.19,5.56-10.52
				c10.25-2.04,20.5-4.09,30.71-6.31c7.98-1.73,13.05,0.02,16.55,7.43c2.06,4.36,3.95,8.8,5.76,13.27c1.36-2.57,2.7-5.14,4.03-7.72
				c-0.25-1.01-0.33-2.09-0.2-3.22c-1.76-3.26-3.52-6.52-5.25-9.79c-1.02-1.93-1.42-4.36-1.53-6.59c-0.42-9.03,3.75-13.28,12.75-13.3
				c0.83,0,1.64,0.03,2.45,0.07c0.34-1.44,0.75-2.88,1.28-4.25c-0.59-0.23-1.19-0.52-1.8-0.86c-3.56-2-6.68-4.79-10.19-6.89
				c-9.52-5.7-19.11-11.27-28.74-16.79c-7.55-4.33-8.55-6.94-4.42-14.68C376.08,230.52,379.2,225.45,382.54,220.57 M352.83,153.68
				c2.86,1,6.14,4.64,6.67,7.61c0.92,5.08-0.19,10.52-0.38,15.81c-0.08,2.09-0.62,4.47,0.16,6.24c2.8,6.39,0.8,10.94-8.31,11.38
				c-0.91,0.04-1.82,0.01-2.74,0.01v-0.02c-5.93,0-11.86,0.08-17.78-0.03c-5.18-0.09-6.67-1.61-7.2-6.77
				c-0.33-3.18-0.42-6.42-1.14-9.5c-0.92-3.9,0.33-6.56,3.66-8.4c3.85-2.14,7.92-3.92,11.56-6.37c2.61-1.75,4.4-4.71,7.01-6.46
				C346.91,155.44,350.63,152.91,352.83,153.68 M283.39,89.12c5.68-3.54,11.2-7.56,18.48-6.83c0.17-0.44,0.34-0.88,0.51-1.32
				c5.5,2.36,11.05,4.59,16.47,7.12c2.78,1.3,2.97,3.64,2.16,6.58c-1.43,5.2-2.33,10.55-3.44,15.83c-0.16,0.74-0.23,1.51-0.39,2.25
				c-1.98,8.96-5.46,10.75-12.74,5.39c-5.69-4.19-11.03-4.67-17.5-2.61c-7.55,2.41-8.27,1.7-9.96-6.27c-0.22-1.04-0.4-2.09-0.65-3.13
				C273.88,96.09,274.41,94.72,283.39,89.12 M273.32,139.98c3.9-5.59,7.38-11.54,11.83-16.64c2.03-2.33,6.08-4.33,9.02-4.1
				c4.83,0.37,10.02,1.88,14.12,4.42c3.96,2.45,7.7,3.2,11.99,2.87c4.25-0.33,8.57-1.49,12.71-1c4.03,0.47,8.23,1.98,11.7,4.11
				c3.62,2.22,4.66,6.34,3.26,10.55c-2.12,6.38-5.09,12.01-12.31,14.1c-2.11,0.61-4.28,1.91-5.82,3.49
				c-7.93,8.15-18.23,9.09-31.03,10.07c-2.51-1.44-7.14-3.39-10.92-6.41c-4.98-3.98-9.29-8.78-13.88-13.24
				C271.38,145.65,271.28,142.92,273.32,139.98 M306.13,229.72c-1.51,2.23-4.97,3.14-6.7,4.16c-10.88-2.1-18.82-6.29-23.66-14.7
				c-1.31-2.27-1.39-6.16-0.41-8.67c5.61-14.37,14.86-26.14,27.52-34.96c6.79-4.74,10.05-3.42,12.82,4.36
				c1.63,4.58,2.89,9.29,4.58,13.84c1.95,5.27,1.24,10.1-1.58,14.83C314.51,215.63,310.72,222.94,306.13,229.72 M314.66,258.6
				c0.31,2.71-1,6.79-3.03,8.38c-9.47,7.44-13.84,17.4-16.33,28.71c-0.84,3.81-1.28,8.92-7.97,6.96c0,0.44-0.01,0.88-0.01,1.32
				c-7.76-2.51-15.58-4.83-23.22-7.66c-1.65-0.61-3.45-2.83-3.82-4.59c-2.11-10.11-4.09-20.26-5.44-30.49
				c-0.32-2.4,1.36-5.61,3.08-7.64c5.76-6.84,11.78-13.47,18.11-19.78c1.25-1.25,4.58-1.58,6.41-0.89c6.81,2.56,13.43,5.61,20.04,8.67
				C309.66,244.94,313.78,250.93,314.66,258.6 M269.71,200.78c-2.15,3.19-4.38,4.24-7.96,2.25c-4.1-2.28-8.42-4.16-12.59-6.32
				c-4.24-2.19-6.66-5.59-6.73-10.52c-0.06-4.25-0.28-8.49-0.42-12.73c-0.12-3.68,1.19-6.68,4.71-8.09c3.2-1.29,6.58-2.13,8.74-2.81
				c10.25,1.87,19.24,3.28,28.12,5.23c4.08,0.9,4.22,4.56,3.05,7.74c-0.97,2.65-2.7,5.06-4.33,7.41
				C278.16,188.93,273.77,194.74,269.71,200.78 M232.41,130.4c-0.35-3.98,1.59-6.17,4.98-7.61c8.86-3.75,17.56-7.7,23.25-16.11
				c0.4-0.58,3.13-0.51,3.84,0.2c3.67,3.64,5.05,8.38,4.4,13.37c-0.63,4.79-2.21,9.45-3.05,14.23c-0.76,4.31-1.43,8.69-1.49,13.04
				c-0.07,5.46-2.02,7.89-7.59,8.82c-5.48,0.91-10.92,2.12-16.34,3.34c-3.52,0.79-5.96-0.6-6.54-3.86c-0.94-5.35-1.23-10.83-1.8-16.25
				c0.13-0.02,0.26-0.03,0.4-0.05C232.46,136.49,232.67,133.42,232.41,130.4 M230.59,199.71c0-0.04,0-0.08,0-0.11
				c1.37,0,2.74,0.06,4.11-0.01c11.57-0.55,20.18,4.07,26.09,14.18c2.49,4.26,5.76,8.1,8.95,11.9c1.82,2.17,1.85,3.99,0.23,6.09
				c-3.7,4.81-7.15,9.86-11.25,14.3c-1.29,1.4-4.47,1.93-6.55,1.56c-14.74-2.63-29.41-2.72-44.11,0.11c-3.65,0.7-6.13-0.24-8.23-3.82
				c-2.51-4.28-5.99-8.02-9.22-11.85c-2.26-2.68-1.77-4.64,0.59-7.03c2.53-2.56,5.09-5.34,6.69-8.51
				c6.37-12.65,16.38-18.28,30.43-16.84C229.06,199.77,229.83,199.71,230.59,199.71 M253.91,296.52c-0.58,4.89-1.97,5.76-6.64,4.33
				c-5.76-1.76-11.54-3.46-17.24-5.17c-5.6,1.68-10.7,3.08-15.71,4.74c-6.16,2.03-8.24,0.72-8.11-5.8c0.06-3.01,0.46-6.1,1.27-9
				c1.49-5.4,3.31-10.72,5.14-16.02c2.78-8.07,9.53-12.29,16.98-13.57c3.76-0.65,8.52,3.13,12.46,5.51c1.93,1.17,3.69,3.5,4.39,5.67
				c2.78,8.62,5.15,17.38,7.57,26.12C254.29,294.32,254.04,295.47,253.91,296.52 M158.83,241.28c5.83-3.19,12.23-5.34,18.29-8.15
				c3.58-1.67,5.96-1.26,8.59,2.06c4.41,5.56,9.23,10.87,14.35,15.79c4.44,4.28,6.54,8.47,4.84,14.93c-2.11,8.06-2.76,16.49-4.6,24.63
				c-0.52,2.31-2.59,5.26-4.66,6.06c-7.45,2.89-15.21,4.99-22.85,7.38c-0.09-0.37-0.17-0.73-0.26-1.1c-3.71,0.78-5.84-0.69-6.71-4.32
				c-0.82-3.4-1.82-6.75-2.83-10.1c-2.13-7.1-5.19-13.48-11.27-18.32c-7.49-5.97-9.36-9.34-2.75-20.47
				C151.07,246.14,155.09,243.33,158.83,241.28 M142.14,209.63c-3.15-5.21-4.42-10.45-1.94-16.44c2.14-5.18,3.48-10.68,5.46-15.94
				c1.65-4.38,3.86-5.29,8.21-3.46c2.35,0.99,4.68,2.29,6.65,3.9c10.26,8.42,18.22,18.65,23.82,30.74c2.68,5.77,1.62,10.61-2.73,14.94
				c-5.53,5.51-11.88,9.41-19.84,10.01c-4.02,0.33-6.6-1.44-8.53-4.9C149.69,222.11,145.91,215.87,142.14,209.63 M195.2,107.21
				c1.75-2.31,3.31-2.52,4.92-0.04c4.9,7.56,12.65,11.18,20.43,14.67c7.33,3.29,7.39,3.16,7.39,11.05c0,2.43,0,4.86,0,6.82
				c-0.28,4.88-0.26,9.31-0.85,13.67c-0.83,6.08-3.81,7.34-9.53,5.35c-3.65-1.27-7.62-1.93-11.5-2.19
				c-7.99-0.54-9.73-2.78-10.07-10.63c-0.26-5.82-1.94-11.61-3.3-17.34C190.93,121.09,190.17,113.87,195.2,107.21 M201.91,163.08
				c4.25-0.31,8.89,1.5,12.94,3.29c1.65,0.73,2.66,3.82,3.14,6.02c0.47,2.15-0.11,4.54-0.23,6.82c0.05,0,0.1,0,0.15,0
				c0,2.13,0.01,4.26,0,6.4c-0.03,4.83-2.09,8.58-6.32,10.87c-4.4,2.38-8.99,4.41-13.45,6.69c-2.65,1.36-4.86,1.41-6.75-1.29
				c-4.98-7.09-10.06-14.12-15.06-21.21c-0.87-1.24-1.65-2.57-2.27-3.95c-2.29-5.08-0.83-8.38,4.54-9.5
				C186.33,165.59,194.08,163.64,201.91,163.08 M115.41,129.71c3.75-2.3,8.06-3.69,12.13-5.47l0.49,0.95c2.26,0.3,4.52,0.69,6.79,0.89
				c6.3,0.55,12.51,1.61,18.19-3.09c2.54-2.1,6.35-2.94,9.73-3.67c6.68-1.44,10.34,0.75,13.88,6.57c2.67,4.39,5.94,8.44,9.08,12.53
				c3.77,4.9,3.76,6.74-0.58,10.88c-4.85,4.62-9.62,9.32-14.63,13.76c-4.47,3.96-9.76,4.87-15.75,4.33
				c-9.57-0.86-18.13-3.53-25.21-10.31c-1.49-1.43-3.54-2.49-5.52-3.14c-7.3-2.39-10.22-8.23-11.93-14.91
				C111.15,135.37,112.21,131.67,115.41,129.71 M100.5,172.24c0.13-4.61-0.31-9.63,1.35-13.73c2.64-6.55,8.22-7.42,12.99-2.31
				c5.21,5.58,11.17,9.64,18.07,12.74c5.29,2.38,6.03,4.84,4.97,10.74c-0.43,2.39-0.55,4.83-0.75,7.25c-0.53,6.42-2.1,7.9-8.57,7.85
				c-1.67-0.01-3.35-0.17-5.02-0.26c0,0.06,0,0.12,0,0.17c-4.86,0-9.73,0.18-14.59-0.04c-8.11-0.37-9.81-3.34-8.07-11.21
				C101.67,179.91,100.4,175.97,100.5,172.24 M116.81,259.53c-1.75-1.42-2.98-3.45-4.65-4.97c-3.1-2.82-6.01-6.13-9.64-8.03
				c-6.04-3.17-8.69-7.73-8.37-14.33c-0.44-0.14-0.87-0.27-1.31-0.41c3.01-9.01,5.76-18.12,9.14-26.99c1.94-5.09,6.2-6.86,11.82-6.34
				c15.83,1.46,23.65,12.29,29.86,25.01c1.31,2.68,2.02,5.75,2.52,8.72c0.85,5.06-0.27,9.58-4.29,13.25
				c-4.84,4.4-9.46,9.04-14.2,13.54C124.02,262.46,120.74,262.71,116.81,259.53 M157.09,307.68c-3.65,9.6-12.37,13.03-21.04,7.38
				c-8.22-5.36-12.13-13.68-14.96-22.62c-0.72-2.28-0.81-4.77-1.19-7.16c-0.03-6.93,3.62-11.51,9.2-14.8
				c5.11-3.02,9.7-0.87,14.02,1.95C153.15,279,162.69,292.93,157.09,307.68 M161.99,350.85c-1.25-8.64-1.63-17.45-1.83-26.2
				c-0.15-6.77,4.38-10.71,10.37-12.18c7.83-1.92,15.32-4.06,21.57-9.55c2.48-2.18,4.58-1.31,4.63,2.34c0.06,3.65,0.01,7.3,0.01,10.94
				c0.35,0.04,0.69,0.08,1.04,0.12c-1.21,8.23-1.95,16.56-3.77,24.65c-2.15,9.56-8.9,15.28-18.11,18
				C168.71,361.09,163.05,358.15,161.99,350.85 M220.79,393.69c-4.55,4.02-8.62,8.63-13.41,12.32c-6.73,5.18-11.34,3.56-14.95-4.04
				c-3.31-6.99-7.09-13.75-10.58-20.64c-2.66-5.24-3.43-10.65-1.12-16.27c1.17-2.85,3.18-4.48,6.3-4.22c10,0.8,20.18,0.8,29.92,2.83
				c8.95,1.87,10.91,5.1,10.32,15.75C228.34,384.95,225.4,389.61,220.79,393.69 M217.17,350.61c-2.93,0.78-5.82,1.8-8.79,2.32
				c-7.15,1.25-8.84-0.29-8.57-10.43c0.69-7.96,1.59-18.87,2.63-29.76c0.38-3.91,2.24-6.44,6.42-7.71c6.5-1.97,12.89-3.34,19.71-2.1
				c2.02,0.37,4.23-0.02,6.31-0.34c6.94-1.09,13.35,1.03,19.36,3.88c1.9,0.9,3.41,4.3,3.66,6.71c1.17,11.19,1.94,22.43,2.62,33.66
				c0.32,5.3-1.44,7.01-6.79,6.18c-5.52-0.85-10.99-2.25-16.38-3.76C230.4,347.32,223.81,348.84,217.17,350.61 M278.77,380.42
				c-3.86,8.42-8.26,16.59-12.47,24.84c-1.74,3.42-4.8,4.23-8.14,3.29c-2.28-0.64-4.67-1.75-6.4-3.32
				c-5.5-5.03-11.15-10.02-15.85-15.75c-2.36-2.89-2.8-7.35-4.1-11.11c1.01-10.19,4.15-14,14.16-15.27
				c8.14-1.03,16.33-1.69,24.52-2.19c7.18-0.43,10.18,2.2,10.34,9.39C280.9,373.68,280.18,377.36,278.77,380.42 M298.33,350.64
				c-1.03,7.39-6.56,10.43-13.81,8.38c-11.95-3.38-18.03-11.85-19.76-23.71c-0.88-6.02-1.26-12.11-1.81-17.58
				c0.27-4.73,0.53-8.83,0.72-12.94c0.15-3.27,2.06-3.91,4.12-2.02c6.55,6.01,14.85,7.68,22.93,10.07c6.06,1.79,9.68,6.01,9.5,12.39
				C299.95,333.72,299.5,342.25,298.33,350.64 M302.95,307.3c-6.02-16.08,7.34-32.76,18.59-37.18c9.01-3.54,18.86,4.67,18.7,16.63
				c-1.5,11.29-6.23,22.12-17.18,28.84C314.59,320.79,306.42,316.57,302.95,307.3 M353.63,348.84c3.6,9.3-4.55,19.8-17.01,19.73
				c-3.33-0.43-9.08-0.98-14.76-1.97c-4.53-0.79-7.58-3.65-9.1-8.04c-1.98-5.71-4.09-11.38-5.93-17.14
				c-1.72-5.39,0.45-11.52,5.68-14.67c6.1-3.68,12.52-6.85,18.89-10.05c3.92-1.97,7.17-0.93,9.06,3.13
				C344.96,329.45,349.8,338.95,353.63,348.84 M341.81,260.53c-2.95,1.97-6.01,1.67-8.7-0.96c-4.79-4.68-9.56-9.39-14.48-13.92
				c-3.52-3.24-4.89-7.09-4.72-11.82c0.6-16.41,16.91-33.89,32.75-35.37c5.48-0.51,9.06,1.44,11.58,6.05
				c4.75,8.68,6.75,18.14,7.72,25.26c0.51,9.02-2.16,13.41-7.93,16.63c-3.84,2.15-6.93,5.65-10.29,8.62
				C345.72,256.81,344.03,259.05,341.81,260.53 M391.38,268.39c7.64,5.68,8.01,11.1,1.07,17.64c-7.72,7.28-17.54,10-27.58,12.08
				c-2.23,0.46-4.5,0.69-6.75,1.02c-4.79,0.36-7.71-2.62-8.03-6.54c-0.83-10.09-1.31-20.28-0.9-30.38
				c0.23-5.61,8.18-11.97,13.86-12.15c2.05-0.07,4.42,1.07,6.19,2.3C376.71,257.57,384.07,262.96,391.38,268.39"/>
			<path clip-path="url(#SVGID_2_)" d="M172.52,302.88c-3.71,0.78-5.84-0.69-6.71-4.32c-0.82-3.39-1.82-6.75-2.83-10.1
				c-2.13-7.1-5.19-13.48-11.27-18.32c-7.49-5.97-9.36-9.34-2.75-20.47c2.1-3.53,6.12-6.35,9.86-8.39c5.83-3.19,12.23-5.34,18.29-8.16
				c3.58-1.67,5.96-1.26,8.59,2.06c4.41,5.56,9.23,10.87,14.35,15.79c4.45,4.28,6.54,8.47,4.84,14.93c-2.11,8.06-2.76,16.49-4.6,24.63
				c-0.52,2.31-2.59,5.26-4.66,6.06c-7.45,2.89-15.21,4.99-22.85,7.38C172.7,303.61,172.61,303.24,172.52,302.88"/>
			<path clip-path="url(#SVGID_2_)" d="M287.31,303.97c-7.76-2.51-15.58-4.83-23.22-7.66c-1.65-0.61-3.45-2.83-3.82-4.59
				c-2.11-10.11-4.09-20.26-5.45-30.49c-0.32-2.4,1.36-5.61,3.08-7.64c5.76-6.84,11.79-13.47,18.11-19.78
				c1.25-1.25,4.58-1.58,6.41-0.89c6.81,2.56,13.44,5.61,20.04,8.67c7.21,3.35,11.33,9.34,12.2,17.01c0.31,2.71-1,6.79-3.03,8.38
				c-9.47,7.44-13.84,17.4-16.33,28.71c-0.84,3.81-1.28,8.92-7.97,6.96C287.32,303.09,287.32,303.53,287.31,303.97"/>
			<path clip-path="url(#SVGID_2_)" d="M340.5,393c0.04,0,0.07,0,0.11,0c0.17-2.14,0.34-4.28,0.66-6.38c0.69-4.59,1.31-9.2,2-14.01
				c-1.23-0.1-2.13-0.28-3-0.21c-13.68,1.11-26.78,0.26-37.01-10.64c-0.1-0.11-0.25-0.17-0.38-0.25c-3.35-2.12-6.18-1.65-7.89,2.03
				c-6.4,13.74-12.82,27.48-18.87,41.38c-0.75,1.72-0.13,5.43,1.2,6.41c2.89,2.13,5.85,4.12,9.18,5.42c1.39-1.21,3.13-1.93,5-1.75
				c0.07,0.01,0.14,0.01,0.21,0.02c5.88-4.13,12.2-5.56,19.44-6.81c1.37-0.24,2.66-0.49,3.91-0.81c1.24-1.98,3.39-3.4,6.44-3.4
				c0.34,0,0.66,0.02,0.98,0.05c3.1-1.95,6.07-4.01,9.48-5.46c0.43-0.18,0.85-0.32,1.27-0.43C334.17,395.3,336.59,393,340.5,393"/>
			<path clip-path="url(#SVGID_2_)" d="M127.94,375.32c0.43,0.12,0.87,0.24,1.29,0.39c1.98,0.73,3.59,1.55,5.19,2.94
				c2.34,2.02,4.04,4.59,5.58,7.23c0.08,0.14,0.18,0.28,0.27,0.42c5.32,3.15,10.44,6.66,15.57,10.17c0.35,0.16,0.7,0.32,1.04,0.48
				c9.16,4.31,18.4,8.47,27.92,11.8c0.33-1.35,0.08-2.88-0.72-4.6c-5.39-11.56-10.6-23.21-16.02-34.76
				c-5.45-11.64-5.84-11.75-16.1-3.78c-5.97,4.64-12.21,7.73-20.1,6.91c-2.23-0.23-4.48-0.26-6.77-0.24
				C126.24,373.02,127.2,374.07,127.94,375.32"/>
			<path clip-path="url(#SVGID_2_)" d="M418.43,274.95c0.54-1.42,1.22-2.77,2.04-3.99c0.03-0.67,0.06-1.34,0.08-2.01
				c0.18-4.43,0.48-8.82,0.86-13.2c-2.43-10.7-1.02-22.85-1.42-33.25c-0.03-0.81,0.05-1.55,0.21-2.23
				c-5.15-3.01-10.93-4.97-17.36-5.75c-7.36-0.9-15.26-1.3-20.3,6.05c-3.35,4.88-6.47,9.95-9.25,15.17
				c-4.13,7.74-3.13,10.35,4.42,14.68c9.62,5.51,19.22,11.09,28.74,16.78c3.51,2.1,6.63,4.89,10.19,6.89
				C417.24,274.43,417.84,274.72,418.43,274.95"/>
			<path clip-path="url(#SVGID_2_)" d="M88.09,238.36c-2.26-4.79-5.34-9.19-7.76-13.92c-1.92-3.75-4.38-6.44-7.41-8.12
				c-0.3,0.7-0.62,1.4-0.94,2.09c1.18,2.67,0.95,6.01-0.69,8.42c-0.16,3.38-0.79,6.74-1.43,10.16c-0.02,0.1-0.03,0.2-0.05,0.3
				c0.21,1.75,0.26,3.46,0.14,5.13c1.49,2.4,1.67,5.61,0.51,8.2c0.47,2.13,0.76,4.38,0.95,6.62c4.45-2.71,8.9-5.43,13.35-8.15
				C89.45,246.22,90.5,243.47,88.09,238.36"/>
			<path clip-path="url(#SVGID_2_)" d="M135.22,108.71c-0.45,0.28-0.91,0.55-1.35,0.83c-1.04,0.66-2.04,1.36-3.02,2.08
				c-1.27,1.72-2.4,3.53-3.5,5.36c0.6-0.1,1.21-0.21,1.8-0.35C134.54,115.42,136.54,113.1,135.22,108.71"/>
			<path clip-path="url(#SVGID_2_)" d="M333.53,92.77c-2.81,4.61-5.46,9.32-7.81,14.16c-2.55,5.26-0.99,8.43,4.78,9.34
				c7.75,1.22,15.84,2.34,23.51,1.36c3.47-0.45,6.9-1.28,10.31-2.29c-3.28-2.88-6.6-5.72-9.72-8.75
				C347.54,102.03,340.54,97.39,333.53,92.77"/>
			<path clip-path="url(#SVGID_2_)" d="M109.16,305.58c-9.74-1.02-19.23-2.86-28.63-5.56c0.78,1.85,0.9,4,0.35,5.94
				c3.13,7.13,6.66,14.13,9.9,21.26c2.12,4.67,4.8,8.79,7.63,12.84c5.61-8.06,10.92-16.36,15.84-24.86
				C117.32,309.91,115.21,306.21,109.16,305.58"/>
			<path clip-path="url(#SVGID_2_)" d="M386.99,350.29c3.4-4.69,6.51-9.57,9.38-14.78c2.88-5.22,5.73-10.47,8.52-15.75
				c-1.81-4.47-3.71-8.91-5.77-13.27c-3.5-7.42-8.57-9.16-16.55-7.43c-10.21,2.22-20.46,4.27-30.71,6.31
				c-6.72,1.33-8.94,4.64-5.56,10.52c5.44,9.46,11.42,18.66,17.75,27.55c3.93,5.52,10.24,7.38,19.66,7.78
				C384.73,350.92,385.83,350.61,386.99,350.29"/>
			<path clip-path="url(#SVGID_2_)" d="M365.97,229.76c0.51,9.02-2.16,13.41-7.93,16.64c-3.84,2.15-6.93,5.65-10.29,8.62
				c-2.03,1.79-3.72,4.03-5.93,5.51c-2.95,1.97-6.01,1.67-8.7-0.96c-4.79-4.69-9.56-9.39-14.48-13.93c-3.52-3.24-4.89-7.09-4.72-11.82
				c0.6-16.4,16.91-33.89,32.76-35.37c5.48-0.51,9.06,1.44,11.58,6.05C363.01,213.18,365,222.64,365.97,229.76"/>
			<path clip-path="url(#SVGID_2_)" d="M92.85,231.79c3.01-9.01,5.76-18.12,9.14-26.99c1.94-5.09,6.2-6.86,11.82-6.34
				c15.83,1.46,23.65,12.29,29.87,25.01c1.31,2.68,2.02,5.75,2.52,8.71c0.85,5.06-0.27,9.58-4.29,13.25
				c-4.84,4.4-9.46,9.04-14.2,13.54c-3.68,3.49-6.96,3.74-10.89,0.56c-1.75-1.42-2.98-3.45-4.65-4.97c-3.1-2.82-6.01-6.13-9.64-8.03
				c-6.04-3.18-8.69-7.73-8.37-14.33C93.72,232.06,93.29,231.93,92.85,231.79"/>
			<path clip-path="url(#SVGID_2_)" d="M416.58,202.84c-1.11-3.27-2.4-6.52-3.32-9.85c-1.34-4.84-2.04-9.58-4.66-13.95
				c-1.19-1.98-1.41-3.91-1-5.63c-1.99-4.11-4.04-8.2-6.2-12.22c-4.3-0.69-8.6-1.36-12.9-2.01c-8.56-1.3-10.42,0.18-11.38,8.94
				c-0.53,4.84-0.23,9.97-1.79,14.45c-2.6,7.45-0.67,14.05,1.73,20.85c1.03,2.92,2.94,3.99,5.99,3.54c3.46-0.51,6.96-0.79,12.14-1.36
				c4.82,1.05,11.21,2.36,17.56,3.83c2.67,0.62,4.52,0.73,6.05,0.2C418.01,207.29,417.3,204.97,416.58,202.84"/>
			<path clip-path="url(#SVGID_2_)" d="M82.43,187.42c-0.93,2.36-2.01,4.62-3.19,6.82c-0.75,4.2-1.67,8.35-2.86,12.41
				c0.46,0.07,0.93,0.14,1.39,0.23c1.44,0.27,4.18-1.05,4.72-2.31c1.87-4.43,3.05-9.16,3.94-12.02c-0.6-4.21-1.15-8.13-1.69-11.88
				C84.04,182.95,83.3,185.21,82.43,187.42"/>
			<path clip-path="url(#SVGID_2_)" d="M274.99,74.24c-4.55-1.08-9.08-2.21-13.65-3.16c-8.83-0.66-17.7-0.88-26.52-1.61
				c0,0.15,0.01,0.31,0.01,0.46c0.54,14.19,1.99,18.25,7.51,26.16c7.29,10.45,11.45,11.31,20.49,0.38
				c5.68-6.88,11.77-13.07,20.97-15.25c3.19-0.76,5.4-2.1,6.63-3.94C285.25,76.44,280.1,75.46,274.99,74.24"/>
			<path clip-path="url(#SVGID_2_)" d="M225.63,70.21c-3.79,0.91-7.6,1.7-11.42,2.45c-0.35,0.26-0.73,0.52-1.17,0.74
				c-9.9,5.21-21.4,5.42-31.71,9.51c4.9,2.16,9.07,5.36,12.64,9.59c2.45,2.9,4.89,5.85,7.65,8.44c5.17,4.85,8.77,4.22,13.4-0.94
				c7.69-8.57,10.43-18.69,10.69-29.81C225.68,70.2,225.65,70.21,225.63,70.21"/>
			<path clip-path="url(#SVGID_2_)" d="M383.29,134.45c-0.34-0.46-0.64-0.93-0.87-1.4c-4.3-4.65-8.78-9.13-13.41-13.47
				c-2.39,1.12-4.75,2.29-7.06,3.55c-2.75,1.5-7.38,3.86-5.58,9.13c2.01,5.88,3.84,11.83,5.92,17.69c1.82,5.12,5.67,8.11,11.37,8.01
				c6.63-1.87,13.83-3.47,20.96-5.89c-2.8-2.64-4.53-5.8-5.42-9.25C385.04,141.97,383.08,138.14,383.29,134.45"/>
			<path clip-path="url(#SVGID_2_)" d="M299.43,233.88c-10.88-2.1-18.82-6.3-23.66-14.7c-1.31-2.27-1.39-6.16-0.42-8.67
				c5.61-14.37,14.86-26.14,27.52-34.96c6.79-4.74,10.05-3.41,12.82,4.36c1.63,4.58,2.89,9.29,4.58,13.84
				c1.95,5.27,1.24,10.1-1.58,14.83c-4.19,7.05-7.98,14.36-12.57,21.14C304.62,231.94,301.17,232.85,299.43,233.88"/>
			<path clip-path="url(#SVGID_2_)" d="M161.77,233.38c-4.02,0.33-6.6-1.44-8.53-4.9c-3.54-6.37-7.33-12.61-11.1-18.85
				c-3.15-5.21-4.42-10.45-1.94-16.44c2.14-5.18,3.48-10.68,5.46-15.94c1.65-4.38,3.86-5.29,8.21-3.46c2.35,0.99,4.68,2.29,6.65,3.9
				c10.26,8.42,18.22,18.65,23.82,30.74c2.68,5.77,1.62,10.61-2.73,14.94C176.08,228.88,169.73,232.79,161.77,233.38"/>
			<path clip-path="url(#SVGID_2_)" d="M336.62,368.57c-3.33-0.43-9.08-0.98-14.76-1.97c-4.53-0.79-7.58-3.65-9.1-8.04
				c-1.98-5.71-4.1-11.38-5.93-17.14c-1.72-5.39,0.45-11.52,5.68-14.67c6.1-3.68,12.52-6.85,18.89-10.05
				c3.92-1.97,7.17-0.93,9.07,3.13c4.49,9.63,9.33,19.13,13.16,29.02C357.23,358.13,349.08,368.64,336.62,368.57"/>
			<path clip-path="url(#SVGID_2_)" d="M147.45,326.59c-5.68-3.48-11.64-6.55-17.67-9.4c-5.68-2.68-7.79-1.92-10.54,3.77
				c-4.29,8.88-8.49,17.82-12.25,26.93c-0.45,1.09-0.73,2.19-0.9,3.29c0.95,1.51,1.85,3.04,2.69,4.6c5.31,3.62,9.43,7.43,12.65,13.04
				c4.44-0.57,8.87-1.38,13.32-1.62c8.88-0.47,12.69-5.86,14.43-13.76c0.68-3.08,1.61-6.18,2.97-9.02
				C155.49,337.45,154.05,330.63,147.45,326.59"/>
			<path clip-path="url(#SVGID_2_)" d="M266.47,419.82c1.17-1.07,2.7-1.77,4.37-2.12c-4.08-0.87-6.62-0.26-8.88,2.3
				C263.4,419.54,264.96,419.46,266.47,419.82"/>
			<path clip-path="url(#SVGID_2_)" d="M408.79,308.37c1.41-8.81,6.11-16.61,7.6-25.35c0.21-1.24,0.46-2.53,0.77-3.82
				c-0.81-0.04-1.62-0.07-2.45-0.07c-8.99,0.02-13.16,4.27-12.75,13.3c0.1,2.23,0.5,4.66,1.53,6.59c1.73,3.27,3.49,6.53,5.25,9.79
				C408.75,308.67,408.76,308.52,408.79,308.37"/>
			<path clip-path="url(#SVGID_2_)" d="M358.11,299.14c-4.79,0.36-7.71-2.62-8.03-6.54c-0.83-10.09-1.31-20.28-0.9-30.38
				c0.23-5.61,8.18-11.97,13.86-12.15c2.05-0.07,4.42,1.07,6.19,2.3c7.48,5.2,14.83,10.59,22.14,16.02c7.64,5.68,8.01,11.1,1.07,17.64
				c-7.72,7.28-17.54,10-27.58,12.08C362.64,298.58,360.36,298.81,358.11,299.14"/>
			<path clip-path="url(#SVGID_2_)" d="M110.74,260.86c-1.87-7.31-12.7-13.12-17.82-9.66c-7.2,4.86-14.23,9.97-21.13,15.25
				c0.01,0.59,0.02,1.17,0.03,1.73c1.57,2.33,1.82,5.53,0.77,8.15c1.19,1.42,1.91,3.33,1.91,5.17v1c0,0.72-0.11,1.41-0.3,2.08
				c0.07,0.36,0.15,0.72,0.22,1.08c1.95,1.6,2.88,4.15,2.79,6.66c7.35,3.77,15.38,5.64,23.62,6.59c5.84,0.67,8.9-1.78,9.9-8.12
				c0.78-4.94,0.95-9.99,1.51-16.43C111.88,270.77,111.96,265.65,110.74,260.86"/>
			<path clip-path="url(#SVGID_2_)" d="M231.81,378.37c1.01-10.19,4.15-14,14.15-15.27c8.14-1.03,16.33-1.69,24.52-2.18
				c7.18-0.43,10.18,2.2,10.34,9.39c0.07,3.38-0.65,7.06-2.05,10.12c-3.86,8.42-8.26,16.59-12.47,24.84
				c-1.74,3.42-4.81,4.23-8.14,3.29c-2.28-0.64-4.67-1.75-6.39-3.32c-5.5-5.03-11.15-10.02-15.85-15.75
				C233.55,386.59,233.12,382.12,231.81,378.37"/>
			<path clip-path="url(#SVGID_2_)" d="M227.27,379.41c1.07,5.53-1.87,10.2-6.49,14.28c-4.55,4.02-8.62,8.63-13.41,12.32
				c-6.73,5.18-11.34,3.56-14.95-4.04c-3.31-6.98-7.09-13.75-10.58-20.64c-2.66-5.24-3.43-10.65-1.12-16.27
				c1.17-2.85,3.18-4.48,6.3-4.22c10,0.8,20.17,0.8,29.92,2.83C225.89,365.52,227.86,368.76,227.27,379.41"/>
			<path clip-path="url(#SVGID_2_)" d="M356.76,378.35c2.21-1.16,4.44-1.48,6.88-1.77c1.37-1.49,2.76-2.96,4.23-4.37
				c0.32-0.81,0.67-1.6,1.13-2.33c1.62-2.62,3.87-4.25,6.42-5.02c1.22-1.65,2.52-3.25,3.87-4.83c0.75-0.87,1.48-1.75,2.2-2.63
				c-5.55,0.81-11.17,0.92-16.94,0.29c-2.21-0.24-5.9,1.82-6.87,3.82c-1.93,3.99-2.85,8.61-3.46,13.07c-0.26,1.88-0.07,3.6,0.51,5.12
				C355.33,379.21,356,378.75,356.76,378.35"/>
			<path clip-path="url(#SVGID_2_)" d="M197.79,316.32c-1.22,8.23-1.95,16.56-3.77,24.65c-2.15,9.56-8.9,15.28-18.11,18
				c-7.2,2.12-12.86-0.82-13.92-8.12c-1.25-8.64-1.63-17.45-1.82-26.2c-0.15-6.77,4.38-10.71,10.37-12.18
				c7.83-1.92,15.32-4.05,21.57-9.55c2.48-2.19,4.58-1.31,4.63,2.34c0.06,3.65,0.01,7.3,0.01,10.94
				C197.1,316.24,197.44,316.28,197.79,316.32"/>
			<path clip-path="url(#SVGID_2_)" d="M262.94,317.74c0.27-4.73,0.53-8.83,0.72-12.94c0.15-3.27,2.06-3.91,4.12-2.02
				c6.55,6.01,14.85,7.68,22.93,10.07c6.06,1.79,9.68,6.01,9.49,12.39c-0.25,8.49-0.7,17.01-1.87,25.41
				c-1.03,7.39-6.56,10.43-13.81,8.38c-11.96-3.38-18.03-11.85-19.76-23.71C263.87,329.3,263.49,323.21,262.94,317.74"/>
			<path clip-path="url(#SVGID_2_)" d="M219.75,416.74c3.6,1.02,7.09,2.37,10.65,3.52c6.4,0.17,12.81,0.27,19.25,0.55
				c1.19,0.05,2.37,0.11,3.56,0.16c0.85-2.41-0.11-4.63-2.04-6.42c-4.42-4.12-8.88-8.19-13.46-12.13c-6.96-6-8.43-5.99-15.4,0.11
				c-4.54,3.97-8.98,8.07-13.31,12.27c-0.02,0.01-0.03,0.04-0.04,0.05C212.58,415.36,216.2,415.73,219.75,416.74"/>
			<path clip-path="url(#SVGID_2_)" d="M340.24,286.74c-1.49,11.29-6.23,22.12-17.18,28.84c-8.46,5.2-16.64,0.98-20.11-8.29
				c-6.02-16.08,7.34-32.76,18.59-37.18C330.55,266.58,340.4,274.78,340.24,286.74"/>
			<path clip-path="url(#SVGID_2_)" d="M119.9,285.28c-0.03-6.93,3.62-11.51,9.2-14.8c5.11-3.01,9.7-0.87,14.02,1.95
				c10.03,6.56,19.58,20.49,13.97,35.24c-3.65,9.6-12.37,13.03-21.04,7.39c-8.22-5.36-12.13-13.68-14.96-22.62
				C120.37,290.16,120.28,287.68,119.9,285.28"/>
			<path clip-path="url(#SVGID_2_)" d="M184,95.03c-3.54-3.43-7.3-6.49-11.07-8.76c-3.62,1.4-7.26,2.74-10.93,4.01
				c-0.18,0.06-0.36,0.12-0.54,0.18c-0.12,2.28-1.28,4.5-3.93,5.95c-5.05,2.78-10.21,5.4-15.26,8.19c0.37,2.38,0.6,4.8,0.77,7.28
				c0.64,9.28,4.98,11.17,12.85,6.34c0.39-0.24,0.84-0.4,1.17-0.71c4.44-4.12,9.5-4.13,14.88-2.32c1.58,0.53,3.25,0.79,4.85,1.25
				c2.9,0.82,4.79-0.19,5.52-3.08c1.12-4.41,2.33-8.82,3.05-13.31C185.62,98.45,185.1,96.09,184,95.03"/>
			<path clip-path="url(#SVGID_2_)" d="M302.38,80.97c5.5,2.36,11.05,4.59,16.47,7.12c2.77,1.3,2.97,3.64,2.16,6.58
				c-1.43,5.2-2.33,10.55-3.44,15.83c-0.16,0.74-0.23,1.51-0.39,2.25c-1.98,8.96-5.46,10.75-12.74,5.39
				c-5.69-4.19-11.03-4.67-17.5-2.61c-7.55,2.41-8.27,1.7-9.96-6.27c-0.22-1.04-0.4-2.09-0.65-3.13c-2.46-10.03-1.92-11.4,7.06-17.01
				c5.67-3.54,11.2-7.56,18.48-6.83C302.04,81.85,302.21,81.41,302.38,80.97"/>
			<g id="giraffe" clip-path="url(#SVGID_2_)">
				<path d="M230.59,199.59c1.37,0,2.74,0.06,4.11-0.01c11.57-0.55,20.18,4.08,26.09,14.18c2.49,4.26,5.76,8.1,8.95,11.9
					c1.83,2.17,1.85,3.99,0.23,6.09c-3.7,4.81-7.15,9.86-11.25,14.3c-1.29,1.4-4.47,1.93-6.55,1.56c-14.74-2.63-29.42-2.72-44.11,0.12
					c-3.65,0.7-6.13-0.24-8.23-3.82c-2.51-4.28-5.99-8.02-9.22-11.85c-2.26-2.68-1.77-4.64,0.59-7.03c2.53-2.56,5.09-5.34,6.69-8.51
					c6.37-12.65,16.38-18.28,30.43-16.84c0.75,0.08,1.52,0.01,2.28,0.01C230.59,199.67,230.59,199.63,230.59,199.59"/>
				<path d="M199.81,342.5c0.69-7.96,1.59-18.87,2.63-29.76c0.38-3.91,2.24-6.44,6.42-7.71c6.5-1.97,12.89-3.34,19.71-2.1
					c2.02,0.37,4.23-0.02,6.31-0.35c6.94-1.09,13.35,1.03,19.36,3.89c1.9,0.9,3.41,4.3,3.66,6.71c1.17,11.19,1.94,22.43,2.62,33.66
					c0.32,5.3-1.44,7.01-6.79,6.18c-5.52-0.85-10.99-2.25-16.38-3.76c-6.94-1.94-13.54-0.42-20.17,1.35c-2.93,0.78-5.82,1.8-8.79,2.32
					C201.23,354.18,199.54,352.64,199.81,342.5"/>
				<path d="M128.03,125.19c2.26,0.3,4.52,0.69,6.79,0.89c6.3,0.55,12.51,1.61,18.19-3.09c2.54-2.1,6.35-2.94,9.73-3.67
					c6.68-1.44,10.34,0.75,13.88,6.57c2.67,4.39,5.93,8.44,9.08,12.53c3.77,4.91,3.76,6.75-0.58,10.88
					c-4.85,4.62-9.62,9.32-14.63,13.76c-4.47,3.97-9.76,4.87-15.75,4.33c-9.57-0.86-18.13-3.53-25.21-10.31
					c-1.49-1.43-3.53-2.49-5.52-3.14c-7.3-2.39-10.22-8.23-11.93-14.91c-0.93-3.66,0.13-7.36,3.33-9.31c3.75-2.3,8.06-3.69,12.13-5.47
					C127.7,124.55,127.86,124.87,128.03,125.19"/>
				<path d="M298.78,167.83c-2.51-1.44-7.14-3.39-10.91-6.41c-4.98-3.98-9.3-8.78-13.88-13.24c-2.6-2.53-2.71-5.27-0.66-8.2
					c3.9-5.59,7.38-11.54,11.83-16.64c2.03-2.33,6.07-4.33,9.02-4.1c4.83,0.37,10.02,1.88,14.12,4.42c3.96,2.45,7.7,3.2,11.99,2.87
					c4.25-0.33,8.57-1.49,12.71-1c4.03,0.47,8.23,1.98,11.7,4.11c3.62,2.22,4.66,6.34,3.26,10.55c-2.12,6.38-5.09,12.01-12.31,14.1
					c-2.11,0.61-4.28,1.91-5.82,3.49C321.89,165.92,311.59,166.85,298.78,167.83"/>
				<path d="M230.03,295.69c-5.6,1.68-10.7,3.08-15.71,4.74c-6.16,2.03-8.24,0.72-8.11-5.8c0.06-3.01,0.46-6.1,1.27-9
					c1.49-5.4,3.31-10.72,5.14-16.02c2.78-8.07,9.53-12.29,16.98-13.57c3.76-0.65,8.52,3.13,12.46,5.51c1.93,1.17,3.69,3.5,4.39,5.67
					c2.78,8.62,5.15,17.38,7.57,26.12c0.27,0.98,0.02,2.12-0.11,3.17c-0.58,4.89-1.97,5.76-6.64,4.33
					C241.51,299.09,235.73,297.39,230.03,295.69"/>
				<path d="M232.46,139.53c0-3.04,0.21-6.11-0.05-9.13c-0.35-3.98,1.59-6.17,4.98-7.61c8.86-3.75,17.56-7.7,23.25-16.12
					c0.4-0.58,3.13-0.51,3.84,0.2c3.67,3.64,5.05,8.38,4.4,13.37c-0.63,4.79-2.21,9.45-3.05,14.23c-0.76,4.31-1.43,8.69-1.49,13.04
					c-0.07,5.46-2.02,7.89-7.6,8.82c-5.48,0.92-10.92,2.12-16.34,3.34c-3.52,0.79-5.96-0.6-6.54-3.86c-0.94-5.35-1.23-10.82-1.8-16.25
					C232.2,139.56,232.33,139.55,232.46,139.53"/>
				<path d="M227.93,140.3c-0.28,4.88-0.26,9.31-0.85,13.67c-0.83,6.08-3.81,7.34-9.52,5.35c-3.65-1.27-7.62-1.93-11.5-2.19
					c-7.99-0.54-9.73-2.78-10.07-10.63c-0.26-5.82-1.94-11.61-3.3-17.34c-1.77-7.47-2.53-14.69,2.5-21.34
					c1.75-2.31,3.31-2.52,4.92-0.05c4.9,7.56,12.65,11.18,20.43,14.67c7.33,3.29,7.39,3.16,7.39,11.05
					C227.93,135.91,227.93,138.34,227.93,140.3"/>
				<path d="M255.46,162.56c10.25,1.87,19.24,3.28,28.12,5.23c4.08,0.9,4.22,4.57,3.05,7.74c-0.97,2.65-2.7,5.06-4.33,7.41
					c-4.14,5.98-8.53,11.8-12.59,17.83c-2.15,3.19-4.38,4.24-7.96,2.25c-4.1-2.27-8.42-4.16-12.59-6.32
					c-4.23-2.19-6.66-5.58-6.73-10.52c-0.06-4.25-0.28-8.49-0.42-12.73c-0.12-3.68,1.19-6.68,4.71-8.09
					C249.92,164.08,253.29,163.24,255.46,162.56"/>
				<path d="M217.91,179.2c0,2.13,0.01,4.26,0,6.4c-0.03,4.83-2.09,8.58-6.32,10.87c-4.4,2.38-8.99,4.41-13.45,6.69
					c-2.65,1.36-4.86,1.41-6.75-1.29c-4.98-7.09-10.06-14.12-15.06-21.2c-0.87-1.24-1.65-2.57-2.27-3.95
					c-2.29-5.08-0.82-8.38,4.54-9.5c7.73-1.62,15.48-3.57,23.31-4.13c4.25-0.31,8.89,1.5,12.94,3.29c1.65,0.73,2.66,3.83,3.14,6.02
					c0.47,2.15-0.11,4.54-0.23,6.82C217.81,179.21,217.86,179.21,217.91,179.2"/>
			</g>
			<path clip-path="url(#SVGID_2_)" d="M348.22,194.7c-5.93,0-11.86,0.08-17.78-0.02c-5.18-0.09-6.67-1.61-7.2-6.77
				c-0.33-3.18-0.42-6.42-1.14-9.5c-0.92-3.9,0.33-6.56,3.66-8.4c3.85-2.14,7.92-3.92,11.56-6.37c2.61-1.75,4.4-4.71,7.01-6.46
				c2.59-1.74,6.31-4.26,8.5-3.5c2.86,1,6.14,4.64,6.67,7.61c0.92,5.08-0.19,10.52-0.38,15.81c-0.08,2.09-0.62,4.47,0.16,6.24
				c2.8,6.39,0.81,10.94-8.31,11.38c-0.91,0.04-1.82,0.01-2.74,0.01V194.7z"/>
			<path clip-path="url(#SVGID_2_)" d="M123.54,194.69c-4.86,0-9.73,0.18-14.59-0.04c-8.11-0.37-9.81-3.34-8.07-11.21
				c0.78-3.53-0.49-7.46-0.39-11.2c0.13-4.61-0.31-9.63,1.35-13.73c2.64-6.55,8.22-7.42,12.99-2.31c5.21,5.58,11.16,9.64,18.07,12.74
				c5.29,2.38,6.03,4.84,4.97,10.74c-0.43,2.39-0.55,4.83-0.75,7.25c-0.52,6.42-2.1,7.9-8.57,7.85c-1.67-0.01-3.35-0.17-5.02-0.26
				C123.54,194.57,123.54,194.63,123.54,194.69"/>
		</g>
		<g id="erase">
			<defs>
				<rect id="SVGID_3_" width="500" height="500"/>
			</defs>
			<clipPath id="SVGID_4_">
				<use xlink:href="#SVGID_3_"  overflow="visible"/>
			</clipPath>
			<path clip-path="url(#SVGID_4_)" fill="none" stroke="#FFFFFF" stroke-width="6" stroke-miterlimit="10" d="M356.76,378.35
				c0.4-0.21,0.8-0.38,1.2-0.54c37.8-31.83,61.83-79.49,61.83-132.78c0-80.34-54.61-147.91-128.72-167.66
				c-5.39-0.85-10.75-1.86-16.07-3.13c-1.35-0.32-2.69-0.64-4.03-0.97c-8.06-1.15-16.3-1.76-24.69-1.76
				c-13.55,0-26.73,1.56-39.38,4.49c-3.33,1.13-6.76,1.94-10.21,2.71c-12.99,3.87-25.35,9.23-36.87,15.86
				c-0.59,0.68-1.33,1.3-2.28,1.82c-1.91,1.05-3.83,2.08-5.76,3.1c-47.56,30.94-79.01,84.55-79.01,145.52
				c0,85.03,61.17,155.77,141.9,170.63c0.67,0.11,1.35,0.23,2.02,0.36c9.62,1.65,19.5,2.52,29.59,2.52
				c40.01,0,76.84-13.55,106.19-36.29C353.49,380.68,354.89,379.34,356.76,378.35z"/>
		</g>
</svg>
