<?xml version="1.0" encoding="utf-8"?>
<!-- Generator: Adobe Illustrator 16.0.0, SVG Export Plug-In . SVG Version: 6.00 Build 0)  -->
<!DOCTYPE svg PUBLIC "-//W3C//DTD SVG 1.1//EN" "http://www.w3.org/Graphics/SVG/1.1/DTD/svg11.dtd">
<svg version="1.1" id="human_symbol" xmlns="http://www.w3.org/2000/svg" xmlns:xlink="http://www.w3.org/1999/xlink" x="0px"
	 y="0px" width="400px" height="400px" viewBox="0 0 400 400" enable-background="new 0 0 400 400" xml:space="preserve">
<g>
	<circle cx="197.112" cy="200" r="146.784"/>
	<g>
		<g>
			<path fill="#FFFFFF" d="M208.057,225.832c0.104,0.064,0.207,0.136,0.312,0.2c-0.168,0.464-0.345,0.936-0.504,1.399
				c-0.736,2.185-0.12,3.928,1.976,4.816c1.112,0.473,2.439,0.809,3.6,0.664c1.977-0.248,3.896-0.928,5.832-1.439
				c1.232-0.328,2.433-0.824,3.688-0.984c1.976-0.248,3.544,0.943,5.168,1.824c2.856,1.552,5.601,3.207,8.92,3.815
				c4.568,0.84,9.136,0.64,13.712,0.584c2.68-0.032,5.16-0.832,7.328-2.567c3.473-2.769,5.288-6.305,5.016-10.729
				c-0.144-2.384-0.647-4.752-1.071-7.111c-0.568-3.177-1.808-3.433-4.536-3.185c-4.416,0.399-8.584-0.009-12.544-2.097
				c-2.849-1.504-5.728-1.735-8.681-0.191c-1.576,0.824-3.215,1.561-4.871,2.208c-2.528,0.983-5.137,1.504-8.192,0.968
				c4.224-0.904,7.88-2.384,11.24-4.52c2.92-1.856,4.495-4.536,4.448-8.072c-0.017-1.384-0.576-1.808-1.937-1.456
				c-0.937,0.24-1.849,0.616-2.8,0.769c-1.312,0.215-2.648,0.279-3.977,0.407c-0.031-0.144-0.063-0.28-0.104-0.424
				c3.536-0.8,6.216-3.12,8.88-5.272c1.96-1.584,3.513-3.76,4.968-5.864c1.2-1.744,2-3.76,2.969-5.664
				c3.047-5.984,4.567-12.4,5.312-19.032c0.336-2.968,0.616-5.944,0.888-8.912c0.393-4.336-0.32-8.448-2.712-12.16
				c-1.056-1.632-2.376-2.992-4.521-3.2c0.865-0.072,1.713-0.096,2.529,0.048c2.312,0.408,3.815,1.928,5.104,3.768
				c0.912,1.304,1.72,1.488,3.224,1.104c0.896-0.224,1.824-0.344,2.744-0.424c1.24-0.104,2.488-0.096,3.728-0.168
				c1.545-0.096,2.84-0.976,3-2.136c0.185-1.344,0.049-2.688-0.959-3.704c-3-3.056-5.992-6.12-9.088-9.072
				c-1.217-1.16-2.769-1.928-4.576-1.48c-2.008,0.504-3.408,2.408-3.496,4.704c-0.04,0.984-0.008,1.968-0.008,2.944
				c-1.48-3.08-2.057-6.176-0.416-9.368c0.496-0.96,1.063-2.072,0.256-3.064c-0.816-1.008-2.096-0.704-3.032-0.272
				c-1.672,0.776-3.168,1.904-4.815,2.744c-0.881,0.456-2.017,1.032-2.865,0.832c-2.823-0.672-5.096-2.344-6.84-4.744
				c1.032,0.528,2.041,1,3.008,1.552c3.041,1.76,5.937,1.272,8.777-0.456c0.783-0.48,1.039-1.176,0.463-1.848
				c-0.64-0.744-1.384-1.584-2.256-1.912c-5.76-2.152-11.496-2.344-17.128,0.52c-1.44,0.736-2.319,1.792-2.248,3.472
				c0.024,0.624-0.272,0.776-0.832,0.832c-1.04,0.096-2.088,0.232-3.112,0.416c-5.328,0.952-10.071,3.08-13.888,7.032
				c-1.96,2.032-1.768,4.064,0.513,5.688c0.695,0.496,1.432,0.944,2.071,1.504c1.688,1.48,1.528,2.92-0.432,4.04
				c-0.601,0.344-1.248,0.672-1.912,0.84c-1.84,0.456-3.688,0.896-5.552,1.208c-3.464,0.568-6.672,1.576-8.808,4.608
				c-0.76,1.08-1.432,2.216-2.08,3.368c-2.968,5.28-5.44,10.728-5.72,16.92c-0.16,3.44,0.544,6.576,3.368,8.88
				c0.552,0.448,0.344,0.8,0.136,1.296c-0.672,1.6-1.328,3.216-1.896,4.848c-0.336,0.968-0.232,1.952,0.648,2.648
				c0.96,0.76,1.744,0.08,2.52-0.424c2.96-1.928,5.896-3.904,8.888-5.792c2.168-1.36,4.568-2.392,6.567-3.952
				c2.904-2.264,4.072-4.536,2.688-8.208c-0.344-0.904-0.6-1.84-0.872-2.768c-0.703-2.408-0.304-4.584,1.504-6.624
				c-0.879,3.272-0.496,6.256,1.088,9.024c1.633,2.864,3.664,5.352,7.185,5.944c1.336,0.224,2.696,0.328,4.048,0.368
				c4.688,0.128,8.768-1.24,11.191-5.496c1.465-2.568,2.433-5.432,3.593-8.176c0.784-1.856,1.392-3.784,2.28-5.584
				c0.8-1.616,2.111-2.832,3.863-3.568c-3.24,3.352-5.207,7.2-5.104,11.88c0.04,1.904-0.2,3.664-1.536,5.088
				c-1.088,1.16-2.288,2.216-3.416,3.344c-0.937,0.928-1.937,1.824-2.728,2.864c-0.912,1.208-0.721,1.776,0.479,2.68
				c1.496,1.12,2.608,2.544,3.248,4.312c0.424,1.16,0.664,2.352,0.136,3.648c-0.32-0.848-0.527-1.632-0.896-2.336
				c-1.704-3.216-4.488-4.696-8.04-4.896c-2.288-0.128-4.568-0.312-6.855-0.432c-3.353-0.176-6.761-0.256-9.801,1.368
				c-3.16,1.696-6.28,3.536-9.2,5.616c-3.928,2.792-7.624,5.896-11.464,8.808c-1.512,1.144-3.32,1.928-4.704,3.192
				c-3.272,3.008-4.832,6.944-5.52,11.272c-0.456,2.856-0.376,5.68,0.984,8.288c1.32,2.528,2.392,3.056,4.672,0.44
				c1-1.152,1.712-2.561,2.504-3.784c-0.312,2.296-1.512,4.216-3.144,5.937c-2.064,2.184-2.264,4.111-0.4,6.424
				c1.048,1.304,2.464,2.312,3.52,3.264c-1.192-0.12-2.904-0.88-3.984-2.424c-1.2-1.713-2.792-1.633-4.456-1.416
				c-0.864,0.111-1.72,0.464-2.536,0.8c-2.488,1-4.44,2.696-6.088,4.776c1.368-3.312,3.928-5.353,7.168-6.633
				c2.728-1.072,3.208-2.199,1.96-4.815c-0.264-0.56-0.6-1.097-0.84-1.664c-0.536-1.288-1.184-2.552-1.496-3.888
				c-0.784-3.368,0.024-6.608,1.016-9.824c0.528-1.696,1.032-3.408,1.416-5.144c0.208-0.936,0.064-2.136-1-2.328
				c-2.584-0.472-5.224-0.984-7.824-0.912c-4.968,0.144-9.176,2.416-12.896,5.583c-3.08,2.617-6.136,5.272-9.112,8.009
				c-1.824,1.68-3.768,3.344-5.144,5.368c-3.904,5.711-2.912,11.695,0.176,17.271c2.504,4.512,6.584,7.512,11.512,9.376
				c-0.896,0.112-1.824,0.272-2.68,0.08c-1.432-0.319-2.8-0.88-4.208-1.304c-1.448-0.432-2.256,0.264-1.912,1.728
				c0.168,0.729,0.504,1.513,0.992,2.064c2.624,2.968,5.864,5.231,9.56,6.456c4.248,1.416,8.632,2.4,13.168,2.728
				c5.896,0.425,11.712,0.072,17.48-1.128c7.208-1.496,14.032-4.145,20.728-7.136c0.977-0.433,1.928-0.929,3.008-1.464
				c-0.287-0.217-0.392-0.32-0.52-0.385c-3.592-2.008-6.472-4.655-7.912-8.64c-0.08-0.231-0.528-0.496-0.776-0.472
				c-2.768,0.304-5.52,0.704-8.104,1.872c-2.384,1.071-3.816,2.672-3.64,5.479c0.128,2.057-0.432,4.024-1.48,5.784
				c-0.608,1.032-1.496,1.888-2.264,2.832c-0.08-0.071-0.16-0.144-0.24-0.216c0.304-0.536,0.584-1.096,0.92-1.616
				c1.072-1.616,1.496-3.384,1.384-5.304c-0.128-2.192-1.336-3.624-3.44-4.104c-2.4-0.545-4.568,0.191-6.784,1.023
				c0.976-0.816,1.944-1.752,3.096-2.16c2.064-0.736,4.264-1.088,6.36-1.729c2.656-0.815,5.304-1.688,7.888-2.711
				c1.152-0.457,2.104-1.36,2.216-2.785c0.08-1.008,0.128-2.016,0.248-3.016c0.248-2.016,0.784-3.928,2.376-5.703
				c-0.28,0.688-0.48,1.104-0.624,1.535c-0.768,2.305-1,4.576,0.68,6.608c1.264,1.528,3.056,2.176,4.936,2.288
				c4.384,0.256,5.848-0.432,7.271-3.864C206.768,227.464,207.488,226.68,208.057,225.832z M182.456,136.736
				c-0.224,0.392-0.416,0.816-0.672,1.184c-1.832,2.6-4.48,4.144-7.248,5.512c-2.68,1.32-5.472,2.432-8.024,3.952
				c-2.816,1.672-3.296,2.864-2.344,5.616c0.512,1.464,0.76,3.128,0.648,4.672c-0.12,1.672-0.728,3.32-1.24,4.936
				c-0.448,1.416-0.424,2.744,0.28,4.04c0.576,1.056,1.192,2.088,1.792,3.136c1.624,2.832,2.208,4.992,2,7.384
				c-0.36-0.984-0.664-1.992-1.096-2.936c-0.448-0.976-0.976-1.928-1.568-2.832c-1.544-2.36-4.184-4.44-7.696-3.496
				c-1.824,0.488-3.68,0.968-5.408,1.72c-4.816,2.08-9.888,3.112-15.024,3.896c-3.976,0.608-7.56,1.768-9.288,5.936
				c-0.944,2.288-2.856,3.72-4.84,5.064c-1.024,0.688-2.064,1.424-2.92,2.304c-2.824,2.92-2.696,6.344,0.456,8.888
				c1.456,1.176,3.16,2.12,4.864,2.904c1.952,0.896,4.048,1.504,6.04,2.216c-1.52,0-3.112,0.136-4.672-0.04
				c-1.64-0.185-3.296-0.528-4.872-1.024c-3.408-1.08-5.376-3.84-7.264-6.616c-1.352-2-3.16-3.248-5.52-3.776
				c-1.848-0.408-3.704-0.816-5.512-1.384c-1.848-0.584-3.336-1.696-4.216-3.464c0.928,0.488,1.8,1.096,2.768,1.432
				c3.632,1.264,7.376,1.504,11.104,0.584c1.336-0.328,2.64-1.088,3.76-1.92c0.944-0.696,0.712-1.496-0.312-2.112
				c-0.896-0.536-1.88-0.984-2.656-1.664c-0.728-0.632-1.224-1.52-1.832-2.296c0.816,0.296,1.352,0.8,1.968,1.2
				c3.936,2.56,9.344,2.464,12.2-2.24c0.584-0.96,1.232-1.888,1.904-2.792c1.152-1.576,2.704-2.6,4.632-2.864
				c2.76-0.392,5.552-0.6,8.32-0.984c3.304-0.456,6.368-1.552,9.104-3.56c1.896-1.392,3.912-2.632,5.912-3.888
				c0.816-0.512,1.72-0.888,2.568-1.36c3.912-2.184,5.424-6.472,2.328-10.392c-0.904-1.144-1.576-2.488-2.28-3.792
				c-2.144-3.984-4.696-7.528-9.24-9.064c-1.048-0.352-1.272-1.224-1.048-2.176c0.208-0.896,0.616-1.752,0.848-2.648
				c0.384-1.488,0.856-2.984,1.008-4.504c0.28-2.848-1.272-4.664-4.12-5.04c-2.752-0.36-5.408,0.184-7.952,1.128
				c-1.608,0.592-2.968,1.672-3.888,3.208c-1.48,2.456,0.144,5.264,2.832,5c0.904-0.088,1.848,0.264,2.784,0.424
				c-0.632,0.352-1.232,0.44-1.832,0.52c-5.824,0.832-10.456,3.384-12.808,9.072c-0.76,1.832-1.28,3.76-0.672,5.776
				c0.384,1.264,1.128,1.608,2.392,1.256c1.112-0.32,2.232-0.68,3.376-0.832c3.072-0.408,6.176-0.592,8.88,1.32
				c2.52,1.792,5.336,2.096,8.28,2.04c0.32-0.008,0.632,0,0.952,0c0.008,0.096,0.016,0.192,0.024,0.288
				c-1.12,0.24-2.232,0.552-3.368,0.696c-2.352,0.312-4.528-0.432-6.656-1.32c-2.776-1.168-5.616-1.36-8.536-0.568
				c-2.28,0.624-3.672,2.048-4.176,4.352c-0.368,1.704-0.672,3.424-1.144,5.096c-0.384,1.376-1.192,2.536-2.296,3.44
				c-0.12-0.048-0.232-0.096-0.352-0.144c0.592-2.264,1.176-4.528,1.792-6.872c-4.024,0.088-4.024,0.088-6.688-2.64
				c-0.384-0.392-0.76-0.784-1.16-1.152c-1.728-1.576-3.64-1.896-5.648-0.704c-2.136,1.264-4.256,2.592-6.2,4.128
				c-2.04,1.6-4.144,3.256-5.728,5.272c-2.888,3.688-4.4,8.08-5.256,12.664c-0.416,2.208-0.672,4.456,0.272,6.376
				c-0.664,0.544-1.488,0.936-1.84,1.584c-0.464,0.856-0.72,1.912-0.76,2.888c-0.144,4.32,0.136,8.6,1.248,12.816
				c0.512,1.952,1.608,3.312,3.264,4.312c3.92,2.368,8.312,0.928,9.96-3.256c0.304-0.768,0.664-1.512,0.992-2.264
				c-0.144,2.392,0.376,4.488,2.08,6.152c0.856,0.832,1.8,1.648,2.84,2.208c2.144,1.16,4.376,2.168,6.592,3.2
				c3.224,1.504,6.568,2.544,10.168,2.615c3.464,0.072,6.536-0.799,8.864-3.56c0.656-0.768,1.288-1.567,2.04-2.248
				c2.216-2.008,4.504-3.936,6.712-5.952c1.024-0.936,2.2-1.8,2.632-3.271c-7.184-1.496-11.104-7.592-12.552-11.968
				c0.456,0.44,0.888,0.824,1.28,1.24c2.008,2.136,4.176,4.064,6.76,5.488c3.728,2.04,7.24,1.056,8.048-3.176
				c0.168-0.896,0.784-1.768,1.384-2.504c1.024-1.264,1.744-2.624,2.144-4.208c0.728-2.92,0.472-5.856,0.248-9.072
				c0.392,0.96,0.72,1.664,0.976,2.384c1.48,4.176,1.664,8.264-0.904,12.152c-0.296,0.448-0.528,0.952-0.784,1.424
				c-0.784,1.44-0.448,2.768,0.424,4.032c0.4,0.584,0.8,0.824,1.52,0.352c1.432-0.936,3.04-1.392,4.752-1.296
				c2.712,0.152,5.416,0.36,8.128,0.56c3.232,0.24,6.216-0.28,8.496-2.84c1-1.128,2.056-2.264,2.792-3.56
				c1.728-3.032,2.904-6.168,0.328-9.408c-2.32-2.92-2.864-6.368-2.472-9.92c0.368-3.336,0.936-6.672,1.704-9.944
				c1.736-7.4,6.256-12.136,13.824-13.752c0.568-0.12,1.136-0.216,1.712-0.328c4.392-0.84,4.376-3.056,3.912-6.352
				c-0.144-1.032-0.696-2.048-1.216-2.992c-0.496-0.904-1.192-1.704-1.8-2.552c-0.104,0.088-0.216,0.168-0.32,0.256
				c0.984,0.416,1.968,0.832,3.04,1.288c2.296-3.496,5.568-5.792,9.447-7.208c2.289-0.832,4.681-1.36,6.984-2.16
				c1.336-0.464,2.664-1.08,3.856-1.848c1.456-0.936,1.575-2.224,0.584-3.6c-0.12-0.168-0.232-0.328-0.464-0.64
				c2.127,0.584,4.072,0.816,5.992-0.008c1.336-0.568,1.647-1.584,0.567-2.52c-0.928-0.808-2.12-1.48-3.312-1.784
				c-3.385-0.864-6.696-0.28-9.92,0.936c-2.289,0.864-4.648,1.088-7.265,0.928c0.464-0.272,0.761-0.44,1.048-0.632
				c0.328-0.216,0.664-0.416,0.952-0.672c0.912-0.816,0.912-1.76-0.112-2.4c-0.943-0.592-1.968-1.112-3.031-1.448
				c-5.28-1.664-10.729-1.584-16.168-1.344c-1.56,0.064-3.16,0.392-4.656,0.888c-3.88,1.28-5.184,3.768-4.032,7.392
				c-1.52-0.936-1.888-2.464-2.224-4.008c-0.232-1.088-0.888-1.624-1.976-1.552c-3.648,0.248-6.56,1.688-8.272,5.104
				c-0.168,0.328-0.64,0.696-0.992,0.704c-3.6,0.136-7.08,0.688-10.416,2.816c2.36-2.616,5.056-3.848,8.272-4.016
				c1.552-0.08,2.704-0.928,3.488-2.216c0.224-0.376,0.328-1.016,0.152-1.384c-0.12-0.264-0.792-0.384-1.216-0.368
				c-0.808,0.024-1.616,0.168-2.416,0.288c-3.016,0.456-6.08,0.752-9.048,1.424c-3.584,0.816-7.088,1.936-10.624,2.96
				c-1.96,0.568-3.424,1.84-4.36,3.616c-0.304,0.568-0.44,1.584-0.128,2.016c0.32,0.448,1.328,0.696,1.952,0.584
				c1.912-0.36,3.712,0.016,5.496,0.56c1.784,0.544,3.24,1.552,3.824,3.44c0.184,0.6,0.184,1.248,0.28,1.952
				c1.68-1.184,3.248-2.288,4.816-3.392c0.064,0.088,0.128,0.176,0.2,0.264c-2.704,2.152-4.824,4.696-5.696,8.136
				c-0.488,1.936,0.08,3.432,1.576,4.64c2.24,1.808,4.512,3.568,6.16,6c0.632,0.936,1.616,1.376,2.736,1.576
				c3.704,0.664,6.584-2.12,5.728-5.72c-0.76-3.192-0.68-6.272,0.408-9.376c0.952-2.712,1.816-5.472,1.376-8.472
				c0.528,1.176,0.968,2.36,1.232,3.584c0.456,2.128-0.248,4.136-0.8,6.152c-0.624,2.304-1.072,4.592-0.352,6.968
				c0.4,1.32,1.224,2.2,2.56,2.4c0.904,0.136,1.88,0.12,2.776-0.064C177.6,140.68,180.248,139.144,182.456,136.736z M275.8,239.032
				c0.144-0.112,0.296-0.216,0.433-0.345c1.08-0.991,2.256-1.903,3.207-3.008c0.776-0.896,0.416-1.512-0.672-1.951
				c-1.039-0.424-2.016-1.024-3.016-1.553c0.048-0.111,0.088-0.216,0.137-0.328c3.951,1.568,7.584,1.137,10.896-1.6
				c0.319-0.264,1.016-0.288,1.456-0.145c2.328,0.744,4.52,0.36,6.439-0.967c2.984-2.057,3.488-5.24,1.288-8.473
				c-1.032-1.512-2.472-2.744-3.52-3.872c1.616,0.376,3.319,1.336,4.768,2.808c0.952,0.977,2.128,0.616,2.392-0.752
				c0.209-1.056,0.177-2.16,0.345-3.231c0.304-2.009,0.159-3.968-0.576-5.849c-1.353-3.439-4.024-5.359-7.584-6.447
				c-0.032,3.504-0.536,6.695-2.912,9.248c1.8-3.776,1.976-8.385-1-11.104c0.736-1.696,1.56-3.328,2.168-5.032
				c0.952-2.696,0.736-5.304-1.208-7.536c-0.632-0.72-1.527-1.2-2.328-1.816c0.232-0.16,0.432-0.28,0.616-0.416
				c4.937-3.664,7.192-10.944,3.256-16.744c-2.416-3.56-7.472-3.784-10.176-0.44c-1.832,2.264-3.624,4.568-5.528,6.768
				c-0.896,1.032-2.111,1.696-3.576,1.72c-3.584,0.048-6.176-2.312-6.496-5.952c-0.239-2.704-0.367-5.424-0.752-8.104
				c-0.264-1.848-1-3.584-2.848-4.784c2.496,0.952,4.128,3.184,4.544,6.32c0.128,0.968,0.456,1.024,1.272,0.848
				c2.775-0.6,4.68-2.68,4.768-5.528c0.04-1.44-0.199-2.888-0.288-4c0.152,0.352,0.521,1.032,0.761,1.76
				c1.231,3.688,0.728,6.96-3.104,8.408c-0.144,0.056-0.272,0.144-0.408,0.232c-2.327,1.456-2.416,5.064-0.159,6.632
				c2.799,1.952,6.783,0.648,8.047-2.664c0.345-0.896,0.528-1.864,0.769-2.8c0.664-2.528,1.832-4.336,4.776-3.992
				c0.576,0.064,1.215,0.152,1.735-0.032c0.681-0.232,1.392-0.616,1.872-1.136c0.584-0.64,0.217-1.368-0.288-1.992
				c-1.72-2.152-3.336-4.4-5.159-6.464c-2.425-2.728-5.24-4.984-8.896-5.896c-2.809-0.704-5.624-1.392-8.456-2.032
				c-1.017-0.232-2.063-0.384-3.104-0.408c-2.392-0.048-3.903,1.504-3.928,3.92c-0.023,2.296,0.208,4.624-0.08,6.88
				c-0.576,4.6-1.512,9.16-2.119,13.76c-0.305,2.256-0.496,4.608-0.225,6.848c0.695,5.624,3.863,9.784,8.439,12.96
				c5.36,3.712,13.984,1.968,16.129-5.52c0.367-1.28,0.64-2.584,0.983-3.96c0.104,0.224,0.185,0.352,0.24,0.496
				c1.64,4.76,2.265,9.624,1.696,14.664c-0.465,4.16-1.368,8.175-3.256,11.936c-0.953,1.888-2.032,3.696-3.473,4.903
				c1.04-3.023,2.28-6.199,3.2-9.463c0.992-3.497,1.84-7.064,1.312-10.769c-0.312-2.16-1.6-2.84-3.424-1.704
				c-1.992,1.24-3.76,2.712-4.656,5.008c-1.127,2.872-3.008,5.192-5.615,7.297c0.416-0.553,0.672-0.881,0.92-1.217
				c1.488-2.088,2.977-4.176,3.472-6.768c0.304-1.624-0.063-2.104-1.704-2.032c-4.703,0.224-8.416-1.824-11.552-5.08
				c-1.28-1.336-2.28-2.944-3.496-4.344c-0.872-1-1.88-0.936-2.616,0.16c-0.64,0.96-1.127,2.032-1.6,3.096
				c-1.24,2.816-2.592,5.592-4.68,7.872c-2.168,2.368-3.592,5.048-3.937,8.248c-0.248,2.287-0.104,3.904,2.736,4.544
				c0.864,0.192,1.672,0.616,2.504,0.928c4.448,1.664,8.896,3.097,13.8,2.536c3.92-0.448,7.944-0.24,11.496-2.464
				c-0.464,0.552-0.92,1.096-1.504,1.432c-1.271,0.744-2.656,1.296-3.896,2.089c-0.584,0.375-1.199,1.071-1.319,1.711
				c-0.208,1.152-0.16,2.385-0.04,3.568c0.384,3.824,1.6,5.439,5.729,6.4c3.312,0.768,6.551,0.152,9.631-1.264
				c2.625-1.201,4.721-3.041,6.465-5.312c-1.305,2.928-3.305,5.279-6.096,6.816c-4.617,2.543-9.449,3.016-14.465,0.888
				c-0.096,0.815-0.04,1.512-0.271,2.096c-0.6,1.504-1.185,3.04-2.024,4.408c-2.071,3.392-1.128,7.071,2.44,8.728
				c4.016,1.856,8.256,2.608,12.68,2.4c3.544-0.168,6.936-0.896,9.92-2.896c2.072-1.392,4.032-2.968,4.928-5.432
				c0.192-0.536,0.272-1.328,0.008-1.768c-0.855-1.448-2.08-1.896-3.783-1.385c-2,0.601-3.969,1.328-5.937,2.032
				c-0.208,0.072-0.399,0.368-0.472,0.601C281.271,237.376,278.552,238.225,275.8,239.032z M130.208,127.16
				c0.312-0.032,0.92-0.128,1.536-0.168c1.68-0.112,3.16-0.752,4.128-2.096c1.152-1.6,2.072-3.368,3.072-5.072
				c0.128-0.224,0.192-0.504,0.216-0.768c0.088-0.992-0.336-1.4-1.288-1.192c-3.248,0.72-6.272,1.904-8.968,3.96
				c-2.904,2.208-5.88,4.32-8.912,6.344c-3.944,2.624-8.04,5.024-11.936,7.712c-1.288,0.888-2.192,2.36-3.16,3.64
				c-0.224,0.296-0.216,1.096,0.024,1.352c0.304,0.328,0.992,0.552,1.44,0.456c0.696-0.144,1.4-0.496,1.96-0.944
				c1.224-0.96,2.36-2.024,3.52-3.056c2.488-2.208,5.376-3.208,8.648-2.928c-1.792,0.752-3.648,1.44-5.408,2.304
				c-2.072,1.016-4,2.328-4.912,4.552c-0.392,0.952-0.984,1.152-1.824,1.416c-1.28,0.4-2.608,0.848-3.704,1.592
				c-4.512,3.064-7.592,7.4-10.24,12.064c-0.392,0.696-0.44,1.64-0.464,2.472c-0.04,1.192,0.816,1.736,1.816,2.144
				c0.976,0.4,1.704,0.296,2.408-0.6c0.8-1.024,1.728-1.968,2.696-2.84c2.624-2.36,5.552-4.232,9-5.176
				c2.904-0.792,5.616-0.768,7.808,1.712c0.384,0.432,0.88,0.768,1.344,1.112c0.904,0.68,1.8,0.728,2.784,0.072
				c1.664-1.104,2.264-2.928,1.328-4.768c-1.488-2.936-3.992-4.424-7.232-4.464c-2.192-0.024-4.392,0.272-6.44,0.416
				c1.568-1.112,5.976-1.696,8.472-1.896c2.232-0.176,4.064-0.952,5.6-2.68c1.56-1.752,3.288-3.384,5.08-4.912
				c1.848-1.576,3.52-3.216,3.04-5.864C131.408,129.712,130.704,128.448,130.208,127.16z M206.416,265.496
				c2.16,2.472,4.104,4.832,6.184,7.064c3.76,4.031,7.68,7.912,10.721,12.575c1,1.544,2.32,2.937,3.695,4.169
				c1.648,1.471,3.328,1.407,5.072,0.071c0.704-0.536,1.336-1.185,1.992-1.792c0.64-0.592,0.855-1.344,0.439-2.104
				c-0.672-1.256-1.392-2.488-2.176-3.688c-1.928-2.944-4.32-5.681-5.703-8.856c-1.024-2.367-2.152-2.912-4.457-2.76
				c-3.328,0.225-6.295-0.92-8.56-3.424c-1.04-1.152-2.017-1.809-3.632-1.464C208.889,265.512,207.712,265.432,206.416,265.496z
				 M204.424,233.088c-0.016,0.072-0.04,0.152-0.056,0.225c-0.231,0-0.464-0.008-0.704,0c-2.248,0.08-3.2,1.408-2.536,3.584
				c0.672,2.199,2.304,3.623,4.056,4.936c1.032,0.768,2.112,0.977,3.473,0.648c1.68-0.408,3.455-0.465,5.191-0.561
				c2.633-0.136,5.272-0.048,7.889-0.296c2.656-0.256,5.336-0.704,7.64-2.168c0.672-0.433,1.448-1.328,1.448-2.008
				c0-0.688-0.816-1.48-1.44-2.032c-1.063-0.943-2.231-1.792-3.432-2.568c-0.688-0.439-1.568-1.008-2.272-0.904
				c-1.376,0.209-2.816,0.633-4,1.345c-3.359,2.024-6.783,2.384-10.472,1.071C207.672,233.809,206.023,233.504,204.424,233.088z
				 M289.768,200.408c0.944,0.336,1.824,0.624,2.688,0.951c0.903,0.345,1.792,0.729,2.696,1.089c2.76,1.096,3.936,0.336,3.744-2.904
				c-0.008-0.08-0.008-0.16-0.024-0.232c-0.616-3.232-1.168-6.472-1.864-9.688c-0.384-1.76-0.863-3.536-1.576-5.184
				c-0.656-1.528-1.824-1.704-3.088-0.64c-1.056,0.896-2,1.92-2.96,2.856C292.648,191.952,292.672,192.872,289.768,200.408z
				 M268.616,253.088c-0.616-0.536-1.072-1.12-1.673-1.424c-2.344-1.184-4.655-2.536-7.127-3.359
				c-7.393-2.48-15.096-3.009-22.824-3.297c-1.848-0.072-2.52,0.672-2.553,2.641c0.145,0.023,0.297,0.071,0.449,0.063
				c4.672-0.136,9.303,0.304,13.887,1.2c4.801,0.936,9.529,2.152,13.832,4.6c1.336,0.76,2.576,1.68,3.953,2.592
				C267.208,255.16,267.855,254.2,268.616,253.088z M229.111,253.912c1.721,1.048,3.337,2.048,4.969,3.016
				c4.768,2.832,9.752,5.096,15.296,5.92c1.056,0.16,2.136,0.192,3.2,0.28c0.023-0.136,0.056-0.272,0.08-0.407
				c-0.328-0.152-0.656-0.305-0.984-0.457c-2.136-1.016-4.328-1.92-6.4-3.063c-3.783-2.089-7.279-4.56-9.703-8.272
				c-0.648-0.992-2.561-1.207-3.4-0.352C231.176,251.607,230.232,252.695,229.111,253.912z M260.439,260.8
				c-0.68-0.319-1.256-0.608-1.848-0.864c-4.584-2.023-8.607-4.775-11.656-8.832c-0.184-0.239-0.535-0.463-0.832-0.496
				c-2.535-0.256-5.088-0.471-7.631-0.688c-0.129-0.008-0.265,0.088-0.568,0.191c1.096,1.664,2.455,2.896,3.92,4.033
				c4.504,3.487,9.648,5.695,14.992,7.527C258.256,262.16,259.271,261.752,260.439,260.8z M113.632,211.664
				c-1.032-0.848-1.816-1.512-2.616-2.145c-2.408-1.903-5.064-3.096-8.224-3c-2.616,0.072-5.232,0.017-7.928,0.017
				c0.312,0.472,0.624,1.032,1.016,1.528c1.456,1.808,2.824,3.791,5.312,4.295C105.264,213.176,109.272,212.48,113.632,211.664z
				 M240.473,242.496c10.159,1.168,20.344,1.888,29.144,8.145c0.296-1.232,0.6-2.272,0.76-3.336c0.04-0.281-0.265-0.809-0.528-0.904
				c-3.871-1.433-7.695-2.984-11.752-3.937c-5.592-1.312-11.119-1.864-16.728-0.264C241.064,242.288,240.768,242.4,240.473,242.496z
				 M248.872,265.137c0.008-0.129,0.017-0.257,0.017-0.377c-1.113-0.24-2.232-0.455-3.337-0.728
				c-6.136-1.513-11.655-4.392-16.952-7.744c-1.632-1.032-1.791-1.008-3.144,0.479c2.521,2.752,5.208,5.297,8.528,7.104
				c2.096,1.136,4.248,2.048,6.728,1.849c1.815-0.145,3.647-0.168,5.464-0.289C247.08,265.384,247.977,265.24,248.872,265.137z
				 M121.96,218.792c2-0.384,4.024-0.712,6-1.185c0.8-0.184,1.776-0.527,1.608-1.655c-0.16-1.063-1.192-1.088-1.984-1.304
				c-0.4-0.104-0.848-0.041-1.28-0.041c-1.32,0-2.648,0.08-3.968,0c-2.328-0.144-4.696-0.424-6.688-1.703
				c-1.264-0.816-2.2-0.576-3.256,0.128c-0.288,0.192-0.584,0.392-0.856,0.608c-1.28,1.023-1.136,2.231,0.424,2.799
				C115.176,217.624,118.448,218.561,121.96,218.792z M88.768,187.152c0.136,0,0.272-0.008,0.408-0.008
				c0.072-0.432,0.16-0.856,0.224-1.296c0.512-3.4,0.856-6.84,1.576-10.192c0.728-3.4,1.872-6.712,2.728-10.08
				c0.192-0.744,0.096-1.64-0.144-2.376c-0.128-0.392-0.816-0.768-1.296-0.832c-0.304-0.04-0.84,0.464-0.992,0.832
				c-2.408,5.656-4.16,11.456-3.424,17.712C88.088,183,88.456,185.072,88.768,187.152z M231.072,244.359
				c-0.088-0.111-0.184-0.215-0.272-0.327c-1.224,0.088-2.456,0.272-3.68,0.224c-1.104-0.048-1.568,0.4-1.92,1.385
				c-1.152,3.271-2.952,6.144-5.648,8.367c-1.247,1.032-2.647,1.881-3.952,2.84c-0.399,0.288-0.728,0.672-1.088,1.008
				c0.48-0.016,0.969-0.008,1.448-0.071c0.304-0.04,0.592-0.168,0.88-0.288c5.04-2.145,9.376-5.216,12.496-9.792
				C230.032,246.672,230.496,245.48,231.072,244.359z M208.784,261.288c0.088-0.08,0.176-0.16,0.256-0.24
				c-0.231-0.36-0.456-0.728-0.696-1.08c-2.039-2.968-4.072-5.936-6.128-8.888c-0.159-0.232-0.544-0.544-0.735-0.496
				c-1.696,0.456-3.376,0.992-5.265,1.561C198.992,257.48,203.816,259.48,208.784,261.288z M208.641,255.4
				c0.471,1.463,0.631,1.567,2.008,1.088c4.215-1.465,7.791-3.848,10.304-7.6c0.84-1.248,1.456-2.648,2.2-4.041
				c-2.656-0.399-4.344,0.272-5.641,2.504C215.432,250.928,212.992,254.288,208.641,255.4z M264.432,257.936
				c-4.048-3.824-9.119-5.367-14.504-6.416c0.393,0.849,0.864,1.625,1.512,2.192c2.801,2.433,5.992,4.248,9.465,5.544
				C262.488,259.855,263.336,259.552,264.432,257.936z M205.473,262.816c-0.097-0.16-0.121-0.248-0.177-0.28
				c-0.231-0.136-0.472-0.265-0.72-0.376c-4.32-1.896-8.184-4.312-10.36-8.76c-0.112-0.232-0.656-0.44-0.928-0.368
				c-1.08,0.272-2.128,0.655-3.176,1C191.096,258.584,199.768,263.552,205.473,262.816z M213.312,261.809
				c1.215,3.943,7.039,6.567,12.023,5.319c-2.855-1.823-4.863-4.216-6.184-7.096C217.152,260.641,215.271,261.208,213.312,261.809z
				 M215.824,245.576c-3.272,0.544-6.192,1.264-8.553,3.416c-0.295,0.271-0.472,0.712-0.607,1.111
				c-0.288,0.816,0.376,3.393,1.048,3.488c0.744,0.104,1.656-0.184,2.336-0.584C212.872,251.368,214.352,248.656,215.824,245.576z
				 M233.488,266.32c-3.793-2.192-6.937-4.769-9.641-7.864c-0.744-0.856-1.32-0.08-1.943,0.185
				c-0.721,0.303-0.424,0.808-0.176,1.248c1.92,3.512,4.84,5.848,8.664,6.943C231.305,267.088,232.408,267.208,233.488,266.32z"/>
			<path d="M184.472,199.68c-0.016,0.096-0.04,0.2-0.056,0.296c4.376,1.952,8.48,4.152,11.64,8.008
				c2.416,2.943,3.144,6.088,3.024,9.68c-0.08,2.456-0.016,4.92-0.016,7.4c0.608-2.504,1.192-4.969,1.799-7.424
				c0.345-1.4,1.257-2.36,2.664-2.369c1.48-0.008,3.024,0.177,4.425,0.633c2.168,0.703,4.239,1.695,6.344,2.568
				c-0.521-0.648-0.928-1.537-1.616-1.92c-1.744-0.977-3.607-1.729-5.432-2.553c-2.008-0.904-4.111-1.632-6-2.736
				c-2.136-1.24-2.096-3.24-0.064-4.64c0.793-0.544,1.68-0.992,2.576-1.328c5.256-1.976,10.792-2.664,16.608-3.376
				c-1.952-0.104-3.616-0.224-5.28-0.271c-3.496-0.104-7.023-0.137-10.376,0.936c-3.672,1.184-7.136,1.088-10.768-0.256
				C190.88,201.191,187.632,200.544,184.472,199.68z M169,245.824c0-0.049,0-0.088-0.008-0.137
				c-2.128-0.631-4.408-0.976-6.368-1.959c-6.12-3.072-8.168-8.545-7.968-14.992c0.088-2.809,0.816-5.592,1.112-8.393
				c0.312-2.912,1.448-5.336,3.64-7.296c1.096-0.983,2.144-2.04,3.12-3.144c1.16-1.305,2.008-2.76,1.624-4.616
				c-0.408,0.808-0.744,1.64-1.208,2.384c-1.336,2.137-3.304,3.584-5.472,4.776c-1.408,0.776-2.368,1.888-2.784,3.424
				c-0.536,1.976-0.992,3.976-1.52,5.96c-0.664,2.496-0.784,3.607-3.984,2.456c-2.488-0.896-4.928-0.513-6.824,0.328
				c1.288,0.151,3.104,0.063,4.672,0.632c2.288,0.832,4.224,2.296,4.704,4.992c0.144,0.832,0.312,1.695,0.672,2.439
				c1.224,2.553,2.512,5.072,3.84,7.568c1.672,3.16,3.04,6.336,1.448,10.016c0.76-0.976,1.352-2,1.976-3.008
				c0.992-1.615,2.264-2.152,4.136-1.912C165.536,245.561,167.272,245.664,169,245.824z M216.359,134.44
				c1.152,0.608,2.617,1.216,3.889,2.088c1.432,0.984,2.176,2.368,1.6,4.232c-1.039,3.392-2.832,6.28-5.552,8.576
				c-1.479,1.248-3.104,1.664-5.063,1.168c-5.705-1.432-10.521,0.376-14.96,4.48c1.28-0.56,2.248-1.024,3.248-1.408
				c3.432-1.328,6.88-2.432,10.608-1.112c0.937,0.328,1.608,0.816,1.672,1.84c0.112,1.736,0.177,3.48,0.24,5.224
				c0.071,2.008,0.96,3.56,2.408,4.008c-0.08-0.224-0.12-0.4-0.192-0.56c-2.056-4.368,0.809-10.808,3.672-13.336
				c1.672-1.472,3.088-3.256,4.496-5c1.192-1.472,2.225-3.088,3.312-4.648c1.279-1.824,3.016-2.696,5.248-2.696
				c1.472,0,2.951-0.064,4.408-0.24c1.655-0.2,3.295-0.568,4.728-1.496c-2.024,0.16-4.048,0.584-6.017,0.408
				c-2.664-0.24-5.199,0.016-7.672,0.888c-1.863,0.656-3.463,0.376-5.031-0.76C219.832,134.944,218.032,134.4,216.359,134.44z
				 M246.784,221.584c0.008-0.111,0.016-0.216,0.016-0.328c-1.176,0-2.407-0.216-3.521,0.049c-2.319,0.551-4.592,1.303-6.855,2.063
				c-1.968,0.664-3.928,1.192-6.023,0.776c-0.377-0.072-0.76-0.16-1.129-0.265c-0.352-0.096-0.695-0.224-1.047-0.336
				c2.336,1.608,4.879,2.433,7.688,1.808c2.304-0.52,4.367-0.096,6.328,1.145c0.472,0.296,1.008,0.504,1.512,0.744
				c-0.216-0.36-0.504-0.6-0.775-0.864c-1.776-1.76-1.4-3.392,0.991-4.144C244.88,221.936,245.848,221.792,246.784,221.584z"/>
			<path d="M184.472,199.68c3.168,0.864,6.408,1.511,9.472,2.648c3.632,1.352,7.096,1.439,10.768,0.256
				c3.353-1.08,6.88-1.048,10.376-0.936c1.664,0.047,3.336,0.168,5.28,0.271c-5.816,0.721-11.353,1.4-16.608,3.376
				c-0.896,0.336-1.783,0.784-2.576,1.328c-2.032,1.399-2.072,3.399,0.064,4.64c1.889,1.104,4,1.824,6,2.736
				c1.824,0.824,3.688,1.576,5.432,2.552c0.688,0.384,1.096,1.272,1.616,1.921c-2.104-0.873-4.176-1.873-6.344-2.568
				c-1.4-0.456-2.944-0.641-4.425-0.633c-1.407,0.009-2.319,0.977-2.664,2.369c-0.599,2.463-1.191,4.928-1.799,7.424
				c0-2.48-0.064-4.944,0.016-7.4c0.12-3.6-0.616-6.736-3.024-9.68c-3.16-3.856-7.264-6.057-11.64-8.008
				C184.432,199.88,184.448,199.776,184.472,199.68z"/>
			<path fill="#020202" d="M169,245.824c-1.728-0.152-3.464-0.264-5.184-0.48c-1.872-0.232-3.144,0.297-4.136,1.912
				c-0.624,1.008-1.216,2.032-1.976,3.008c1.592-3.68,0.224-6.855-1.448-10.016c-1.32-2.504-2.608-5.023-3.84-7.568
				c-0.36-0.752-0.528-1.615-0.672-2.439c-0.48-2.704-2.416-4.16-4.704-4.992c-1.576-0.568-3.384-0.48-4.672-0.632
				c1.896-0.841,4.336-1.224,6.824-0.328c3.2,1.151,3.32,0.048,3.984-2.456c0.528-1.984,0.984-3.977,1.52-5.96
				c0.416-1.544,1.376-2.656,2.784-3.424c2.168-1.192,4.136-2.64,5.472-4.776c0.464-0.744,0.808-1.576,1.208-2.384
				c0.384,1.856-0.472,3.312-1.624,4.616c-0.976,1.104-2.024,2.16-3.12,3.144c-2.192,1.96-3.336,4.384-3.64,7.296
				c-0.296,2.809-1.024,5.592-1.112,8.393c-0.192,6.439,1.848,11.92,7.968,14.992c1.96,0.983,4.232,1.328,6.368,1.959
				C168.992,245.736,169,245.775,169,245.824z"/>
			<path d="M216.359,134.44c1.664-0.04,3.465,0.504,5.049,1.648c1.568,1.136,3.168,1.416,5.031,0.76
				c2.473-0.872,5.009-1.128,7.672-0.888c1.969,0.176,3.984-0.248,6.017-0.408c-1.433,0.928-3.071,1.296-4.728,1.496
				c-1.457,0.176-2.937,0.24-4.408,0.24c-2.232,0-3.969,0.872-5.248,2.696c-1.088,1.56-2.12,3.168-3.312,4.648
				c-1.408,1.744-2.824,3.528-4.496,5c-2.863,2.52-5.728,8.96-3.672,13.336c0.072,0.16,0.12,0.336,0.192,0.56
				c-1.448-0.448-2.345-2-2.408-4.008c-0.063-1.744-0.12-3.48-0.239-5.224c-0.064-1.016-0.736-1.504-1.673-1.84
				c-3.728-1.32-7.176-0.216-10.608,1.112c-1,0.384-1.968,0.848-3.248,1.408c4.441-4.104,9.256-5.912,14.96-4.48
				c1.96,0.496,3.592,0.072,5.064-1.168c2.711-2.296,4.512-5.184,5.551-8.576c0.568-1.864-0.168-3.248-1.6-4.232
				C218.977,135.656,217.512,135.048,216.359,134.44z"/>
			<path d="M246.784,221.584c-0.944,0.208-1.904,0.359-2.816,0.648c-2.392,0.752-2.768,2.384-0.991,4.144
				c0.264,0.265,0.56,0.504,0.775,0.864c-0.504-0.248-1.04-0.448-1.512-0.744c-1.961-1.24-4.024-1.664-6.328-1.145
				c-2.809,0.633-5.344-0.199-7.688-1.808c0.352,0.112,0.695,0.24,1.047,0.336c0.369,0.104,0.752,0.185,1.129,0.265
				c2.096,0.416,4.056-0.112,6.023-0.776c2.264-0.761,4.536-1.521,6.856-2.063c1.112-0.265,2.344-0.049,3.52-0.049
				C246.8,221.368,246.792,221.473,246.784,221.584z"/>
			<path fill="#FFFFFF" d="M200.28,116.304c-5.392,2.704-8.112,7.368-9.96,12.696c-3.44-4.216-8.016-4.584-13.192-3
				c1.104-1.216,2.472-1.608,3.848-1.904c1.352-0.288,2.744-0.4,4.2-0.6c-1.224-4.024-0.504-7.552,2.8-10.36
				c-1.032,1.688-2.096,3.424-1.768,5.48c0.184,1.16,0.648,2.424,1.376,3.328c1.312,1.64,3.608,1.416,4.904-0.256
				c0.664-0.856,1.288-1.752,2.008-2.56C196.032,117.392,197.976,116.456,200.28,116.304z"/>
			<path fill="#FFFFFF" d="M100.784,176.056c1.624-4.28,5.16-6.632,9.08-8.808c-1.936-2.024-1.656-4.368-1.312-6.76
				c1.392,3.496,3.888,5.904,7.536,7.672C109.872,169.072,104.968,171.872,100.784,176.056z"/>
		</g>
	</g>
</g>
</svg>
