<?xml version="1.0" encoding="utf-8"?>
<!-- Generator: Adobe Illustrator 16.0.0, SVG Export Plug-In . SVG Version: 6.00 Build 0)  -->
<!DOCTYPE svg PUBLIC "-//W3C//DTD SVG 1.1//EN" "http://www.w3.org/Graphics/SVG/1.1/DTD/svg11.dtd">
<svg id="human_symbol" viewBox="0 0 500 500">
			<g>
				<circle cx="246.39" cy="250" r="183.48"/>
				<g>
					<g>
						<path fill-rule="evenodd" clip-rule="evenodd" fill="#FFFFFF" d="M235.68,133.33c5.98,0,11.98-0.31,17.94,0.05
							c22.82,1.38,43.98,7.94,62.91,21.01c3.35,2.31,6.47,4.98,9.51,7.69c4.72,4.2,9.4,8.46,13.87,12.93
							c5.16,5.16,9.63,10.93,13.8,16.92c5.57,8,10.83,16.2,15.21,24.9c4.81,9.58,7.96,19.73,9.83,30.3c1.1,6.2,1.67,12.44,1.07,18.69
							c-0.84,8.73-2.85,17.17-7.13,24.97c-2.45,4.47-5.76,8.25-9.05,12.05c-2.74,3.17-6.54,4.48-10.53,5.1
							c-3.1,0.49-6.25,0.69-9.39,0.88c-0.95,0.06-1.24,0.47-1.47,1.22c-0.73,2.36-1.39,4.74-2.25,7.05
							c-3.33,8.95-10.12,13.83-19.14,15.98c-5.72,1.36-11.58,1.71-17.43,2.11c-4.83,0.33-9.64,0.97-14.46,1.47
							c-1.04,0.11-1.47,0.63-1.37,1.74c0.31,3.4,1.98,6.25,3.62,9.11c1.69,2.95,3.49,5.83,5,8.87s0.96,4.95-1.8,6.94
							c-3.35,2.42-7.11,3.72-11.29,3.65c-1.11-0.02-1.91-0.43-2.53-1.39c-7.3-11.18-16.21-20.98-25.9-30.1
							c-1.66-1.56-3.35-3.13-5.18-4.48c-1.02-0.75-2.36-1.05-3.55-1.58c-4.58-2.04-8.12-5.26-10.61-9.6c-0.62-1.08-1.2-1.35-2.4-0.92
							c-8.44,3.03-17.18,3.95-26.07,3.35c-6.96-0.47-13.61-2.41-20.15-4.78c-4.71-1.71-9.4-3.45-13.26-6.78
							c-5.16-4.46-7.27-10.17-6.67-16.9c0.31-3.43,0.18-6.78-1.25-9.99c-0.51-1.15-0.97-2.34-1.26-3.56c-0.3-1.26-0.98-1.56-2.17-1.48
							c-1.75,0.11-3.5,0.1-5.25,0.06c-8.93-0.19-17.48-2.31-25.68-5.67c-12.13-4.97-18.86-14.47-21.71-26.96
							c-1.12-4.9-2.18-9.83-2.86-14.8c-0.9-6.57-0.82-13.17,1.06-19.62c1.39-4.78,2.66-9.61,4.27-14.32
							c2.12-6.23,5.75-11.63,9.81-16.76c1.44-1.83,2.67-3.83,4.17-5.62c4-4.78,8.3-9.28,13.31-13.01c5.61-4.18,11.3-8.25,17.11-12.14
							c6.44-4.32,13.75-6.67,21.16-8.69c8.21-2.25,16.41-4.62,24.89-5.69c6.19-0.78,12.38-1.66,18.6-2.18
							c4.88-0.41,9.81-0.35,14.72-0.49C235.68,133.02,235.68,133.17,235.68,133.33z M260.07,282.29c0.13,0.08,0.26,0.17,0.39,0.25
							c-0.21,0.58-0.43,1.17-0.63,1.75c-0.92,2.73-0.15,4.91,2.47,6.02c1.39,0.59,3.05,1.01,4.5,0.83c2.47-0.31,4.87-1.16,7.29-1.8
							c1.54-0.41,3.04-1.03,4.61-1.23c2.47-0.31,4.43,1.18,6.46,2.28c3.57,1.94,7,4.01,11.15,4.77c5.71,1.05,11.42,0.8,17.14,0.73
							c3.35-0.04,6.45-1.04,9.16-3.21c4.34-3.46,6.61-7.88,6.27-13.41c-0.18-2.98-0.81-5.94-1.34-8.89c-0.71-3.97-2.26-4.29-5.67-3.98
							c-5.52,0.5-10.73-0.01-15.68-2.62c-3.56-1.88-7.16-2.17-10.85-0.24c-1.97,1.03-4.02,1.95-6.09,2.76
							c-3.16,1.23-6.42,1.88-10.24,1.21c5.28-1.13,9.85-2.98,14.05-5.65c3.65-2.32,5.62-5.67,5.56-10.09
							c-0.02-1.73-0.72-2.26-2.42-1.82c-1.17,0.3-2.31,0.77-3.5,0.96c-1.64,0.27-3.31,0.35-4.97,0.51c-0.04-0.18-0.08-0.35-0.13-0.53
							c4.42-1,7.77-3.9,11.1-6.59c2.45-1.98,4.39-4.7,6.21-7.33c1.5-2.18,2.5-4.7,3.71-7.08c3.81-7.48,5.71-15.5,6.64-23.79
							c0.42-3.71,0.77-7.43,1.11-11.14c0.49-5.42-0.4-10.56-3.39-15.2c-1.32-2.04-2.97-3.74-5.65-4c1.08-0.09,2.14-0.12,3.16,0.06
							c2.89,0.51,4.77,2.41,6.38,4.71c1.14,1.63,2.15,1.86,4.03,1.38c1.12-0.28,2.28-0.43,3.43-0.53c1.55-0.13,3.11-0.12,4.66-0.21
							c1.93-0.12,3.55-1.22,3.75-2.67c0.23-1.68,0.06-3.36-1.2-4.63c-3.75-3.82-7.49-7.65-11.36-11.34c-1.52-1.45-3.46-2.41-5.72-1.85
							c-2.51,0.63-4.26,3.01-4.37,5.88c-0.05,1.23-0.01,2.46-0.01,3.68c-1.85-3.85-2.57-7.72-0.52-11.71c0.62-1.2,1.33-2.59,0.32-3.83
							c-1.02-1.26-2.62-0.88-3.79-0.34c-2.09,0.97-3.96,2.38-6.02,3.43c-1.1,0.57-2.52,1.29-3.58,1.04c-3.53-0.84-6.37-2.93-8.55-5.93
							c1.29,0.66,2.55,1.25,3.76,1.94c3.8,2.2,7.42,1.59,10.97-0.57c0.98-0.6,1.3-1.47,0.58-2.31c-0.8-0.93-1.73-1.98-2.82-2.39
							c-7.2-2.69-14.37-2.93-21.41,0.65c-1.8,0.92-2.9,2.24-2.81,4.34c0.03,0.78-0.34,0.97-1.04,1.04c-1.3,0.12-2.61,0.29-3.89,0.52
							c-6.66,1.19-12.59,3.85-17.36,8.79c-2.45,2.54-2.21,5.08,0.64,7.11c0.87,0.62,1.79,1.18,2.59,1.88c2.11,1.85,1.91,3.65-0.54,5.05
							c-0.75,0.43-1.56,0.84-2.39,1.05c-2.3,0.57-4.61,1.12-6.94,1.51c-4.33,0.71-8.34,1.97-11.01,5.76c-0.95,1.35-1.79,2.77-2.6,4.21
							c-3.71,6.6-6.8,13.41-7.15,21.15c-0.2,4.3,0.68,8.22,4.21,11.1c0.69,0.56,0.43,1,0.17,1.62c-0.84,2-1.66,4.02-2.37,6.06
							c-0.42,1.21-0.29,2.44,0.81,3.31c1.2,0.95,2.18,0.1,3.15-0.53c3.7-2.41,7.37-4.88,11.11-7.24c2.71-1.7,5.71-2.99,8.21-4.94
							c3.63-2.83,5.09-5.67,3.36-10.26c-0.43-1.13-0.75-2.3-1.09-3.46c-0.88-3.01-0.38-5.73,1.88-8.28c-1.1,4.09-0.62,7.82,1.36,11.28
							c2.04,3.58,4.58,6.69,8.98,7.43c1.67,0.28,3.37,0.41,5.06,0.46c5.86,0.16,10.96-1.55,13.99-6.87c1.83-3.21,3.04-6.79,4.49-10.22
							c0.98-2.32,1.74-4.73,2.85-6.98c1-2.02,2.64-3.54,4.83-4.46c-4.05,4.19-6.51,9-6.38,14.85c0.05,2.38-0.25,4.58-1.92,6.36
							c-1.36,1.45-2.86,2.77-4.27,4.18c-1.17,1.16-2.42,2.28-3.41,3.58c-1.14,1.51-0.9,2.22,0.6,3.35c1.87,1.4,3.26,3.18,4.06,5.39
							c0.53,1.45,0.83,2.94,0.17,4.56c-0.4-1.06-0.66-2.04-1.12-2.92c-2.13-4.02-5.61-5.87-10.05-6.12c-2.86-0.16-5.71-0.39-8.57-0.54
							c-4.19-0.22-8.45-0.32-12.25,1.71c-3.95,2.12-7.85,4.42-11.5,7.02c-4.91,3.49-9.53,7.37-14.33,11.01
							c-1.89,1.43-4.15,2.41-5.88,3.99c-4.09,3.76-6.04,8.68-6.9,14.09c-0.57,3.57-0.47,7.1,1.23,10.36c1.65,3.16,2.99,3.82,5.84,0.55
							c1.25-1.44,2.14-3.2,3.13-4.73c-0.39,2.87-1.89,5.27-3.93,7.42c-2.58,2.73-2.83,5.14-0.5,8.03c1.31,1.63,3.08,2.89,4.4,4.08
							c-1.49-0.15-3.63-1.1-4.98-3.03c-1.5-2.14-3.49-2.04-5.57-1.77c-1.08,0.14-2.15,0.58-3.17,1c-3.11,1.25-5.55,3.37-7.61,5.97
							c1.71-4.14,4.91-6.69,8.96-8.29c3.41-1.34,4.01-2.75,2.45-6.02c-0.33-0.7-0.75-1.37-1.05-2.08c-0.67-1.61-1.48-3.19-1.87-4.86
							c-0.98-4.21,0.03-8.26,1.27-12.28c0.66-2.12,1.29-4.26,1.77-6.43c0.26-1.17,0.08-2.67-1.25-2.91c-3.23-0.59-6.53-1.23-9.78-1.14
							c-6.21,0.18-11.47,3.02-16.12,6.98c-3.85,3.27-7.67,6.59-11.39,10.01c-2.28,2.1-4.71,4.18-6.43,6.71
							c-4.88,7.14-3.64,14.62,0.22,21.59c3.13,5.64,8.23,9.39,14.39,11.72c-1.12,0.14-2.28,0.34-3.35,0.1c-1.79-0.4-3.5-1.1-5.26-1.63
							c-1.81-0.54-2.82,0.33-2.39,2.16c0.21,0.91,0.63,1.89,1.24,2.58c3.28,3.71,7.33,6.54,11.95,8.07c5.31,1.77,10.79,3,16.46,3.41
							c7.37,0.53,14.64,0.09,21.85-1.41c9.01-1.87,17.54-5.18,25.91-8.92c1.22-0.54,2.41-1.16,3.76-1.83c-0.36-0.27-0.49-0.4-0.65-0.48
							c-4.49-2.51-8.09-5.82-9.89-10.8c-0.1-0.29-0.66-0.62-0.97-0.59c-3.46,0.38-6.9,0.88-10.13,2.34c-2.98,1.34-4.77,3.34-4.55,6.85
							c0.16,2.57-0.54,5.03-1.85,7.23c-0.76,1.29-1.87,2.36-2.83,3.54c-0.1-0.09-0.2-0.18-0.3-0.27c0.38-0.67,0.73-1.37,1.15-2.02
							c1.34-2.02,1.87-4.23,1.73-6.63c-0.16-2.74-1.67-4.53-4.3-5.13c-3-0.68-5.71,0.24-8.48,1.28c1.22-1.02,2.43-2.19,3.87-2.7
							c2.58-0.92,5.33-1.36,7.95-2.16c3.32-1.02,6.63-2.11,9.86-3.39c1.44-0.57,2.63-1.7,2.77-3.48c0.1-1.26,0.16-2.52,0.31-3.77
							c0.31-2.52,0.98-4.91,2.97-7.13c-0.35,0.86-0.6,1.38-0.78,1.92c-0.96,2.88-1.25,5.72,0.85,8.26c1.58,1.91,3.82,2.72,6.17,2.86
							c5.48,0.32,7.31-0.54,9.09-4.83C258.46,284.33,259.36,283.35,260.07,282.29z M228.07,170.92c-0.28,0.49-0.52,1.02-0.84,1.48
							c-2.29,3.25-5.6,5.18-9.06,6.89c-3.35,1.65-6.84,3.04-10.03,4.94c-3.52,2.09-4.12,3.58-2.93,7.02c0.64,1.83,0.95,3.91,0.81,5.84
							c-0.15,2.09-0.91,4.15-1.55,6.17c-0.56,1.77-0.53,3.43,0.35,5.05c0.72,1.32,1.49,2.61,2.24,3.92c2.03,3.54,2.76,6.24,2.5,9.23
							c-0.45-1.23-0.83-2.49-1.37-3.67c-0.56-1.22-1.22-2.41-1.96-3.54c-1.93-2.95-5.23-5.55-9.62-4.37c-2.28,0.61-4.6,1.21-6.76,2.15
							c-6.02,2.6-12.36,3.89-18.78,4.87c-4.97,0.76-9.45,2.21-11.61,7.42c-1.18,2.86-3.57,4.65-6.05,6.33
							c-1.28,0.86-2.58,1.78-3.65,2.88c-3.53,3.65-3.37,7.93,0.57,11.11c1.82,1.47,3.95,2.65,6.08,3.63c2.44,1.12,5.06,1.88,7.55,2.77
							c-1.9,0-3.89,0.17-5.84-0.05c-2.05-0.23-4.12-0.66-6.09-1.28c-4.26-1.35-6.72-4.8-9.08-8.27c-1.69-2.5-3.95-4.06-6.9-4.72
							c-2.31-0.51-4.63-1.02-6.89-1.73c-2.31-0.73-4.17-2.12-5.27-4.33c1.16,0.61,2.25,1.37,3.46,1.79c4.54,1.58,9.22,1.88,13.88,0.73
							c1.67-0.41,3.3-1.36,4.7-2.4c1.18-0.87,0.89-1.87-0.39-2.64c-1.12-0.67-2.35-1.23-3.32-2.08c-0.91-0.79-1.53-1.9-2.29-2.87
							c1.02,0.37,1.69,1,2.46,1.5c4.92,3.2,11.68,3.08,15.25-2.8c0.73-1.2,1.54-2.36,2.38-3.49c1.44-1.97,3.38-3.25,5.79-3.58
							c3.45-0.49,6.94-0.75,10.4-1.23c4.13-0.57,7.96-1.94,11.38-4.45c2.37-1.74,4.89-3.29,7.39-4.86c1.02-0.64,2.15-1.11,3.21-1.7
							c4.89-2.73,6.78-8.09,2.91-12.99c-1.13-1.43-1.97-3.11-2.85-4.74c-2.68-4.98-5.87-9.41-11.55-11.33
							c-1.31-0.44-1.59-1.53-1.31-2.72c0.26-1.12,0.77-2.19,1.06-3.31c0.48-1.86,1.07-3.73,1.26-5.63c0.35-3.56-1.59-5.83-5.15-6.3
							c-3.44-0.45-6.76,0.23-9.94,1.41c-2.01,0.74-3.71,2.09-4.86,4.01c-1.85,3.07,0.18,6.58,3.54,6.25c1.13-0.11,2.31,0.33,3.48,0.53
							c-0.79,0.44-1.54,0.55-2.29,0.65c-7.28,1.04-13.07,4.23-16.01,11.34c-0.95,2.29-1.6,4.7-0.84,7.22c0.48,1.58,1.41,2.01,2.99,1.57
							c1.39-0.4,2.79-0.85,4.22-1.04c3.84-0.51,7.72-0.74,11.1,1.65c3.15,2.24,6.67,2.62,10.35,2.55c0.4-0.01,0.79,0,1.19,0
							c0.01,0.12,0.02,0.24,0.03,0.36c-1.4,0.3-2.79,0.69-4.21,0.87c-2.94,0.39-5.66-0.54-8.32-1.65c-3.47-1.46-7.02-1.7-10.67-0.71
							c-2.85,0.78-4.59,2.56-5.22,5.44c-0.46,2.13-0.84,4.28-1.43,6.37c-0.48,1.72-1.49,3.17-2.87,4.3c-0.15-0.06-0.29-0.12-0.44-0.18
							c0.74-2.83,1.47-5.66,2.24-8.59c-5.03,0.11-5.03,0.11-8.36-3.3c-0.48-0.49-0.95-0.98-1.45-1.44c-2.16-1.97-4.55-2.37-7.06-0.88
							c-2.67,1.58-5.32,3.24-7.75,5.16c-2.55,2-5.18,4.07-7.16,6.59c-3.61,4.61-5.5,10.1-6.57,15.83c-0.52,2.76-0.84,5.57,0.34,7.97
							c-0.83,0.68-1.86,1.17-2.3,1.98c-0.58,1.07-0.9,2.39-0.95,3.61c-0.18,5.4,0.17,10.75,1.56,16.02c0.64,2.44,2.01,4.14,4.08,5.39
							c4.9,2.96,10.39,1.16,12.45-4.07c0.38-0.96,0.83-1.89,1.24-2.83c-0.18,2.99,0.47,5.61,2.6,7.69c1.07,1.04,2.25,2.06,3.55,2.76
							c2.68,1.45,5.47,2.71,8.24,4c4.03,1.88,8.21,3.18,12.71,3.27c4.33,0.09,8.17-1,11.08-4.45c0.82-0.96,1.61-1.96,2.55-2.81
							c2.77-2.51,5.63-4.92,8.39-7.44c1.28-1.17,2.75-2.25,3.29-4.09c-8.98-1.87-13.88-9.49-15.69-14.96c0.57,0.55,1.11,1.03,1.6,1.55
							c2.51,2.67,5.22,5.08,8.45,6.86c4.66,2.55,9.05,1.32,10.06-3.97c0.21-1.12,0.98-2.21,1.73-3.13c1.28-1.58,2.18-3.28,2.68-5.26
							c0.91-3.65,0.59-7.32,0.31-11.34c0.49,1.2,0.9,2.08,1.22,2.98c1.85,5.22,2.08,10.33-1.13,15.19c-0.37,0.56-0.66,1.19-0.98,1.78
							c-0.98,1.8-0.56,3.46,0.53,5.04c0.5,0.73,1,1.03,1.9,0.44c1.79-1.17,3.8-1.74,5.94-1.62c3.39,0.19,6.77,0.45,10.16,0.7
							c4.04,0.3,7.77-0.35,10.62-3.55c1.25-1.41,2.57-2.83,3.49-4.45c2.16-3.79,3.63-7.71,0.41-11.76c-2.9-3.65-3.58-7.96-3.09-12.4
							c0.46-4.17,1.17-8.34,2.13-12.43c2.17-9.25,7.82-15.17,17.28-17.19c0.71-0.15,1.42-0.27,2.14-0.41c5.49-1.05,5.47-3.82,4.89-7.94
							c-0.18-1.29-0.87-2.56-1.52-3.74c-0.62-1.13-1.49-2.13-2.25-3.19c-0.13,0.11-0.27,0.21-0.4,0.32c1.23,0.52,2.46,1.04,3.8,1.61
							c2.87-4.37,6.96-7.24,11.81-9.01c2.86-1.04,5.85-1.7,8.73-2.7c1.67-0.58,3.33-1.35,4.82-2.31c1.82-1.17,1.97-2.78,0.73-4.5
							c-0.15-0.21-0.29-0.41-0.58-0.8c2.66,0.73,5.09,1.02,7.49-0.01c1.67-0.71,2.06-1.98,0.71-3.15c-1.16-1.01-2.65-1.85-4.14-2.23
							c-4.23-1.08-8.37-0.35-12.4,1.17c-2.86,1.08-5.81,1.36-9.08,1.16c0.58-0.34,0.95-0.55,1.31-0.79c0.41-0.27,0.83-0.52,1.19-0.84
							c1.14-1.02,1.14-2.2-0.14-3c-1.18-0.74-2.46-1.39-3.79-1.81c-6.6-2.08-13.41-1.98-20.21-1.68c-1.95,0.08-3.95,0.49-5.82,1.11
							c-4.85,1.6-6.48,4.71-5.04,9.24c-1.9-1.17-2.36-3.08-2.78-5.01c-0.29-1.36-1.11-2.03-2.47-1.94c-4.56,0.31-8.2,2.11-10.34,6.38
							c-0.21,0.41-0.8,0.87-1.24,0.88c-4.5,0.17-8.85,0.86-13.02,3.52c2.95-3.27,6.32-4.81,10.34-5.02c1.94-0.1,3.38-1.16,4.36-2.77
							c0.28-0.47,0.41-1.27,0.19-1.73c-0.15-0.33-0.99-0.48-1.52-0.46c-1.01,0.03-2.02,0.21-3.02,0.36c-3.77,0.57-7.6,0.94-11.31,1.78
							c-4.48,1.02-8.86,2.42-13.28,3.7c-2.45,0.71-4.28,2.3-5.45,4.52c-0.38,0.71-0.55,1.98-0.16,2.52c0.4,0.56,1.66,0.87,2.44,0.73
							c2.39-0.45,4.64,0.02,6.87,0.7c2.23,0.68,4.05,1.94,4.78,4.3c0.23,0.75,0.23,1.56,0.35,2.44c2.1-1.48,4.06-2.86,6.02-4.24
							c0.08,0.11,0.16,0.22,0.25,0.33c-3.38,2.69-6.03,5.87-7.12,10.17c-0.61,2.42,0.1,4.29,1.97,5.8c2.8,2.26,5.64,4.46,7.7,7.5
							c0.79,1.17,2.02,1.72,3.42,1.97c4.63,0.83,8.23-2.65,7.16-7.15c-0.95-3.99-0.85-7.84,0.51-11.72c1.19-3.39,2.27-6.84,1.72-10.59
							c0.66,1.47,1.21,2.95,1.54,4.48c0.57,2.66-0.31,5.17-1,7.69c-0.78,2.88-1.34,5.74-0.44,8.71c0.5,1.65,1.53,2.75,3.2,3
							c1.13,0.17,2.35,0.15,3.47-0.08C222,175.85,225.31,173.93,228.07,170.92z M344.75,298.79c0.18-0.14,0.37-0.27,0.54-0.43
							c1.35-1.24,2.82-2.38,4.01-3.76c0.97-1.12,0.52-1.89-0.84-2.44c-1.3-0.53-2.52-1.28-3.77-1.94c0.06-0.14,0.11-0.27,0.17-0.41
							c4.94,1.96,9.48,1.42,13.62-2c0.4-0.33,1.27-0.36,1.82-0.18c2.91,0.93,5.65,0.45,8.05-1.21c3.73-2.57,4.36-6.55,1.61-10.59
							c-1.29-1.89-3.09-3.43-4.4-4.84c2.02,0.47,4.15,1.67,5.96,3.51c1.19,1.22,2.66,0.77,2.99-0.94c0.26-1.32,0.22-2.7,0.43-4.04
							c0.38-2.51,0.2-4.96-0.72-7.31c-1.69-4.3-5.03-6.7-9.48-8.06c-0.04,4.38-0.67,8.37-3.64,11.56c2.25-4.72,2.47-10.48-1.25-13.88
							c0.92-2.12,1.95-4.16,2.71-6.29c1.19-3.37,0.92-6.63-1.51-9.42c-0.79-0.9-1.91-1.5-2.91-2.27c0.29-0.2,0.54-0.35,0.77-0.52
							c6.17-4.58,8.99-13.68,4.07-20.93c-3.02-4.45-9.34-4.73-12.72-0.55c-2.29,2.83-4.53,5.71-6.91,8.46
							c-1.12,1.29-2.64,2.12-4.47,2.15c-4.48,0.06-7.72-2.89-8.12-7.44c-0.3-3.38-0.46-6.78-0.94-10.13c-0.33-2.31-1.25-4.48-3.56-5.98
							c3.12,1.19,5.16,3.98,5.68,7.9c0.16,1.21,0.57,1.28,1.59,1.06c3.47-0.75,5.85-3.35,5.96-6.91c0.05-1.8-0.25-3.61-0.36-5
							c0.19,0.44,0.65,1.29,0.95,2.2c1.54,4.61,0.91,8.7-3.88,10.51c-0.18,0.07-0.34,0.18-0.51,0.29c-2.91,1.82-3.02,6.33-0.2,8.29
							c3.5,2.44,8.48,0.81,10.06-3.33c0.43-1.12,0.66-2.33,0.96-3.5c0.83-3.16,2.29-5.42,5.97-4.99c0.72,0.08,1.52,0.19,2.17-0.04
							c0.85-0.29,1.74-0.77,2.34-1.42c0.73-0.8,0.27-1.71-0.36-2.49c-2.15-2.69-4.17-5.5-6.45-8.08c-3.03-3.41-6.55-6.23-11.12-7.37
							c-3.51-0.88-7.03-1.74-10.57-2.54c-1.27-0.29-2.58-0.48-3.88-0.51c-2.99-0.06-4.88,1.88-4.91,4.9c-0.03,2.87,0.26,5.78-0.1,8.6
							c-0.72,5.75-1.89,11.45-2.65,17.2c-0.38,2.82-0.62,5.76-0.28,8.56c0.87,7.03,4.83,12.23,10.55,16.2
							c6.7,4.64,17.48,2.46,20.16-6.9c0.46-1.6,0.8-3.23,1.23-4.95c0.13,0.28,0.23,0.44,0.3,0.62c2.05,5.95,2.83,12.03,2.12,18.33
							c-0.58,5.2-1.71,10.22-4.07,14.92c-1.19,2.36-2.54,4.62-4.34,6.13c1.3-3.78,2.85-7.75,4-11.83c1.24-4.37,2.3-8.83,1.64-13.46
							c-0.39-2.7-2-3.55-4.28-2.13c-2.49,1.55-4.7,3.39-5.82,6.26c-1.41,3.59-3.76,6.49-7.02,9.12c0.52-0.69,0.84-1.1,1.15-1.52
							c1.86-2.61,3.72-5.22,4.34-8.46c0.38-2.03-0.08-2.63-2.13-2.54c-5.88,0.28-10.52-2.28-14.44-6.35c-1.6-1.67-2.85-3.68-4.37-5.43
							c-1.09-1.25-2.35-1.17-3.27,0.2c-0.8,1.2-1.41,2.54-2,3.87c-1.55,3.52-3.24,6.99-5.85,9.84c-2.71,2.96-4.49,6.31-4.92,10.31
							c-0.31,2.86-0.13,4.88,3.42,5.68c1.08,0.24,2.09,0.77,3.13,1.16c5.56,2.08,11.12,3.87,17.25,3.17c4.9-0.56,9.93-0.3,14.37-3.08
							c-0.58,0.69-1.15,1.37-1.88,1.79c-1.59,0.93-3.32,1.62-4.87,2.61c-0.73,0.47-1.5,1.34-1.65,2.14c-0.26,1.44-0.2,2.98-0.05,4.46
							c0.48,4.78,2,6.8,7.16,8c4.14,0.96,8.19,0.19,12.04-1.58c3.28-1.5,5.9-3.8,8.08-6.64c-1.63,3.66-4.13,6.6-7.62,8.52
							c-5.77,3.18-11.81,3.77-18.08,1.11c-0.12,1.02-0.05,1.89-0.34,2.62c-0.75,1.88-1.48,3.8-2.53,5.51
							c-2.59,4.24-1.41,8.84,3.05,10.91c5.02,2.32,10.32,3.26,15.85,3c4.43-0.21,8.67-1.12,12.4-3.62c2.59-1.74,5.04-3.71,6.16-6.79
							c0.24-0.67,0.34-1.66,0.01-2.21c-1.07-1.81-2.6-2.37-4.73-1.73c-2.5,0.75-4.96,1.66-7.42,2.54c-0.26,0.09-0.5,0.46-0.59,0.75
							C351.59,296.72,348.19,297.78,344.75,298.79z M162.76,158.95c0.39-0.04,1.15-0.16,1.92-0.21c2.1-0.14,3.95-0.94,5.16-2.62
							c1.44-2,2.59-4.21,3.84-6.34c0.16-0.28,0.24-0.63,0.27-0.96c0.11-1.24-0.42-1.75-1.61-1.49c-4.06,0.9-7.84,2.38-11.21,4.95
							c-3.63,2.76-7.35,5.4-11.14,7.93c-4.93,3.28-10.05,6.28-14.92,9.64c-1.61,1.11-2.74,2.95-3.95,4.55
							c-0.28,0.37-0.27,1.37,0.03,1.69c0.38,0.41,1.24,0.69,1.8,0.57c0.87-0.18,1.75-0.62,2.45-1.18c1.53-1.2,2.95-2.53,4.4-3.82
							c3.11-2.76,6.72-4.01,10.81-3.66c-2.24,0.94-4.56,1.8-6.76,2.88c-2.59,1.27-5,2.91-6.14,5.69c-0.49,1.19-1.23,1.44-2.28,1.77
							c-1.6,0.5-3.26,1.06-4.63,1.99c-5.64,3.83-9.49,9.25-12.8,15.08c-0.49,0.87-0.55,2.05-0.58,3.09c-0.05,1.49,1.02,2.17,2.27,2.68
							c1.22,0.5,2.13,0.37,3.01-0.75c1-1.28,2.16-2.46,3.37-3.55c3.28-2.95,6.94-5.29,11.25-6.47c3.63-0.99,7.02-0.96,9.76,2.14
							c0.48,0.54,1.1,0.96,1.68,1.39c1.13,0.85,2.25,0.91,3.48,0.09c2.08-1.38,2.83-3.66,1.66-5.96c-1.86-3.67-4.99-5.53-9.04-5.58
							c-2.74-0.03-5.49,0.34-8.05,0.52c1.96-1.39,7.47-2.12,10.59-2.37c2.79-0.22,5.08-1.19,7-3.35c1.95-2.19,4.11-4.23,6.35-6.14
							c2.31-1.97,4.4-4.02,3.8-7.33C164.26,162.14,163.38,160.56,162.76,158.95z M258.02,331.87c2.7,3.09,5.13,6.04,7.73,8.83
							c4.7,5.04,9.6,9.89,13.4,15.72c1.25,1.93,2.9,3.67,4.62,5.21c2.06,1.84,4.16,1.76,6.34,0.09c0.88-0.67,1.67-1.48,2.49-2.24
							c0.8-0.74,1.07-1.68,0.55-2.63c-0.84-1.57-1.74-3.11-2.72-4.61c-2.41-3.68-5.4-7.1-7.13-11.07c-1.28-2.96-2.69-3.64-5.57-3.45
							c-4.16,0.28-7.87-1.15-10.7-4.28c-1.3-1.44-2.52-2.26-4.54-1.83C261.11,331.89,259.64,331.79,258.02,331.87z M255.53,291.36
							c-0.02,0.09-0.05,0.19-0.07,0.28c-0.29,0-0.58-0.01-0.88,0c-2.81,0.1-4,1.76-3.17,4.48c0.84,2.75,2.88,4.53,5.07,6.17
							c1.29,0.96,2.64,1.22,4.34,0.81c2.1-0.51,4.32-0.58,6.49-0.7c3.29-0.17,6.59-0.06,9.86-0.37c3.32-0.32,6.67-0.88,9.55-2.71
							c0.84-0.54,1.81-1.66,1.81-2.51c0-0.86-1.02-1.85-1.8-2.54c-1.33-1.18-2.79-2.24-4.29-3.21c-0.86-0.55-1.96-1.26-2.84-1.13
							c-1.72,0.26-3.52,0.79-5,1.68c-4.2,2.53-8.48,2.98-13.09,1.34C259.59,292.26,257.53,291.88,255.53,291.36z M362.21,250.51
							c1.18,0.42,2.28,0.78,3.36,1.19c1.13,0.43,2.24,0.91,3.37,1.36c3.45,1.37,4.92,0.42,4.68-3.63c-0.01-0.1-0.01-0.2-0.03-0.29
							c-0.77-4.04-1.46-8.09-2.33-12.11c-0.48-2.2-1.08-4.42-1.97-6.48c-0.82-1.91-2.28-2.13-3.86-0.8c-1.32,1.12-2.5,2.4-3.7,3.57
							C365.81,239.94,365.84,241.09,362.21,250.51z M335.77,316.36c-0.77-0.67-1.34-1.4-2.09-1.78c-2.93-1.48-5.82-3.17-8.91-4.2
							c-9.24-3.1-18.87-3.76-28.53-4.12c-2.31-0.09-3.15,0.84-3.19,3.3c0.18,0.03,0.37,0.09,0.56,0.08c5.84-0.17,11.63,0.38,17.36,1.5
							c6,1.17,11.91,2.69,17.29,5.75c1.67,0.95,3.22,2.1,4.94,3.24C334.01,318.95,334.82,317.75,335.77,316.36z M286.39,317.39
							c2.15,1.31,4.17,2.56,6.21,3.77c5.96,3.54,12.19,6.37,19.12,7.4c1.32,0.2,2.67,0.24,4,0.35c0.03-0.17,0.07-0.34,0.1-0.51
							c-0.41-0.19-0.82-0.38-1.23-0.57c-2.67-1.27-5.41-2.4-8-3.83c-4.73-2.61-9.1-5.7-12.13-10.34c-0.81-1.24-3.2-1.51-4.25-0.44
							C288.97,314.51,287.79,315.87,286.39,317.39z M325.55,326c-0.85-0.4-1.57-0.76-2.31-1.08c-5.73-2.53-10.76-5.97-14.57-11.04
							c-0.23-0.3-0.67-0.58-1.04-0.62c-3.17-0.32-6.36-0.59-9.54-0.86c-0.16-0.01-0.33,0.11-0.71,0.24c1.37,2.08,3.07,3.62,4.9,5.04
							c5.63,4.36,12.06,7.12,18.74,9.41C322.82,327.7,324.09,327.19,325.55,326z M142.04,264.58c-1.29-1.06-2.27-1.89-3.27-2.68
							c-3.01-2.38-6.33-3.87-10.28-3.75c-3.27,0.09-6.54,0.02-9.91,0.02c0.39,0.59,0.78,1.29,1.27,1.91c1.82,2.26,3.53,4.74,6.64,5.37
							C131.58,266.47,136.59,265.6,142.04,264.58z M300.59,303.12c12.7,1.46,25.43,2.36,36.43,10.18c0.37-1.54,0.75-2.84,0.95-4.17
							c0.05-0.35-0.33-1.01-0.66-1.13c-4.84-1.79-9.62-3.73-14.69-4.92c-6.99-1.64-13.9-2.33-20.91-0.33
							C301.33,302.86,300.96,303,300.59,303.12z M311.09,331.42c0.01-0.16,0.02-0.32,0.02-0.47c-1.39-0.3-2.79-0.57-4.17-0.91
							c-7.67-1.89-14.57-5.49-21.19-9.68c-2.04-1.29-2.24-1.26-3.93,0.6c3.15,3.44,6.51,6.62,10.66,8.88c2.62,1.42,5.31,2.56,8.41,2.31
							c2.27-0.18,4.56-0.21,6.83-0.36C308.85,331.73,309.97,331.55,311.09,331.42z M152.45,273.49c2.5-0.48,5.03-0.89,7.5-1.48
							c1-0.23,2.22-0.66,2.01-2.07c-0.2-1.33-1.49-1.36-2.48-1.63c-0.5-0.13-1.06-0.05-1.6-0.05c-1.65,0-3.31,0.1-4.96,0
							c-2.91-0.18-5.87-0.53-8.36-2.13c-1.58-1.02-2.75-0.72-4.07,0.16c-0.36,0.24-0.73,0.49-1.07,0.76c-1.6,1.28-1.42,2.79,0.53,3.5
							C143.97,272.03,148.06,273.2,152.45,273.49z M110.96,233.94c0.17,0,0.34-0.01,0.51-0.01c0.09-0.54,0.2-1.07,0.28-1.62
							c0.64-4.25,1.07-8.55,1.97-12.74c0.91-4.25,2.34-8.39,3.41-12.6c0.24-0.93,0.12-2.05-0.18-2.97c-0.16-0.49-1.02-0.96-1.62-1.04
							c-0.38-0.05-1.05,0.58-1.24,1.04c-3.01,7.07-5.2,14.32-4.28,22.14C110.11,228.75,110.57,231.34,110.96,233.94z M288.84,305.45
							c-0.11-0.14-0.23-0.27-0.34-0.41c-1.53,0.11-3.07,0.34-4.6,0.28c-1.38-0.06-1.96,0.5-2.4,1.73c-1.44,4.09-3.69,7.68-7.06,10.46
							c-1.56,1.29-3.31,2.35-4.94,3.55c-0.5,0.36-0.91,0.84-1.36,1.26c0.6-0.02,1.21-0.01,1.81-0.09c0.38-0.05,0.74-0.21,1.1-0.36
							c6.3-2.68,11.72-6.52,15.62-12.24C287.54,308.34,288.12,306.85,288.84,305.45z M260.98,326.61c0.11-0.1,0.22-0.2,0.32-0.3
							c-0.29-0.45-0.57-0.91-0.87-1.35c-2.55-3.71-5.09-7.42-7.66-11.11c-0.2-0.29-0.68-0.68-0.92-0.62c-2.12,0.57-4.22,1.24-6.58,1.95
							C248.74,321.85,254.77,324.35,260.98,326.61z M260.8,319.25c0.59,1.83,0.79,1.96,2.51,1.36c5.27-1.83,9.74-4.81,12.88-9.5
							c1.05-1.56,1.82-3.31,2.75-5.05c-3.32-0.5-5.43,0.34-7.05,3.13C269.29,313.66,266.24,317.86,260.8,319.25z M330.54,322.42
							c-5.06-4.78-11.4-6.71-18.13-8.02c0.49,1.06,1.08,2.03,1.89,2.74c3.5,3.04,7.49,5.31,11.83,6.93
							C328.11,324.82,329.17,324.44,330.54,322.42z M256.84,328.52c-0.12-0.2-0.15-0.31-0.22-0.35c-0.29-0.17-0.59-0.33-0.9-0.47
							c-5.4-2.37-10.23-5.39-12.95-10.95c-0.14-0.29-0.82-0.55-1.16-0.46c-1.35,0.34-2.66,0.82-3.97,1.25
							C238.87,323.23,249.71,329.44,256.84,328.52z M266.64,327.26c1.52,4.93,8.8,8.21,15.03,6.65c-3.57-2.28-6.08-5.27-7.73-8.87
							C271.44,325.8,269.09,326.51,266.64,327.26z M269.78,306.97c-4.09,0.68-7.74,1.58-10.69,4.27c-0.37,0.34-0.59,0.89-0.76,1.39
							c-0.36,1.02,0.47,4.24,1.31,4.36c0.93,0.13,2.07-0.23,2.92-0.73C266.09,314.21,267.94,310.82,269.78,306.97z M291.86,332.9
							c-4.74-2.74-8.67-5.96-12.05-9.83c-0.93-1.07-1.65-0.1-2.43,0.23c-0.9,0.38-0.53,1.01-0.22,1.56c2.4,4.39,6.05,7.31,10.83,8.68
							C289.13,333.86,290.51,334.01,291.86,332.9z"/>
						<path fill-rule="evenodd" clip-rule="evenodd" d="M260.07,282.29c-0.71,1.06-1.62,2.05-2.1,3.21c-1.78,4.3-3.61,5.15-9.09,4.83
							c-2.35-0.14-4.59-0.95-6.17-2.86c-2.1-2.54-1.81-5.38-0.85-8.26c0.18-0.54,0.42-1.06,0.78-1.92c-1.99,2.23-2.67,4.62-2.97,7.13
							c-0.15,1.25-0.21,2.51-0.31,3.77c-0.14,1.78-1.33,2.91-2.77,3.48c-3.23,1.27-6.54,2.36-9.86,3.39c-2.63,0.81-5.37,1.24-7.95,2.16
							c-1.44,0.51-2.65,1.68-3.87,2.7c2.77-1.04,5.48-1.96,8.48-1.28c2.63,0.59,4.14,2.39,4.3,5.13c0.14,2.4-0.39,4.61-1.73,6.63
							c-0.43,0.64-0.77,1.34-1.15,2.02c0.1,0.09,0.2,0.18,0.3,0.27c0.95-1.17,2.07-2.25,2.83-3.54c1.31-2.2,2.01-4.67,1.85-7.23
							c-0.22-3.51,1.57-5.5,4.55-6.85c3.23-1.46,6.67-1.96,10.13-2.34c0.31-0.03,0.87,0.3,0.97,0.59c1.79,4.99,5.4,8.29,9.89,10.8
							c0.16,0.09,0.29,0.21,0.65,0.48c-1.36,0.66-2.54,1.28-3.76,1.83c-8.37,3.74-16.9,7.04-25.91,8.92
							c-7.21,1.5-14.48,1.95-21.85,1.41c-5.66-0.41-11.15-1.64-16.46-3.41c-4.62-1.54-8.67-4.36-11.95-8.07
							c-0.61-0.69-1.02-1.67-1.24-2.58c-0.43-1.82,0.58-2.69,2.39-2.16c1.76,0.52,3.48,1.23,5.26,1.63c1.07,0.24,2.23,0.04,3.35-0.1
							c-6.15-2.33-11.26-6.08-14.39-11.72c-3.87-6.98-5.1-14.46-0.22-21.59c1.73-2.52,4.15-4.61,6.43-6.71
							c3.72-3.42,7.54-6.74,11.39-10.01c4.65-3.96,9.91-6.8,16.12-6.98c3.25-0.09,6.55,0.55,9.78,1.14c1.33,0.24,1.51,1.74,1.25,2.91
							c-0.48,2.17-1.11,4.31-1.77,6.43c-1.24,4.02-2.25,8.07-1.27,12.28c0.39,1.68,1.21,3.26,1.87,4.86c0.3,0.72,0.71,1.38,1.05,2.08
							c1.56,3.27,0.96,4.67-2.45,6.02c-4.05,1.6-7.25,4.15-8.96,8.29c2.06-2.6,4.5-4.72,7.61-5.97c1.03-0.42,2.09-0.86,3.17-1
							c2.08-0.27,4.07-0.37,5.57,1.77c1.35,1.93,3.48,2.88,4.98,3.03c-1.31-1.19-3.08-2.45-4.4-4.08c-2.33-2.89-2.08-5.29,0.5-8.03
							c2.04-2.15,3.54-4.55,3.93-7.42c-1,1.54-1.88,3.3-3.13,4.73c-2.85,3.27-4.19,2.61-5.84-0.55c-1.7-3.26-1.8-6.79-1.23-10.36
							c0.86-5.41,2.81-10.33,6.9-14.09c1.73-1.58,3.99-2.56,5.88-3.99c4.8-3.63,9.42-7.52,14.33-11.01c3.65-2.6,7.54-4.9,11.5-7.02
							c3.8-2.03,8.05-1.93,12.25-1.71c2.86,0.15,5.71,0.38,8.57,0.54c4.45,0.26,7.92,2.11,10.05,6.12c0.46,0.88,0.72,1.86,1.12,2.92
							c0.67-1.62,0.36-3.1-0.17-4.56c-0.8-2.21-2.19-3.99-4.06-5.39c-1.51-1.13-1.74-1.85-0.6-3.35c0.99-1.3,2.24-2.42,3.41-3.58
							c1.41-1.41,2.91-2.73,4.27-4.18c1.67-1.78,1.97-3.97,1.92-6.36c-0.13-5.85,2.33-10.67,6.38-14.85c-2.2,0.92-3.84,2.44-4.83,4.46
							c-1.11,2.25-1.87,4.66-2.85,6.98c-1.45,3.43-2.66,7-4.49,10.22c-3.03,5.32-8.14,7.03-13.99,6.87c-1.69-0.05-3.4-0.18-5.06-0.46
							c-4.4-0.74-6.93-3.85-8.98-7.43c-1.98-3.46-2.46-7.19-1.36-11.28c-2.26,2.55-2.76,5.27-1.88,8.28c0.34,1.16,0.67,2.33,1.09,3.46
							c1.73,4.59,0.27,7.43-3.36,10.26c-2.5,1.95-5.51,3.23-8.21,4.94c-3.74,2.35-7.41,4.82-11.11,7.24c-0.97,0.63-1.94,1.48-3.15,0.53
							c-1.1-0.87-1.24-2.1-0.81-3.31c0.71-2.05,1.53-4.06,2.37-6.06c0.26-0.63,0.52-1.07-0.17-1.62c-3.53-2.88-4.41-6.8-4.21-11.1
							c0.36-7.73,3.44-14.55,7.15-21.15c0.81-1.44,1.65-2.86,2.6-4.21c2.67-3.79,6.69-5.05,11.01-5.76c2.33-0.38,4.64-0.94,6.94-1.51
							c0.83-0.21,1.64-0.62,2.39-1.05c2.45-1.4,2.65-3.21,0.54-5.05c-0.8-0.7-1.72-1.26-2.59-1.88c-2.85-2.02-3.09-4.57-0.64-7.11
							c4.77-4.94,10.69-7.6,17.36-8.79c1.29-0.23,2.59-0.41,3.89-0.52c0.71-0.06,1.08-0.26,1.04-1.04c-0.09-2.1,1.01-3.43,2.81-4.34
							c7.04-3.59,14.21-3.34,21.41-0.65c1.09,0.41,2.03,1.46,2.82,2.39c0.72,0.84,0.4,1.71-0.58,2.31c-3.56,2.17-7.18,2.77-10.97,0.57
							c-1.2-0.7-2.47-1.28-3.76-1.94c2.18,3,5.02,5.09,8.55,5.93c1.06,0.25,2.48-0.47,3.58-1.04c2.05-1.05,3.93-2.46,6.02-3.43
							c1.16-0.54,2.76-0.92,3.79,0.34c1,1.24,0.3,2.63-0.32,3.83c-2.05,3.99-1.33,7.86,0.52,11.71c0-1.23-0.04-2.46,0.01-3.68
							c0.11-2.87,1.86-5.25,4.37-5.88c2.26-0.56,4.19,0.4,5.72,1.85c3.87,3.69,7.61,7.52,11.36,11.34c1.26,1.28,1.43,2.96,1.2,4.63
							c-0.2,1.45-1.82,2.55-3.75,2.67c-1.55,0.1-3.11,0.09-4.66,0.21c-1.15,0.09-2.31,0.24-3.43,0.53c-1.88,0.48-2.89,0.25-4.03-1.38
							c-1.61-2.31-3.49-4.2-6.38-4.71c-1.02-0.18-2.08-0.15-3.16-0.06c2.69,0.25,4.34,1.95,5.65,4c2.99,4.64,3.88,9.78,3.39,15.2
							c-0.34,3.72-0.69,7.44-1.11,11.14c-0.93,8.28-2.83,16.3-6.64,23.79c-1.21,2.38-2.21,4.9-3.71,7.08
							c-1.82,2.63-3.76,5.34-6.21,7.33c-3.33,2.69-6.68,5.59-11.1,6.59c0.04,0.18,0.08,0.35,0.13,0.53c1.66-0.16,3.33-0.24,4.97-0.51
							c1.19-0.19,2.33-0.66,3.5-0.96c1.7-0.44,2.4,0.09,2.42,1.82c0.06,4.41-1.91,7.77-5.56,10.09c-4.2,2.67-8.77,4.51-14.05,5.65
							c3.81,0.67,7.08,0.02,10.24-1.21c2.08-0.81,4.12-1.73,6.09-2.76c3.69-1.93,7.29-1.64,10.85,0.24c4.95,2.61,10.16,3.12,15.68,2.62
							c3.4-0.31,4.95,0.01,5.67,3.98c0.53,2.95,1.17,5.91,1.34,8.89c0.33,5.53-1.93,9.95-6.27,13.41c-2.71,2.17-5.81,3.16-9.16,3.21
							c-5.72,0.07-11.43,0.32-17.14-0.73c-4.15-0.76-7.59-2.83-11.15-4.77c-2.03-1.11-4-2.59-6.46-2.28c-1.56,0.19-3.07,0.82-4.61,1.23
							c-2.42,0.64-4.83,1.49-7.29,1.8c-1.45,0.19-3.12-0.24-4.5-0.83c-2.62-1.11-3.4-3.29-2.47-6.02c0.2-0.59,0.42-1.17,0.63-1.75
							C260.33,282.46,260.2,282.37,260.07,282.29z M230.59,249.6c-0.02,0.12-0.05,0.25-0.07,0.37c5.47,2.44,10.6,5.19,14.55,10.01
							c3.02,3.68,3.93,7.61,3.78,12.1c-0.1,3.07-0.02,6.15-0.02,9.25c0.76-3.13,1.49-6.21,2.25-9.28c0.43-1.75,1.57-2.95,3.33-2.96
							c1.85-0.01,3.78,0.22,5.53,0.79c2.71,0.88,5.3,2.12,7.93,3.21c-0.65-0.81-1.16-1.92-2.02-2.4c-2.18-1.22-4.51-2.16-6.79-3.19
							c-2.51-1.13-5.14-2.04-7.5-3.42c-2.67-1.55-2.62-4.05-0.08-5.8c0.99-0.68,2.1-1.24,3.22-1.66c6.57-2.47,13.49-3.33,20.76-4.22
							c-2.44-0.13-4.52-0.28-6.6-0.34c-4.37-0.13-8.78-0.17-12.97,1.17c-4.59,1.48-8.92,1.36-13.46-0.32
							C238.6,251.49,234.54,250.68,230.59,249.6z M211.25,307.28c0-0.06,0-0.11-0.01-0.17c-2.66-0.79-5.51-1.22-7.96-2.45
							c-7.65-3.84-10.21-10.68-9.96-18.74c0.11-3.51,1.02-6.99,1.39-10.49c0.39-3.64,1.81-6.67,4.55-9.12c1.37-1.23,2.68-2.55,3.9-3.93
							c1.45-1.63,2.51-3.45,2.03-5.77c-0.51,1.01-0.93,2.05-1.51,2.98c-1.67,2.67-4.13,4.48-6.84,5.97c-1.76,0.97-2.96,2.36-3.48,4.28
							c-0.67,2.47-1.24,4.97-1.9,7.45c-0.83,3.12-0.98,4.51-4.98,3.07c-3.11-1.12-6.16-0.64-8.53,0.41c1.61,0.19,3.88,0.08,5.84,0.79
							c2.86,1.04,5.28,2.87,5.88,6.24c0.18,1.04,0.39,2.12,0.84,3.05c1.53,3.19,3.14,6.34,4.8,9.46c2.09,3.95,3.8,7.92,1.81,12.52
							c0.95-1.22,1.69-2.5,2.47-3.76c1.24-2.02,2.83-2.69,5.17-2.39C206.92,306.95,209.09,307.08,211.25,307.28z M270.45,168.05
							c1.44,0.76,3.27,1.52,4.86,2.61c1.79,1.23,2.72,2.96,2,5.29c-1.3,4.24-3.54,7.85-6.94,10.72c-1.85,1.56-3.88,2.08-6.33,1.46
							c-7.13-1.79-13.15,0.47-18.7,5.6c1.6-0.7,2.81-1.28,4.06-1.76c4.29-1.66,8.6-3.04,13.26-1.39c1.17,0.41,2.01,1.02,2.09,2.3
							c0.14,2.17,0.22,4.35,0.3,6.53c0.09,2.51,1.2,4.45,3.01,5.01c-0.1-0.28-0.15-0.5-0.24-0.7c-2.57-5.46,1.01-13.51,4.59-16.67
							c2.09-1.84,3.86-4.07,5.62-6.25c1.49-1.84,2.78-3.86,4.14-5.81c1.6-2.28,3.77-3.37,6.56-3.37c1.84,0,3.69-0.08,5.51-0.3
							c2.07-0.25,4.12-0.71,5.91-1.87c-2.53,0.2-5.06,0.73-7.52,0.51c-3.33-0.3-6.5,0.02-9.59,1.11c-2.33,0.82-4.33,0.47-6.29-0.95
							C274.79,168.68,272.54,168,270.45,168.05z M308.48,276.98c0.01-0.14,0.02-0.27,0.02-0.41c-1.47,0-3.01-0.27-4.4,0.06
							c-2.9,0.69-5.74,1.63-8.57,2.58c-2.46,0.83-4.91,1.49-7.53,0.97c-0.47-0.09-0.95-0.2-1.41-0.33c-0.44-0.12-0.87-0.28-1.31-0.42
							c2.92,2.01,6.1,3.04,9.61,2.26c2.88-0.65,5.46-0.12,7.91,1.43c0.59,0.37,1.26,0.63,1.89,0.93c-0.27-0.45-0.63-0.75-0.97-1.08
							c-2.22-2.2-1.75-4.24,1.24-5.18C306.1,277.42,307.31,277.24,308.48,276.98z"/>
						<path fill-rule="evenodd" clip-rule="evenodd" d="M228.07,170.92c-2.75,3.02-6.07,4.93-9.99,5.75c-1.12,0.23-2.34,0.25-3.47,0.08
							c-1.67-0.25-2.7-1.35-3.2-3c-0.9-2.97-0.34-5.84,0.44-8.71c0.69-2.51,1.57-5.03,1-7.69c-0.33-1.53-0.88-3.01-1.54-4.48
							c0.55,3.75-0.53,7.2-1.72,10.59c-1.36,3.88-1.46,7.73-0.51,11.72c1.07,4.5-2.52,7.99-7.16,7.15c-1.41-0.25-2.63-0.8-3.42-1.97
							c-2.06-3.04-4.9-5.24-7.7-7.5c-1.88-1.51-2.59-3.38-1.97-5.8c1.09-4.3,3.74-7.48,7.12-10.17c-0.08-0.11-0.16-0.22-0.25-0.33
							c-1.96,1.38-3.93,2.77-6.02,4.24c-0.12-0.88-0.12-1.69-0.35-2.44c-0.73-2.36-2.55-3.62-4.78-4.3c-2.23-0.68-4.48-1.15-6.87-0.7
							c-0.78,0.15-2.04-0.17-2.44-0.73c-0.39-0.55-0.21-1.81,0.16-2.52c1.17-2.21,3-3.81,5.45-4.52c4.41-1.28,8.8-2.69,13.28-3.7
							c3.71-0.84,7.53-1.21,11.31-1.78c1-0.15,2.01-0.33,3.02-0.36c0.53-0.01,1.37,0.13,1.52,0.46c0.21,0.46,0.09,1.26-0.19,1.73
							c-0.98,1.61-2.42,2.67-4.36,2.77c-4.03,0.21-7.4,1.75-10.34,5.02c4.17-2.65,8.52-3.35,13.02-3.52c0.43-0.02,1.03-0.47,1.24-0.88
							c2.14-4.27,5.78-6.07,10.34-6.38c1.36-0.09,2.17,0.58,2.47,1.94c0.42,1.93,0.88,3.84,2.78,5.01c-1.44-4.53,0.2-7.64,5.04-9.24
							c1.86-0.62,3.86-1.02,5.82-1.11c6.8-0.3,13.61-0.39,20.21,1.68c1.32,0.42,2.61,1.07,3.79,1.81c1.29,0.8,1.28,1.98,0.14,3
							c-0.36,0.32-0.79,0.57-1.19,0.84c-0.36,0.23-0.74,0.44-1.31,0.79c3.26,0.2,6.22-0.08,9.08-1.16c4.03-1.52,8.17-2.25,12.4-1.17
							c1.48,0.38,2.98,1.22,4.14,2.23c1.35,1.17,0.96,2.44-0.71,3.15c-2.39,1.02-4.82,0.74-7.49,0.01c0.28,0.39,0.43,0.6,0.58,0.8
							c1.24,1.72,1.09,3.33-0.73,4.5c-1.49,0.96-3.14,1.72-4.82,2.31c-2.87,1-5.87,1.66-8.73,2.7c-4.85,1.77-8.94,4.63-11.81,9.01
							c-1.33-0.56-2.56-1.09-3.8-1.61c0.13-0.11,0.27-0.21,0.4-0.32c0.76,1.06,1.63,2.06,2.25,3.19c0.65,1.17,1.33,2.44,1.52,3.74
							c0.58,4.12,0.6,6.9-4.89,7.94c-0.71,0.14-1.43,0.26-2.14,0.41c-9.45,2.01-15.1,7.93-17.28,17.19c-0.96,4.09-1.67,8.26-2.13,12.43
							c-0.48,4.43,0.19,8.74,3.09,12.4c3.22,4.05,1.74,7.97-0.41,11.76c-0.92,1.62-2.24,3.04-3.49,4.45c-2.84,3.2-6.57,3.85-10.62,3.55
							c-3.38-0.25-6.77-0.51-10.16-0.7c-2.14-0.12-4.16,0.45-5.94,1.62c-0.91,0.59-1.4,0.29-1.9-0.44c-1.09-1.59-1.51-3.24-0.53-5.04
							c0.32-0.6,0.61-1.22,0.98-1.78c3.22-4.85,2.98-9.96,1.13-15.19c-0.32-0.9-0.72-1.78-1.22-2.98c0.28,4.02,0.6,7.69-0.31,11.34
							c-0.49,1.98-1.39,3.68-2.68,5.26c-0.74,0.92-1.52,2.01-1.73,3.13c-1.01,5.29-5.4,6.52-10.06,3.97c-3.23-1.77-5.94-4.19-8.45-6.86
							c-0.49-0.52-1.03-1-1.6-1.55c1.8,5.46,6.71,13.08,15.69,14.96c-0.54,1.84-2.01,2.92-3.29,4.09c-2.76,2.52-5.62,4.93-8.39,7.44
							c-0.93,0.84-1.73,1.84-2.55,2.81c-2.91,3.44-6.75,4.53-11.08,4.45c-4.5-0.09-8.68-1.39-12.71-3.27c-2.77-1.29-5.55-2.55-8.24-4
							c-1.3-0.7-2.48-1.72-3.55-2.76c-2.14-2.07-2.79-4.7-2.6-7.69c-0.42,0.94-0.87,1.87-1.24,2.83c-2.06,5.23-7.54,7.03-12.45,4.07
							c-2.08-1.25-3.44-2.95-4.08-5.39c-1.39-5.27-1.74-10.62-1.56-16.02c0.04-1.22,0.37-2.54,0.95-3.61c0.44-0.81,1.47-1.3,2.3-1.98
							c-1.18-2.4-0.86-5.21-0.34-7.97c1.07-5.73,2.96-11.23,6.57-15.83c1.98-2.52,4.61-4.59,7.16-6.59c2.44-1.91,5.09-3.57,7.75-5.16
							c2.51-1.49,4.91-1.09,7.06,0.88c0.5,0.46,0.98,0.95,1.45,1.44c3.33,3.42,3.33,3.42,8.36,3.3c-0.76,2.93-1.5,5.76-2.24,8.59
							c0.15,0.06,0.29,0.12,0.44,0.18c1.38-1.13,2.39-2.58,2.87-4.3c0.58-2.09,0.97-4.24,1.43-6.37c0.62-2.89,2.36-4.67,5.22-5.44
							c3.65-0.99,7.2-0.75,10.67,0.71c2.66,1.12,5.38,2.04,8.32,1.65c1.42-0.19,2.81-0.58,4.21-0.87c-0.01-0.12-0.02-0.24-0.03-0.36
							c-0.4,0-0.79-0.01-1.19,0c-3.67,0.07-7.2-0.31-10.35-2.55c-3.37-2.4-7.26-2.16-11.1-1.65c-1.43,0.19-2.83,0.64-4.22,1.04
							c-1.58,0.45-2.51,0.02-2.99-1.57c-0.76-2.52-0.11-4.93,0.84-7.22c2.94-7.11,8.73-10.3,16.01-11.34c0.75-0.11,1.5-0.21,2.29-0.65
							c-1.16-0.19-2.35-0.64-3.48-0.53c-3.36,0.33-5.39-3.18-3.54-6.25c1.16-1.92,2.85-3.26,4.86-4.01c3.18-1.18,6.51-1.86,9.94-1.41
							c3.55,0.47,5.5,2.74,5.15,6.3c-0.19,1.9-0.78,3.77-1.26,5.63c-0.29,1.12-0.79,2.19-1.06,3.31c-0.28,1.19,0,2.28,1.31,2.72
							c5.68,1.92,8.87,6.35,11.55,11.33c0.87,1.62,1.71,3.3,2.85,4.74c3.87,4.9,1.99,10.26-2.91,12.99c-1.06,0.59-2.19,1.05-3.21,1.7
							c-2.49,1.57-5.02,3.11-7.39,4.86c-3.42,2.51-7.25,3.88-11.38,4.45c-3.46,0.48-6.94,0.74-10.4,1.23
							c-2.41,0.34-4.35,1.62-5.79,3.58c-0.83,1.14-1.65,2.29-2.38,3.49c-3.57,5.88-10.33,6-15.25,2.8c-0.76-0.5-1.44-1.13-2.46-1.5
							c0.75,0.97,1.38,2.08,2.29,2.87c0.97,0.85,2.2,1.41,3.32,2.08c1.29,0.77,1.57,1.77,0.39,2.64c-1.41,1.03-3.03,1.99-4.7,2.4
							c-4.66,1.15-9.34,0.85-13.88-0.73c-1.21-0.42-2.31-1.18-3.46-1.79c1.09,2.21,2.96,3.61,5.27,4.33c2.26,0.71,4.58,1.22,6.89,1.73
							c2.95,0.65,5.21,2.22,6.9,4.72c2.36,3.48,4.83,6.92,9.08,8.27c1.97,0.63,4.04,1.06,6.09,1.28c1.95,0.21,3.94,0.05,5.84,0.05
							c-2.5-0.9-5.11-1.65-7.55-2.77c-2.14-0.98-4.26-2.16-6.08-3.63c-3.94-3.18-4.1-7.46-0.57-11.11c1.07-1.1,2.37-2.02,3.65-2.88
							c2.49-1.68,4.87-3.47,6.05-6.33c2.16-5.22,6.64-6.66,11.61-7.42c6.42-0.98,12.76-2.27,18.78-4.87c2.16-0.93,4.47-1.53,6.76-2.15
							c4.39-1.18,7.69,1.42,9.62,4.37c0.74,1.13,1.4,2.32,1.96,3.54c0.54,1.18,0.92,2.44,1.37,3.67c0.26-2.99-0.47-5.69-2.5-9.23
							c-0.75-1.3-1.52-2.6-2.24-3.92c-0.88-1.62-0.91-3.29-0.35-5.05c0.64-2.02,1.4-4.09,1.55-6.17c0.14-1.93-0.17-4.01-0.81-5.84
							c-1.2-3.44-0.59-4.93,2.93-7.02c3.19-1.9,6.69-3.3,10.03-4.94c3.46-1.71,6.77-3.64,9.06-6.89
							C227.55,171.93,227.79,171.41,228.07,170.92z M250.35,145.38c-2.88,0.19-5.31,1.36-7.22,3.52c-0.9,1.01-1.68,2.13-2.51,3.2
							c-1.62,2.09-4.49,2.37-6.13,0.32c-0.91-1.13-1.49-2.71-1.72-4.16c-0.41-2.57,0.92-4.74,2.21-6.85c-4.14,3.51-5.03,7.92-3.5,12.95
							c-1.83,0.25-3.57,0.39-5.25,0.75c-1.72,0.37-3.44,0.87-4.81,2.38c6.47-1.98,12.19-1.52,16.49,3.75
							C240.21,154.59,243.61,148.76,250.35,145.38z M125.98,220.07c5.23-5.23,11.36-8.73,19.12-9.86c-4.56-2.21-7.67-5.22-9.42-9.59
							c-0.43,2.98-0.77,5.91,1.64,8.45C132.43,211.78,128.01,214.73,125.98,220.07z"/>
						<path fill-rule="evenodd" clip-rule="evenodd" d="M344.75,298.79c3.44-1.01,6.83-2.08,8.09-6c0.09-0.29,0.33-0.66,0.59-0.75
							c2.46-0.88,4.91-1.79,7.42-2.54c2.12-0.63,3.66-0.08,4.73,1.73c0.33,0.55,0.23,1.54-0.01,2.21c-1.12,3.08-3.57,5.05-6.16,6.79
							c-3.73,2.5-7.97,3.41-12.4,3.62c-5.53,0.26-10.83-0.68-15.85-3c-4.46-2.06-5.64-6.66-3.05-10.91c1.05-1.72,1.79-3.64,2.53-5.51
							c0.29-0.73,0.22-1.61,0.34-2.62c6.26,2.66,12.31,2.08,18.08-1.11c3.48-1.92,5.99-4.86,7.62-8.52c-2.18,2.84-4.8,5.14-8.08,6.64
							c-3.85,1.77-7.9,2.54-12.04,1.58c-5.16-1.2-6.68-3.22-7.16-8c-0.15-1.48-0.22-3.02,0.05-4.46c0.15-0.8,0.92-1.67,1.65-2.14
							c1.54-0.99,3.28-1.69,4.87-2.61c0.73-0.42,1.3-1.11,1.88-1.79c-4.44,2.79-9.47,2.52-14.37,3.08c-6.13,0.7-11.69-1.09-17.25-3.17
							c-1.04-0.39-2.06-0.92-3.13-1.16c-3.54-0.8-3.73-2.82-3.42-5.68c0.43-4,2.21-7.35,4.92-10.31c2.62-2.86,4.3-6.32,5.85-9.84
							c0.59-1.33,1.2-2.67,2-3.87c0.92-1.38,2.18-1.46,3.27-0.2c1.52,1.75,2.77,3.76,4.37,5.43c3.91,4.07,8.56,6.63,14.44,6.35
							c2.05-0.1,2.52,0.5,2.13,2.54c-0.61,3.24-2.48,5.85-4.34,8.46c-0.3,0.42-0.62,0.83-1.15,1.52c3.26-2.63,5.61-5.53,7.02-9.12
							c1.13-2.87,3.34-4.71,5.82-6.26c2.27-1.42,3.89-0.57,4.28,2.13c0.67,4.63-0.4,9.09-1.64,13.46c-1.15,4.08-2.71,8.05-4,11.83
							c1.8-1.51,3.15-3.77,4.34-6.13c2.36-4.7,3.49-9.72,4.07-14.92c0.7-6.29-0.07-12.37-2.12-18.33c-0.06-0.18-0.16-0.34-0.3-0.62
							c-0.42,1.72-0.77,3.35-1.23,4.95c-2.68,9.36-13.46,11.54-20.16,6.9c-5.72-3.96-9.68-9.16-10.55-16.2
							c-0.34-2.8-0.09-5.74,0.28-8.56c0.76-5.75,1.93-11.45,2.65-17.2c0.36-2.83,0.07-5.73,0.1-8.6c0.03-3.02,1.92-4.95,4.91-4.9
							c1.3,0.02,2.61,0.22,3.88,0.51c3.53,0.8,7.05,1.66,10.57,2.54c4.57,1.14,8.09,3.96,11.12,7.37c2.29,2.57,4.3,5.38,6.45,8.08
							c0.62,0.78,1.09,1.69,0.36,2.49c-0.59,0.65-1.49,1.13-2.34,1.42c-0.65,0.23-1.45,0.12-2.17,0.04c-3.68-0.43-5.15,1.83-5.97,4.99
							c-0.31,1.17-0.53,2.37-0.96,3.5c-1.59,4.14-6.57,5.77-10.06,3.33c-2.82-1.97-2.71-6.47,0.2-8.29c0.16-0.1,0.33-0.22,0.51-0.29
							c4.79-1.81,5.42-5.9,3.88-10.51c-0.3-0.91-0.76-1.76-0.95-2.2c0.11,1.38,0.42,3.2,0.36,5c-0.11,3.56-2.49,6.16-5.96,6.91
							c-1.02,0.22-1.43,0.15-1.59-1.06c-0.52-3.92-2.56-6.71-5.68-7.9c2.31,1.5,3.23,3.67,3.56,5.98c0.48,3.35,0.64,6.75,0.94,10.13
							c0.4,4.55,3.64,7.5,8.12,7.44c1.83-0.03,3.34-0.85,4.47-2.15c2.39-2.75,4.62-5.62,6.91-8.46c3.38-4.18,9.7-3.9,12.72,0.55
							c4.92,7.25,2.1,16.35-4.07,20.93c-0.23,0.17-0.48,0.32-0.77,0.52c1,0.77,2.12,1.37,2.91,2.27c2.43,2.79,2.7,6.05,1.51,9.42
							c-0.75,2.13-1.78,4.17-2.71,6.29c3.73,3.4,3.5,9.16,1.25,13.88c2.98-3.19,3.6-7.18,3.64-11.56c4.46,1.37,7.79,3.77,9.48,8.06
							c0.92,2.34,1.1,4.8,0.72,7.31c-0.2,1.34-0.17,2.72-0.43,4.04c-0.34,1.71-1.8,2.16-2.99,0.94c-1.8-1.84-3.94-3.04-5.96-3.51
							c1.3,1.41,3.11,2.95,4.4,4.84c2.75,4.04,2.13,8.01-1.61,10.59c-2.41,1.66-5.15,2.14-8.05,1.21c-0.54-0.17-1.42-0.15-1.82,0.18
							c-4.15,3.42-8.69,3.96-13.62,2c-0.06,0.13-0.11,0.27-0.17,0.41c1.25,0.65,2.47,1.41,3.77,1.94c1.35,0.55,1.8,1.32,0.84,2.44
							c-1.19,1.38-2.66,2.52-4.01,3.76C345.12,298.52,344.93,298.65,344.75,298.79z"/>
						<path fill-rule="evenodd" clip-rule="evenodd" d="M162.76,158.95c0.62,1.61,1.49,3.19,1.8,4.87c0.6,3.31-1.49,5.36-3.8,7.33
							c-2.24,1.91-4.4,3.95-6.35,6.14c-1.92,2.16-4.21,3.13-7,3.35c-3.12,0.25-8.62,0.98-10.59,2.37c2.55-0.18,5.3-0.56,8.05-0.52
							c4.05,0.05,7.18,1.91,9.04,5.58c1.17,2.3,0.42,4.58-1.66,5.96c-1.23,0.82-2.35,0.76-3.48-0.09c-0.58-0.44-1.2-0.86-1.68-1.39
							c-2.75-3.09-6.13-3.13-9.76-2.14c-4.32,1.18-7.97,3.52-11.25,6.47c-1.21,1.09-2.37,2.27-3.37,3.55
							c-0.88,1.12-1.79,1.25-3.01,0.75c-1.25-0.51-2.32-1.19-2.27-2.68c0.04-1.04,0.09-2.22,0.58-3.09c3.31-5.83,7.16-11.24,12.8-15.08
							c1.37-0.93,3.03-1.49,4.63-1.99c1.05-0.33,1.79-0.58,2.28-1.77c1.14-2.78,3.55-4.42,6.14-5.69c2.21-1.08,4.52-1.94,6.76-2.88
							c-4.09-0.34-7.7,0.9-10.81,3.66c-1.45,1.29-2.88,2.62-4.4,3.82c-0.7,0.55-1.58,0.99-2.45,1.18c-0.56,0.12-1.42-0.16-1.8-0.57
							c-0.3-0.32-0.31-1.32-0.03-1.69c1.22-1.6,2.35-3.44,3.95-4.55c4.87-3.37,9.99-6.36,14.92-9.64c3.79-2.52,7.52-5.17,11.14-7.93
							c3.37-2.56,7.15-4.05,11.21-4.95c1.2-0.26,1.72,0.25,1.61,1.49c-0.03,0.33-0.11,0.68-0.27,0.96c-1.25,2.13-2.4,4.34-3.84,6.34
							c-1.2,1.67-3.06,2.47-5.16,2.62C163.92,158.78,163.16,158.9,162.76,158.95z"/>
						<path fill-rule="evenodd" clip-rule="evenodd" d="M258.02,331.87c1.62-0.08,3.09,0.03,4.47-0.26c2.02-0.42,3.24,0.39,4.54,1.83
							c2.83,3.13,6.54,4.57,10.7,4.28c2.89-0.2,4.29,0.48,5.57,3.45c1.72,3.97,4.72,7.39,7.13,11.07c0.97,1.49,1.88,3.04,2.72,4.61
							c0.51,0.96,0.25,1.89-0.55,2.63c-0.82,0.76-1.6,1.56-2.49,2.24c-2.18,1.66-4.28,1.75-6.34-0.09c-1.72-1.54-3.37-3.28-4.62-5.21
							c-3.79-5.83-8.7-10.68-13.4-15.72C263.15,337.9,260.72,334.96,258.02,331.87z"/>
						<path fill-rule="evenodd" clip-rule="evenodd" d="M255.53,291.36c2,0.52,4.06,0.9,6,1.59c4.61,1.64,8.89,1.19,13.09-1.34
							c1.48-0.89,3.28-1.42,5-1.68c0.88-0.13,1.98,0.58,2.84,1.13c1.5,0.97,2.95,2.03,4.29,3.21c0.79,0.69,1.8,1.69,1.8,2.54
							c0,0.85-0.97,1.97-1.81,2.51c-2.88,1.84-6.24,2.39-9.55,2.71c-3.27,0.31-6.58,0.19-9.86,0.37c-2.18,0.12-4.4,0.19-6.49,0.7
							c-1.7,0.42-3.05,0.16-4.34-0.81c-2.19-1.64-4.24-3.42-5.07-6.17c-0.83-2.72,0.36-4.38,3.17-4.48c0.29-0.01,0.58,0,0.88,0
							C255.48,291.55,255.51,291.45,255.53,291.36z"/>
						<path fill-rule="evenodd" clip-rule="evenodd" fill="#FFFFFF" d="M362.21,250.51c3.63-9.42,3.6-10.57-0.49-17.19
							c1.2-1.17,2.38-2.45,3.7-3.57c1.58-1.34,3.04-1.12,3.86,0.8c0.89,2.06,1.49,4.28,1.97,6.48c0.88,4.02,1.57,8.07,2.33,12.11
							c0.02,0.1,0.02,0.19,0.03,0.29c0.24,4.05-1.23,5-4.68,3.63c-1.13-0.45-2.24-0.93-3.37-1.36
							C364.49,251.29,363.4,250.92,362.21,250.51z"/>
						<path fill-rule="evenodd" clip-rule="evenodd" d="M335.77,316.36c-0.95,1.39-1.77,2.58-2.58,3.78c-1.72-1.14-3.27-2.3-4.94-3.24
							c-5.37-3.06-11.28-4.58-17.29-5.75c-5.73-1.12-11.52-1.67-17.36-1.5c-0.19,0.01-0.38-0.06-0.56-0.08
							c0.04-2.46,0.88-3.39,3.19-3.3c9.66,0.36,19.29,1.02,28.53,4.12c3.09,1.04,5.98,2.72,8.91,4.2
							C334.43,314.96,335,315.69,335.77,316.36z"/>
						<path fill-rule="evenodd" clip-rule="evenodd" d="M286.39,317.39c1.4-1.53,2.58-2.88,3.83-4.17c1.05-1.08,3.44-0.8,4.25,0.44
							c3.03,4.64,7.4,7.73,12.13,10.34c2.58,1.43,5.33,2.56,8,3.83c0.41,0.19,0.82,0.38,1.23,0.57c-0.03,0.17-0.07,0.34-0.1,0.51
							c-1.33-0.11-2.68-0.16-4-0.35c-6.93-1.03-13.17-3.86-19.12-7.4C290.56,319.95,288.55,318.7,286.39,317.39z"/>
						<path fill-rule="evenodd" clip-rule="evenodd" d="M325.55,326c-1.46,1.19-2.73,1.71-4.52,1.09c-6.68-2.29-13.11-5.05-18.74-9.41
							c-1.83-1.42-3.53-2.96-4.9-5.04c0.38-0.13,0.55-0.25,0.71-0.24c3.18,0.27,6.36,0.54,9.54,0.86c0.37,0.04,0.81,0.31,1.04,0.62
							c3.81,5.07,8.84,8.51,14.57,11.04C323.98,325.24,324.7,325.59,325.55,326z"/>
						<path fill-rule="evenodd" clip-rule="evenodd" fill="#FFFFFF" d="M142.04,264.58c-5.45,1.02-10.46,1.88-15.55,0.86
							c-3.11-0.62-4.81-3.1-6.64-5.37c-0.5-0.62-0.88-1.32-1.27-1.91c3.37,0,6.64,0.08,9.91-0.02c3.95-0.11,7.27,1.38,10.28,3.75
							C139.77,262.7,140.75,263.52,142.04,264.58z"/>
						<path fill-rule="evenodd" clip-rule="evenodd" d="M300.59,303.12c0.37-0.13,0.74-0.27,1.12-0.38c7-2,13.92-1.31,20.91,0.33
							c5.08,1.19,9.85,3.13,14.69,4.92c0.33,0.12,0.72,0.79,0.66,1.13c-0.21,1.33-0.58,2.63-0.95,4.17
							C326.02,305.48,313.29,304.59,300.59,303.12z"/>
						<path fill-rule="evenodd" clip-rule="evenodd" d="M311.09,331.42c-1.12,0.13-2.24,0.31-3.37,0.38c-2.28,0.15-4.56,0.17-6.83,0.36
							c-3.1,0.25-5.79-0.89-8.41-2.31c-4.15-2.26-7.51-5.44-10.66-8.88c1.69-1.87,1.9-1.89,3.93-0.6c6.62,4.19,13.52,7.79,21.19,9.68
							c1.38,0.34,2.78,0.61,4.17,0.91C311.11,331.11,311.1,331.27,311.09,331.42z"/>
						<path fill-rule="evenodd" clip-rule="evenodd" fill="#FFFFFF" d="M152.45,273.49c-4.39-0.29-8.48-1.46-12.5-2.94
							c-1.95-0.71-2.13-2.22-0.53-3.5c0.34-0.27,0.71-0.52,1.07-0.76c1.32-0.88,2.49-1.18,4.07-0.16c2.49,1.6,5.44,1.95,8.36,2.13
							c1.65,0.1,3.31,0,4.96,0c0.53,0,1.1-0.08,1.6,0.05c0.99,0.27,2.28,0.3,2.48,1.63c0.21,1.41-1.01,1.84-2.01,2.07
							C157.48,272.6,154.96,273.01,152.45,273.49z"/>
						<path fill-rule="evenodd" clip-rule="evenodd" fill="#FFFFFF" d="M110.96,233.94c-0.39-2.6-0.84-5.19-1.15-7.8
							c-0.92-7.82,1.27-15.07,4.28-22.14c0.2-0.47,0.87-1.09,1.24-1.04c0.6,0.07,1.46,0.54,1.62,1.04c0.3,0.92,0.42,2.04,0.18,2.97
							c-1.08,4.22-2.5,8.36-3.41,12.6c-0.9,4.19-1.33,8.49-1.97,12.74c-0.08,0.54-0.19,1.08-0.28,1.62
							C111.3,233.93,111.13,233.94,110.96,233.94z"/>
						<path fill-rule="evenodd" clip-rule="evenodd" d="M288.84,305.45c-0.72,1.4-1.3,2.89-2.18,4.17c-3.9,5.72-9.32,9.56-15.62,12.24
							c-0.35,0.15-0.72,0.32-1.1,0.36c-0.6,0.08-1.21,0.06-1.81,0.09c0.45-0.42,0.87-0.9,1.36-1.26c1.64-1.2,3.38-2.26,4.94-3.55
							c3.37-2.78,5.62-6.37,7.06-10.46c0.43-1.23,1.02-1.79,2.4-1.73c1.53,0.07,3.07-0.17,4.6-0.28
							C288.61,305.18,288.73,305.32,288.84,305.45z"/>
						<path fill-rule="evenodd" clip-rule="evenodd" d="M260.98,326.61c-6.21-2.26-12.24-4.76-15.71-11.43
							c2.36-0.72,4.46-1.38,6.58-1.95c0.24-0.06,0.72,0.33,0.92,0.62c2.57,3.69,5.11,7.4,7.66,11.11c0.3,0.44,0.58,0.9,0.87,1.35
							C261.19,326.41,261.09,326.51,260.98,326.61z"/>
						<path fill-rule="evenodd" clip-rule="evenodd" d="M260.8,319.25c5.45-1.39,8.5-5.59,11.09-10.06c1.62-2.79,3.73-3.63,7.05-3.13
							c-0.94,1.74-1.71,3.49-2.75,5.05c-3.14,4.7-7.61,7.67-12.88,9.5C261.58,321.21,261.39,321.08,260.8,319.25z"/>
						<path fill-rule="evenodd" clip-rule="evenodd" d="M330.54,322.42c-1.37,2.02-2.42,2.39-4.4,1.65c-4.35-1.63-8.33-3.89-11.83-6.93
							c-0.81-0.71-1.4-1.67-1.89-2.74C319.14,315.71,325.47,317.65,330.54,322.42z"/>
						<path fill-rule="evenodd" clip-rule="evenodd" d="M256.84,328.52c-7.13,0.92-17.97-5.28-19.19-10.99
							c1.31-0.42,2.62-0.91,3.97-1.25c0.34-0.09,1.02,0.17,1.16,0.46c2.72,5.56,7.55,8.58,12.95,10.95c0.31,0.14,0.61,0.3,0.9,0.47
							C256.69,328.2,256.72,328.31,256.84,328.52z"/>
						<path fill-rule="evenodd" clip-rule="evenodd" d="M266.64,327.26c2.45-0.75,4.8-1.46,7.3-2.22c1.64,3.6,4.16,6.59,7.73,8.87
							C275.44,335.47,268.16,332.19,266.64,327.26z"/>
						<path fill-rule="evenodd" clip-rule="evenodd" d="M269.78,306.97c-1.84,3.85-3.69,7.25-7.21,9.29c-0.85,0.49-2,0.86-2.92,0.73
							c-0.84-0.12-1.67-3.34-1.31-4.36c0.17-0.49,0.39-1.05,0.76-1.39C262.04,308.55,265.69,307.64,269.78,306.97z"/>
						<path fill-rule="evenodd" clip-rule="evenodd" d="M291.86,332.9c-1.35,1.12-2.73,0.96-3.87,0.64c-4.79-1.37-8.43-4.28-10.83-8.68
							c-0.3-0.55-0.67-1.19,0.22-1.56c0.77-0.32,1.49-1.29,2.43-0.23C283.19,326.94,287.12,330.16,291.86,332.9z"/>
						<path fill-rule="evenodd" clip-rule="evenodd" fill="#FFFFFF" d="M230.59,249.6c3.96,1.08,8.01,1.89,11.84,3.31
							c4.54,1.69,8.87,1.8,13.46,0.32c4.19-1.35,8.6-1.31,12.97-1.17c2.08,0.06,4.17,0.21,6.6,0.34c-7.27,0.9-14.19,1.75-20.76,4.22
							c-1.12,0.42-2.23,0.98-3.22,1.66c-2.54,1.75-2.59,4.25,0.08,5.8c2.36,1.38,5,2.28,7.5,3.42c2.28,1.03,4.61,1.97,6.79,3.19
							c0.86,0.48,1.37,1.59,2.02,2.4c-2.63-1.09-5.22-2.34-7.93-3.21c-1.75-0.57-3.68-0.8-5.53-0.79c-1.76,0.01-2.9,1.22-3.33,2.96
							c-0.75,3.08-1.49,6.16-2.25,9.28c0-3.1-0.08-6.18,0.02-9.25c0.15-4.5-0.77-8.42-3.78-12.1c-3.95-4.82-9.08-7.57-14.55-10.01
							C230.54,249.85,230.56,249.72,230.59,249.6z"/>
						<path fill-rule="evenodd" clip-rule="evenodd" fill="#FFFFFF" d="M211.25,307.28c-2.16-0.19-4.33-0.33-6.48-0.6
							c-2.34-0.29-3.93,0.37-5.17,2.39c-0.78,1.26-1.52,2.54-2.47,3.76c1.99-4.6,0.28-8.57-1.81-12.52c-1.65-3.13-3.26-6.28-4.8-9.46
							c-0.45-0.94-0.66-2.02-0.84-3.05c-0.6-3.38-3.02-5.2-5.88-6.24c-1.97-0.71-4.23-0.6-5.84-0.79c2.37-1.05,5.42-1.53,8.53-0.41
							c4,1.44,4.15,0.06,4.98-3.07c0.66-2.48,1.23-4.97,1.9-7.45c0.52-1.93,1.72-3.32,3.48-4.28c2.71-1.49,5.17-3.3,6.84-5.97
							c0.58-0.93,1.01-1.97,1.51-2.98c0.48,2.32-0.59,4.14-2.03,5.77c-1.22,1.38-2.53,2.7-3.9,3.93c-2.74,2.45-4.17,5.48-4.55,9.12
							c-0.37,3.51-1.28,6.99-1.39,10.49c-0.24,8.05,2.31,14.9,9.96,18.74c2.45,1.23,5.29,1.66,7.96,2.45
							C211.24,307.17,211.25,307.22,211.25,307.28z"/>
						<path fill-rule="evenodd" clip-rule="evenodd" fill="#FFFFFF" d="M270.45,168.05c2.08-0.05,4.33,0.63,6.31,2.06
							c1.96,1.42,3.96,1.77,6.29,0.95c3.09-1.09,6.26-1.41,9.59-1.11c2.46,0.22,4.98-0.31,7.52-0.51c-1.79,1.16-3.84,1.62-5.91,1.87
							c-1.82,0.22-3.67,0.3-5.51,0.3c-2.79,0-4.96,1.09-6.56,3.37c-1.36,1.95-2.65,3.96-4.14,5.81c-1.76,2.18-3.53,4.41-5.62,6.25
							c-3.58,3.15-7.16,11.2-4.59,16.67c0.09,0.2,0.15,0.42,0.24,0.7c-1.81-0.56-2.93-2.5-3.01-5.01c-0.08-2.18-0.15-4.35-0.3-6.53
							c-0.08-1.27-0.92-1.88-2.09-2.3c-4.66-1.65-8.97-0.27-13.26,1.39c-1.25,0.48-2.46,1.06-4.06,1.76c5.55-5.13,11.57-7.39,18.7-5.6
							c2.45,0.62,4.49,0.09,6.33-1.46c3.39-2.87,5.64-6.48,6.94-10.72c0.71-2.33-0.21-4.06-2-5.29
							C273.72,169.57,271.89,168.81,270.45,168.05z"/>
						<path fill-rule="evenodd" clip-rule="evenodd" fill="#FFFFFF" d="M308.48,276.98c-1.18,0.26-2.38,0.45-3.52,0.81
							c-2.99,0.94-3.46,2.98-1.24,5.18c0.33,0.33,0.7,0.63,0.97,1.08c-0.63-0.31-1.3-0.56-1.89-0.93c-2.45-1.55-5.03-2.08-7.91-1.43
							c-3.51,0.79-6.68-0.25-9.61-2.26c0.44,0.14,0.87,0.3,1.31,0.42c0.46,0.13,0.94,0.23,1.41,0.33c2.62,0.52,5.07-0.14,7.53-0.97
							c2.83-0.95,5.67-1.9,8.57-2.58c1.39-0.33,2.93-0.06,4.4-0.06C308.5,276.71,308.49,276.84,308.48,276.98z"/>
						<path fill-rule="evenodd" clip-rule="evenodd" fill="#FFFFFF" d="M250.35,145.38c-6.74,3.38-10.14,9.21-12.45,15.87
							c-4.3-5.27-10.02-5.73-16.49-3.75c1.38-1.52,3.09-2.01,4.81-2.38c1.69-0.36,3.43-0.5,5.25-0.75c-1.53-5.03-0.63-9.44,3.5-12.95
							c-1.29,2.11-2.62,4.28-2.21,6.85c0.23,1.45,0.81,3.03,1.72,4.16c1.64,2.05,4.51,1.77,6.13-0.32c0.83-1.07,1.61-2.19,2.51-3.2
							C245.04,146.74,247.47,145.57,250.35,145.38z"/>
						<path fill-rule="evenodd" clip-rule="evenodd" fill="#FFFFFF" d="M125.98,220.07c2.03-5.35,6.45-8.29,11.35-11.01
							c-2.42-2.53-2.07-5.46-1.64-8.45c1.74,4.37,4.86,7.38,9.42,9.59C137.34,211.34,131.21,214.84,125.98,220.07z"/>
					</g>
				</g>
			</g>
</svg>
