<?xml version="1.0" encoding="utf-8"?>
<!-- Generator: Adobe Illustrator 16.0.0, SVG Export Plug-In . SVG Version: 6.00 Build 0)  -->
<!DOCTYPE svg PUBLIC "-//W3C//DTD SVG 1.1//EN" "http://www.w3.org/Graphics/SVG/1.1/DTD/svg11.dtd">
<svg version="1.1" xmlns="http://www.w3.org/2000/svg" xmlns:xlink="http://www.w3.org/1999/xlink" x="0px" y="0px" width="500px"
	 height="500px" viewBox="0 0 500 500" enable-background="new 0 0 500 500" xml:space="preserve">
<g id="circle">
	<circle cx="250" cy="250" r="172.52"/>
</g>
<g id="lion_1_">
	<g id="lion">
		<path fill-rule="evenodd" clip-rule="evenodd" fill="#FFFFFF" d="M256.06,296.71c0.74-1.36,1.5-2.74,2.69-4.94
			c1.64,3.69,3.69,4.31,6.62,3.13c1.1-0.44,2.65,0.37,4.01,0.46c2.77,0.18,5.55,0.26,8.27,0.38c-2.91,3.48-6.57,0.42-9.88,0.86
			C264.13,297.09,260.38,296.71,256.06,296.71z"/>
		<path fill-rule="evenodd" clip-rule="evenodd" fill="#FFFFFF" d="M275.28,290.17c-2.78,0-5.57,0.1-8.35-0.07
			c-0.69-0.04-1.33-0.93-1.99-1.42c0.65-0.33,1.37-1.02,1.95-0.91c2.89,0.52,5.74,1.25,8.6,1.9
			C275.42,289.84,275.35,290.01,275.28,290.17z"/>
		<path fill-rule="evenodd" clip-rule="evenodd" fill="#FFFFFF" d="M237.67,289.24c-2.84,2.41-5.4,2.43-7.78-0.6
			c2.88-0.13,5.28-0.23,7.68-0.34C237.61,288.61,237.64,288.92,237.67,289.24z"/>
		<g>
			<path fill-rule="evenodd" clip-rule="evenodd" fill="#FFFFFF" d="M137.26,225.38c0.16-6.79,4.58-10.65,9.68-13.99
				c5.65-3.7,11.84-5.52,19.27-5.18c-0.84,0.57-1.21,0.82-1.57,1.07c0.18,1.65,10.66-1.07,15.36-4.36
				c-2.41,0.49-3.93,0.84-5.46,1.09c-3.74,0.6-7.51,1.7-11.24,1.6c-7.46-0.2-13.94,1.94-19.88,6.31c-1.41,1.03-3.26,1.46-5.18,1.67
				c2.92-6.12,8.7-8.84,13.88-12.22c-0.16-0.31-0.31-0.63-0.47-0.94c-3,1.17-6.01,2.33-9.01,3.5c-0.14-0.25-0.27-0.5-0.41-0.75
				c1.64-2.26,3.29-4.51,5.25-7.2c-2.69,0.33-4.94,0.6-7.49,0.91c-0.84-1.53-0.28-2.77,1.32-4.08c2.84-2.33,5.5-4.89,8.63-7.7
				c-2.95,0.18-5.45,0.34-7.96,0.5c-0.13-0.24-0.26-0.48-0.39-0.72c3.87-2.44,7.74-4.88,11.6-7.32c-0.06-0.18-0.13-0.36-0.19-0.54
				c-3.1,1.23-6.2,2.45-9.67,3.82c1.33-1.12,2.36-2.19,3.57-2.97c1.42-0.91,3.06-1.47,4.48-2.39c1.12-0.73,2.05-1.77,3.67-3.22
				c-4.24-0.72-7.35,3.31-10.27-0.04c2.3-1.44,4.58-2.87,6.86-4.3c-0.08-0.2-0.17-0.41-0.25-0.61c-0.73-0.04-1.46-0.08-3.17-0.18
				c2.11-1.61,3.55-2.71,4.99-3.8c-1.44-2.44-1.09-3.1,1.6-3.69c3.22-0.71,6.61-1.16,9.56-2.51c3.13-1.42,5.84-3.77,8.62-6.35
				c-2.9,0.43-5.81,0.87-8.71,1.3c-0.09-0.23-0.19-0.47-0.28-0.7c3.21-1.16,6.41-2.32,10.17-3.68c-3.37,0-6.17,0-9.56,0
				c2.65-3.34,6.22-2.6,9.11-3.5c-0.05-0.32-0.01-0.59-0.12-0.7c-0.94-0.91-1.9-1.8-2.86-2.69c1.3-0.33,2.61-1.02,3.88-0.93
				c3.65,0.24,7.27,0.78,10.68,1.18c-0.79-1.1-1.9-2.65-3.01-4.2c0.19-0.29,0.38-0.57,0.57-0.85c4.09,0.68,8.22-0.78,12.36,1.92
				c3.44,2.24,7.68,3.26,11.57,4.83c0.17-0.38,0.33-0.76,0.5-1.14c-3.56-1.72-7.13-3.44-10.69-5.16c0.06-0.18,0.13-0.37,0.19-0.55
				c1.74,0.57,3.48,1.15,5.25,1.73c0.24-0.41,0.61-1.51,0.93-1.49c2.58,0.14,5.19,0.29,7.71,0.82c1.95,0.42,3.48,0.7,5.71,0.2
				c2.61-0.59,6.21,1.07,8.75,2.72c3.49,2.25,6.39,5.41,9.53,8.18c0.01-0.17,0.06-0.73,0.11-1.28c0.88,3.15,1.76,6.29,2.62,9.36
				c1.85-4.28-0.39-11.51-4.29-14.33c0.52,1.51,1.13,3.29,1.74,5.07c-2.37-3.08-4.74-6.17-7.18-9.36c1.68-2.83,4.65-1.96,9.45,3.38
				c0.14-1.1,0.24-1.9,0.35-2.7c0.27-0.16,0.55-0.31,0.83-0.47c2,3.87,4.01,7.74,6.01,11.61c0.35-0.02,0.71-0.03,1.06-0.05
				c0.25-2.98,0.5-5.97,0.73-8.73c1.4,2.34,2.99,5.01,4.8,8.04c0.93-1.35,1.52-2.21,2.11-3.08c0.24,0.13,0.48,0.27,0.71,0.4
				c0.32,2.03,0.64,4.06,0.96,6.1c0.14,0.04,0.27,0.07,0.41,0.11c0.98-3.49,1.95-6.98,3.11-11.12c3.37,3.21,0.22,7.39,2.97,10
				c1.65-3.89,3.29-7.75,4.93-11.6c0.37,0.03,0.75,0.06,1.12,0.09c0.27,1.14,0.53,2.28,0.94,4.02c0.98-1.39,1.79-2.54,2.89-4.11
				c0.12,1.4,0.2,2.29,0.29,3.41c1.65-0.91,3.11-1.7,4.56-2.5c0.18,0.26,0.37,0.53,0.55,0.79c-0.6,1.25-1.2,2.5-1.95,4.06
				c3.27-1.95,7.62-1.93,7.52-7.37c0.36,0.3,0.71,0.59,1.07,0.89c-0.47,1.85-0.95,3.71-1.65,6.44c1.3-1.59,2.13-2.61,2.96-3.62
				c0.16,0.08,0.33,0.16,0.49,0.24c-1.13,2.11-2.26,4.22-3.34,6.21c4.93-2.27,6.43-7.88,9.37-12.19c0.51,0.31,1.02,0.63,1.53,0.94
				c-1.17,2.86-2.35,5.73-3.59,8.74c2.38-1.35,3.63-3.7,4.67-6.26c0.46-1.12,1.03-3.09,1.59-3.11c1.32-0.04,2.68,0.86,4.27,1.48
				c2.94-2.55,3.5-2.55,4.58,0.41c1.41-0.73,2.81-1.45,4.81-2.49c-0.21,1.41-0.3,2.05-0.51,3.43c5.69-4.89,10.49-0.75,15.59,0.84
				c-5.29,0.39-10.7,0.4-14.58,5c4.94-2.65,10.02-4.67,15.83-3.88c-0.4,0.34-0.76,0.65-1.49,1.29c5.72,2.47,10.82,5.95,17.44,4.68
				c-5.37,4.03-12.57,0.44-18.47,5.18c5.24,0,9.74,0,14.85,0c-0.73,1.27-0.98,1.71-1.29,2.24c1.77,0.13,3.34,0.25,5.23,0.4
				c-0.75,0.51-1.21,0.81-2.2,1.49c5.4,1.72,10.22,3.2,15.85,1.29c-1.31,1.42-2.62,2.84-4.27,4.64c2.2,0.44,4.07,0.8,5.93,1.17
				c0.01,0.21,0.03,0.42,0.04,0.63c-1.69,0.22-3.37,0.44-5.06,0.66c-0.07,0.23-0.15,0.46-0.22,0.69c1.44,0.43,2.88,0.87,3.72,1.12
				c0.58,1.38,1,2.39,1.5,3.59c-1.11,0-2.21,0-3.95,0c0.99,1.41,1.66,2.36,2.33,3.32c-2.02,3.27-4.71-0.16-6.94,0.75
				c-0.78,3.87,0.06,5,3.9,5.56c1.74,0.25,3.42,0.88,5.15,1.14c1.7,0.26,3.44,0.26,5.16,0.43c0.62,0.06,1.23,0.28,1.85,0.43
				c0.06,0.34,0.11,0.67,0.17,1.01c-3.15,1.22-6.31,2.44-9.19,3.55c0.76,1.86,1.6,3.9,2.55,6.22c-2.29,0-4.11,0-5.93,0
				c-0.16,0.32-0.32,0.65-0.48,0.97c4.43,2.86,8.86,5.72,13.53,8.73c-0.6,0.5-1.68,1.39-2.32,1.92c0,1.39,0,2.43,0,3.75
				c2.8,1.69,3.2,3.28,1.05,6.12c0.44,0.95,0.89,1.96,1.44,3.14c-5.18-0.49-8.8-5.25-14.31-4.28c2.97,2.77,5.82,5.42,9.26,8.63
				c-1.7,0.21-2.44,0.29-4.14,0.5c2.94,3.27,5.53,6.15,8,8.89c-2.04-0.32-4.39-0.68-7.04-1.1c2.53,2.83,8.57,2.49,6.15,8.57
				c-1.37-0.34-2.95-0.74-4.53-1.13c-0.16,0.16-0.31,0.31-0.47,0.47c1,1.2,2,2.4,3.12,3.75c-0.61,0.22-1.13,0.41-1.16,0.42
				c1.19,3.59,2.36,7.14,3.54,10.69c-0.11,0.07-0.22,0.15-0.33,0.22c-2.1-2.82-4.21-5.64-6.31-8.45c-0.31,0.21-0.62,0.41-0.93,0.61
				c1.48,2.39,2.96,4.78,4.66,7.53c-1.05-0.3-1.77-0.5-3.59-1.02c1.51,2.87,2.62,4.97,3.73,7.08c-0.09,0.28-0.18,0.56-0.27,0.85
				c-1.69-0.62-3.38-1.23-5.07-1.83c-0.59-0.71-1.16-1.44-1.75-2.15c-2.82-3.41-5.24-7.26-9.26-8.91c2.7,3.54,5.57,7.25,8.38,10.99
				c0.95,1.27,1.78,1.34,2.66-0.02c0.96,2.16,1.92,4.31,2.9,6.52c-5.74,1.45-7.09-5.17-11.58-6.79c1.44,3.42,2.92,6.67,4.18,10.01
				c1.15,3.04,5.45,4.31,5.15,8.94c0.96,0.29,2.54,0.77,4.13,1.24c-1.14,4.33-1.53,5.2-11.05-0.06c1.18,1.49,2.37,2.98,3.55,4.46
				c-0.23,0-0.47,0-0.7,0c0.21,2.09,0.42,4.19,0.65,6.39c-2.23-2.35-4.47-4.71-6.72-7.08c0.33,6.04,0.29,12.1,5.81,16.1
				c-5.5,3.97-5.83-3.28-9.17-4.07c0.67,4.85,5.37,7.7,14.6,8.49c-1.9,0.94-3.01,1.49-4.42,2.19c0.53,1.16,1.43,2.34,1.52,3.58
				c0.08,1.2-0.67,2.45-1.06,3.68c-0.29-0.04-0.59-0.07-0.88-0.1c-0.09-0.97-0.14-1.95-0.3-2.92c-0.14-0.87-0.39-1.71-0.8-3.43
				c-0.81,2.48-1.32,4.06-1.84,5.64c-0.41,0.25-0.81,0.5-1.22,0.74c-1.16-1.95-2.32-3.91-3.48-5.86c-0.46,0.34-0.92,0.68-1.38,1.01
				c0.13,1.36,0.27,2.72,0.48,4.86c-0.9-1.43-1.38-2.2-2.46-3.92c-0.52,1.68-0.91,2.54-1.04,3.45c-0.36,2.48-0.99,5.01-0.83,7.47
				c0.25,3.94-1.98,6.84-3.32,10.16c-0.52,1.28-0.27,2.87-0.39,4.66c-0.8-0.73-1.44-1.33-2.5-2.3c-0.14,2.92-0.26,5.5-0.43,8.97
				c0.57-1.24,0.75-1.63,0.98-2.13c0,1.3,0,2.49,0,3.81c-2.21-1.45-2.92-2.99-2.66-7.89c0.15-2.83,1.12-5.61,1.23-8.69
				c-1.46,2.53-2.92,5.06-4.39,7.58c-0.37-0.09-0.74-0.19-1.1-0.28c0.23-3.18,0.47-6.35,0.66-8.97c-1.94,1.41-4.5,2.73-6.28,4.73
				c-1.61,1.81-2.38,4.36-3.51,6.59c-1.12,2.22-0.16,5.55-3.6,6.64c-0.39,0.12-0.4,1.73-0.43,2.66c-0.07,1.67-0.02,3.35-0.02,5.03
				c-0.43,0.04-0.87,0.09-1.3,0.13c-0.32-0.88-0.63-1.77-0.95-2.65c-0.18-0.03-0.36-0.06-0.53-0.09c-0.27,2.86-1.01,5.79-0.6,8.55
				c0.21,1.41,2.5,2.51,4.59,4.42c-2.43-0.38-4.19-0.65-5.91-0.92c-1.12-1.27,0.18-5.29-3.86-2.97c-0.2-1.38-0.37-2.58-0.67-4.66
				c-1.62,3.27-2.87,5.77-4.39,8.84c-0.22-1.48-0.35-2.36-0.48-3.27c-0.15,0.08-0.38,0.13-0.42,0.25
				c-1.37,3.58-3.19,6.96-0.51,10.97c0.73,1.09-0.72,3.63-1.12,5.31c-2.33,0.98-3.82-4.49-6.43,0.8c-0.16-2.77-0.25-4.4-0.36-6.4
				c0.79,0.36,1.26,0.57,2,0.91c-2.01-5.48-0.54-10.26,2.43-14.91c-2.87,1.06-6.82,4.42-8.01,8.07c-1.15,3.51-1.23,7.37-1.81,11.28
				c-0.73-1.23-1.48-2.48-2.23-3.74c-0.35,0.04-0.71,0.07-1.06,0.1c0,1.97,0.28,3.99-0.09,5.89c-0.29,1.5-1.39,2.84-2.41,4.8
				c-0.74-1.23-1.49-2.37-2.11-3.58c-0.9-1.76-1.72-2.84-3.82-1.13c-1,0.81-2.65,0.81-4.15,1.22c-0.36-1.4-0.63-2.48-0.9-3.56
				c-1.14,5.04,2.45,8.48,4.36,13.41c-1.91-1.31-3.24-2.22-4.74-3.26c0,0.59,0,1.18,0,2.46c-1.88-1.4-3.38-2.52-4.49-3.34
				c-1.52,2.32-2.91,4.45-4.3,6.57c-0.34,0.01-0.69,0.03-1.03,0.04c-0.86-3.23-1.73-6.47-2.59-9.71c-0.26-0.01-0.53-0.03-0.79-0.04
				c0,2.5,0.09,5.01-0.04,7.51c-0.07,1.34,1.34,4.41-2.47,2.41c-0.63-0.33-2.33,1.37-3.87,2.36c-0.18-2.23-0.35-4.35-0.58-7.07
				c-2.42,1.81-4.44,3.33-6.8,5.1c-0.72-4.98-1.35-9.42-2.15-14.97c-1.87,1.87-3.11,3.1-4.46,4.45c-0.23-0.74-0.48-1.54-0.83-2.67
				c-2.67,9.11-6.44,12.02-9.97,11.89c1.04-1.78,2.39-3.75,3.4-5.88c1.12-2.37,1.19-4.84-0.5-7.49c-0.97,1.33-1.74,2.39-2.6,3.57
				c-1.33-3.37-2.59-6.57-4.02-10.21c-1.08,1.17-1.68,1.83-2.86,3.11c1.29-7.48-3-11.67-6.99-16.03c-3.22-3.51-6.38-7.08-9.56-10.62
				c-0.43,0.36-0.86,0.72-1.28,1.08c1.83,2.68,3.64,5.38,5.49,8.04c2.87,4.13,5.43,8.37,4.4,13.74c-0.19,0.98-0.5,1.93-0.98,3.69
				c-1.93-2.07-3.23-3.67-4.75-5.04c-1.17-1.06-2.69-1.72-3.87-2.77c-0.62-0.55-1-1.51-1.21-2.35c-0.66-2.69-1.19-5.41-1.78-8.12
				c-0.27,0.04-0.54,0.07-0.81,0.11c-0.15,2.88-0.29,5.76-0.44,8.63c-0.28,0-0.56,0-0.84,0c-1.65-5.33-3.3-10.66-4.95-15.99
				c-0.25,0.06-0.49,0.12-0.74,0.18c-0.74,3.81-1.49,7.62-2.43,12.43c-4.34-5.41-8.49-9.74-10.02-15.85
				c-1.41-5.64-2.88-11.27-4.31-16.9c-0.44-1.72-0.86-3.45-1.97-5.13c0.24,2.42,0.49,4.83,0.73,7.25c0.19,1.98,0.92,4.1,0.45,5.91
				c-1.23,4.79,0.26,8.98,2.02,13.2c0.6,1.44,1.23,2.87,2.2,5.1c-6.96-3.41-8.53-10.57-13.44-14.8c0.27-0.85,0.57-1.82,0.94-2.97
				c-0.96-0.25-1.74-0.45-2.26-0.58c0.74-2.11,1.48-4.21,2.22-6.31c-0.3-0.14-0.6-0.29-0.9-0.44c-0.61,0.96-1.22,1.91-1.91,2.99
				c-1.09-3.59-1.35-7.52-5.82-8.78c0.17-1.04,0.06-2.11,0.5-2.85c2.34-3.98,1.73-6.85-1.42-10.62c-2.23-2.67-3.31-7.33-0.86-12.23
				c-2.03,1.61-3.36,2.66-4.68,3.71c-0.23-0.17-0.47-0.35-0.7-0.53c1.6-2.21,3.21-4.41,4.81-6.62c-0.28-0.23-0.56-0.45-0.84-0.68
				c-1.47,1.86-3.13,3.61-4.37,5.61c-1.31,2.13-2.23,4.5-3.32,6.77c-0.3-0.01-0.6-0.02-0.9-0.03c-0.06-3.41-0.12-6.83-0.18-10.25
				c0.3,1.09,0.6,2.18,0.85,3.06c2.1-5.38,4.24-10.85,6.56-16.79c-4.62,3.91-6.04,8.87-7.46,13.83c-0.04-5.37,2.28-9.88,5.03-14.33
				c-1.11,1.06-2.22,2.11-3.33,3.17c-0.31-0.12-0.62-0.25-0.93-0.38c0.58-1.46,1.03-4.11,1.76-4.19c4.16-0.46,2.55-4.48,4.32-6.35
				c2.11-2.21,3.4-5.38,5.79-7.1c3.3-2.36,3.6-1.94,4.7-4.79c0.91-0.87,1.96-1.63,2.7-2.62c3.71-5,7.51-9.95,10.94-15.14
				c1.84-2.79,2.99-6.02,4.82-9.8c-6.45,2.62-10.4,6.39-12.67,12.73c1.87-0.77,3.15-1.3,4.43-1.83c0.24,0.22,0.49,0.45,0.73,0.67
				c-6.81,3.38-7.79,10.37-10.87,16.07c-0.42,0-0.84,0-1.53,0c0.37-1.36,0.72-2.67,1.12-4.17c-3.29,3.28-6.17,6.58-9.5,9.35
				c-3.26,2.71-6.96,4.88-10.47,7.29c-0.26-0.15-0.51-0.31-0.77-0.46c0.76-1.33,1.52-2.66,2.29-4.01c-1.62-0.24-3.39-0.5-5.55-0.82
				c1.76-1.51,3.08-2.64,4.4-3.77c-0.15-0.27-0.29-0.54-0.44-0.82c3.14-0.22,6.3-0.28,9.4-0.74c0.93-0.14,1.88-1.25,2.51-2.14
				c0.78-1.1,1.25-2.43,1.77-3.49c-2.2,1.5-4.48,3.06-6.76,4.62c-0.14-0.2-0.29-0.41-0.43-0.61c1.79-1.68,3.58-3.36,5.37-5.03
				c-0.18-0.24-0.36-0.49-0.54-0.73c-0.84,0.33-1.66,0.91-2.51,0.94c-1.15,0.04-2.31-0.32-3.46-0.54c-2-0.37-3.99-0.75-6.04-1.14
				c0.27-0.45,0.52-0.86,0.78-1.28c-1.5-0.31-2.96-0.62-4.42-0.92c-0.03-0.3-0.05-0.59-0.08-0.89c2.71-1.35,4.8-4.19,8.73-2.65
				c0.68,0.27,2.26-0.94,3.01-1.82c1.34-1.57,2.37-3.4,3.53-5.12c-0.27-0.22-0.54-0.43-0.82-0.65c-1.71,0.78-3.42,1.56-5.14,2.34
				c-0.19-0.27-0.38-0.54-0.57-0.81c7.29-2.6,10.33-9.52,15.39-14.51c-5.89,2.21-9.55,8.51-16.73,9.03
				c0.96-1.89,1.81-3.57,2.92-5.75c-2.98,0.97-5.75,1.86-8.95,2.9c0.3-2.6,0.55-4.71,0.79-6.83c1.15-0.17,2.52,0.03,3.4-0.54
				c2.72-1.78,5.16-4,7.89-5.77c3.07-1.99,6.32-3.72,9.53-5.49c0.87-0.48,1.88-0.71,2.82-1.05c-8.3-0.41-14.39,3.45-19.23,10.34
				c0.18-1.56,0.29-2.55,0.42-3.69C138.08,219.66,138.74,223.31,137.26,225.38z M187.31,295.24c-0.07,1.42-0.13,2.83-0.2,4.25
				c0.27,0.13,0.53,0.25,0.8,0.38c0.77-1.01,1.54-2.01,2.31-3.02c-1.17-0.18-1-2.99-3-1.54c0.16-1.25,0.51-2.51,0.45-3.75
				c-0.14-3.25,0.18-6.09,4.59-6.74c-1.8,0.43-3.46,1.15-3.13-1.62c-4.79,3.64-4.2,8.46-3.74,13.89c0.41-1.38,0.65-2.17,0.92-3.07
				C186.78,294.59,187.05,294.91,187.31,295.24z M317.39,213.39c2.66,1.1,5.33,2.21,7.99,3.31c0.15-0.48,0.29-0.96,0.44-1.43
				c-2.84-0.61-5.68-1.22-8.52-1.83c-2.08-2.47-4.72-3.54-8.23-3.8c4.12,8.23,6.55,7.28,13.07,8.54c-1.75-1.18-3.27-2.14-4.67-3.24
				C317.2,214.73,317.39,213.93,317.39,213.39z M308.36,159.92c0.19,0.1,0.38,0.29,0.56,0.28c6.1-0.36,12.13-0.13,17.64,2.87
				c1.37,0.75,2.33,2.24,3.58,3.49c-0.25,0.2-0.8,0.65-1.43,1.16c2.15,0.98,2.99,2.21,1.5,3.33c0.35,0.67,1.13,1.49,0.99,2.08
				c-0.24,1-1.07,1.86-1.65,2.78c1.08,0.22,2.2,0.45,3.32,0.68c-0.02,0.17-0.04,0.35-0.07,0.52c-0.73,0.22-1.46,0.45-2.54,0.78
				c1.06,0.79,1.77,1.32,2.31,1.72c-1.7,6.53-3.55,12.89-7.12,18.62c3.93-4.15,7.39-8.45,8.82-14.08c1.15-4.52,2.96-8.89,1.45-13.71
				c-0.41-1.32,0.23-3.36-0.54-4.11c-2.14-2.08-1.73-3.51,0.47-4.83c-1.56-0.24-3.04-0.26-4.36-0.73c-1.66-0.58-3.11-1.98-4.78-2.23
				c-3.31-0.5-6.72-0.78-10.05-0.54c-2.71,0.2-5.36,1.29-8.06,1.97c-3.85-0.74-6.12,2.05-8.99,3.48c0.12,0.26,0.24,0.52,0.36,0.78
				C302.64,162.78,305.5,161.35,308.36,159.92z M267.06,282.17c-3.01,1.79-7.09,1.89-8.86,5.66c-0.21,0.44-0.7,0.85-1.16,1.03
				c-4.16,1.68-3.61,5.73-4.46,9.01c-0.15,0.59,0.71,1.79,1.4,2.18c4.97,2.78,10.12,5.25,15.97,5.09c1.58-0.04,3.14-1.2,4.69-1.9
				c2.1-0.94,4.16-1.96,6.27-2.88c2.3-1,3.15-3,4.48-4.96c1.91-2.8,3.24-4.91,1.37-8.06c-0.22-0.37-0.23-1.02-0.06-1.42
				c1.64-3.85,1.15-4.92-2.96-5.68c-1.33-0.24-2.74-0.04-4.12-0.04c0.02-0.35,0.04-0.71,0.05-1.06c1.88,0.18,3.76,0.49,5.64,0.49
				c1.25,0,3.58-0.52,3.57-0.72c-0.13-2.62,1.77-3.83,3.23-5.45c3.07-3.41,0.7-7.03,0.46-11.03c-0.97,1.35-1.61,2.25-2.14,2.99
				c-1.6-0.62-2.96-1.15-4.31-1.68c-0.06,0.16-0.13,0.32-0.19,0.48c1.07,1.26,2.15,2.53,3.22,3.79c-0.14,0.15-0.28,0.31-0.41,0.46
				c-1.57-0.71-3.13-1.42-4.92-2.23c-0.58,4.35-3.42,2.71-5.88,2.86c0.31-0.98,0.54-1.73,0.78-2.51c-0.88-0.41-1.59-0.77-2.32-1.08
				c-0.62-0.26-1.33-0.78-1.88-0.66c-3.6,0.79-4.35,0.38-5.6-3.49c0.87-0.21,1.76-0.44,2.37-0.59c-2.86-2.43-5.63-4.78-8.93-7.58
				c-0.88,2.52-2.38,4.79-2.25,6.97c0.12,2.19,1.87,4.28,3.27,7.17c-2.62,0.81-6.27,3.2-7.97,2.22c-3.32-1.93-3.8,0.62-5.36,2.08
				c-1.2-2.37-2.27-4.47-3.34-6.58c-1.62,0.46-3.67,1.05-5.72,1.64c-0.11-0.29-0.22-0.58-0.33-0.86c1.27-0.57,2.55-1.14,3.82-1.72
				c-0.06-0.29-0.12-0.57-0.18-0.86c-1.9,0.14-3.8,0.28-4.85,0.36c1.17-1.76,2.56-3.83,4.09-6.12c-1.74-0.57-2.69-1.1-3.68-1.16
				c-2.54-0.14-5.21-0.38-6.61,2.53c-1.7,3.53-4.57,5.43-8.63,6.25c0.42-2.38,0.79-4.55,1.17-6.72c-0.31-0.07-0.62-0.14-0.93-0.21
				c-0.4,0.96-0.81,1.92-1.31,3.13c-2.09-1.75-3.97-3.33-5.78-4.85c-0.92,1.42-1.54,2.37-1.68,2.59c-2.37-1.36-4.19-2.91-6.27-3.42
				c-1.52-0.38-2.68,4.63-1.93,8.29c0.19-0.34,0.42-0.74,1.05-1.88c-0.15,2.14-0.23,3.39-0.31,4.61c-0.87,0.27-1.62,0.5-1.73,0.54
				c1.38,1.19,3.41,2.12,4.02,3.62c1.31,3.21,1.88,6.73,2.8,10.29c0.31,0.05,1.21,0.2,1.86,0.31c-0.27,1.92-1.11,3.82-0.61,5.25
				c0.68,1.96,1.66,3.56,0.47,5.66c-0.23,0.42,0.46,1.83,1.06,2.16c2.7,1.49,3.53,3.81,3.47,5.63c1.54,1.11,2.5,2.29,3.64,2.51
				c2.69,0.51,4.66,2.5,7.58,2.84c2.61,0.31,4.98,0.91,7.46-0.24c3.15-1.46,6.36-2.8,9.43-4.41c0.87-0.46,1.97-1.76,1.88-2.54
				c-0.27-2.26-0.9-4.52-1.75-6.64c-0.72-1.79-1.16-4.46-4.34-3.13c-0.26,0.11-0.85-0.19-1.09-0.47c-3.69-4.26-7.4-8.51-10.95-12.89
				c-0.65-0.81-0.58-2.21-0.84-3.34c0.26-0.17,0.53-0.35,0.79-0.53c1.09,0.71,2.14,1.51,3.29,2.11c0.77,0.4,1.88,0.95,2.5,0.67
				c3.25-1.46,6.27-0.46,9.27,0.61c3.3,1.18,6.34,1.03,9.46-0.72c1.4-0.79,3.54-1.69,4.72-1.16c3.68,1.65,6.18,0.49,8.49-2.26
				c0.19-0.23,0.72-0.17,2.07-0.45c-1.12,2.5-2.03,4.31-2.74,6.19c-0.72,1.92-1.24,3.92-1.85,5.88L267.06,282.17z M238.63,321.78
				c0.61,0,1.71-0.35,2.25,0.06c2.04,1.54,4.17,1.62,6.56,1.22c1.75-0.29,3.58-0.2,5.37-0.16c2.3,0.05,4.76,0.78,6.88,0.21
				c5.35-1.45,10.55-3.33,14.33-7.91c2.01-2.43,2.51-6.48,0.49-8.56c-1.45,0.88-2.78,2.05-4.32,2.54
				c-4.92,1.55-9.89,2.94-14.89,4.19c-1.26,0.32-2.77,0.13-4.05-0.23c-2.36-0.66-4.6-1.75-6.96-2.42c-3.85-1.1-7.74-2.12-11.66-2.96
				c-1.55-0.33-3.47-0.59-4.73,0.07c-0.7,0.37-1.04,3.18-0.41,4.02c2,2.66,4.46,5,6.92,7.27
				C235.62,320.23,237.21,320.91,238.63,321.78z M326.73,249.13c-0.23,0.09-0.46,0.19-0.69,0.28c-1.6-3.64-3.31-7.24-4.76-10.94
				c-1.41-3.6-2.55-7.31-3.81-10.98c-0.52,0.18-1.04,0.35-1.56,0.53c0.32,1.04,0.57,2.12,0.99,3.12c0.97,2.33,2.48,4.53,2.98,6.94
				c1.82,8.87,5.32,16.93,10.52,24.3c0.97,1.37,1.64,2.95,2.52,4.38c0.4,0.66,0.97,1.22,1.46,1.82c0.53-0.63,1.05-1.27,1.59-1.91
				c0.78,1.12,1.55,2.23,2.32,3.34c0.28-0.17,0.57-0.34,0.85-0.51c-1.66-3.42-3.32-6.84-4.99-10.25c0.31-0.18,0.62-0.36,0.93-0.54
				c1.34,1.12,2.68,2.25,4.02,3.38c0.8,0.67,1.86,2.06,2.35,1.88c2.45-0.91,2.79,1.14,3.72,2.32c0.66,0.84,1.17,1.8,1.75,2.7
				c-1.33-6.78-7.09-9.88-11.38-14.58c1.98-0.92,0.91-2.05-0.09-3.53c-1.9-2.81-3.49-5.83-5.2-8.77c0.09-0.08,0.18-0.16,0.26-0.24
				c1.38,1.14,2.75,2.27,4.13,3.41c0.16-0.17,0.33-0.34,0.49-0.51c-1.04-1.46-2.09-2.91-3.51-4.88c3.19,0.47,5.71,0.84,8.21,1.21
				c-1.25-3.39-15.84-19.51-18.71-20.18c1.81,2.63,3.39,4.92,4.96,7.21c-0.18,0.13-0.35,0.26-0.53,0.39
				c-1.79-2.32-3.59-4.64-5.38-6.96c-0.29,0.15-0.58,0.31-0.87,0.46c2.77,6.26,5.55,12.52,8.28,18.68c-0.35-0.04-0.89-0.1-1.56-0.17
				c0.59,1.48,1.09,2.73,1.87,4.69c-1.19-0.84-1.79-1.26-2.87-2.03C325.72,245.57,326.22,247.35,326.73,249.13z M161.02,262.1
				c3.37,0.28,2.7,2.08,2.44,3.47c-1.42,7.4-2.93,14.79-4.41,22.19c0.3,0.08,0.6,0.16,0.9,0.24c0.35-0.93,0.68-1.87,1.05-2.8
				c1.06-2.65,1.93-5.4,3.29-7.89c0.68-1.24,2.61-1.78,3.35-3.01c2.43-4,6.45-6.91,7.68-11.76c0.32-1.27,1.88-2.21,2.85-3.32
				c0.73-0.84,1.43-1.72,2.14-2.58c-0.14-0.08-0.29-0.16-0.43-0.24c-1.57,0.77-3.14,1.54-4.71,2.31c-0.11-0.2-0.22-0.39-0.33-0.59
				c2.3-2.11,4.59-4.23,6.89-6.34c-0.15-0.18-0.3-0.36-0.46-0.54c-3.13,1.92-6.26,3.84-9.38,5.76c-0.22-0.16-0.45-0.32-0.67-0.48
				c5.7-4.06,6.51-10.27,7.61-15.37c-3.2,3.29-7.11,6.99-10.63,11.02C165.69,255.05,163.68,258.38,161.02,262.1z M228.28,194.32
				c-0.29,0.91-0.52,1.83-0.92,2.66c-0.07,0.14-0.91,0-1.35-0.13c-3.01-0.91-6.01-1.85-9.01-2.78c-0.04,0.13-0.08,0.26-0.12,0.39
				c2.85,1.21,5.69,2.43,8.54,3.64c-0.07,0.4-0.15,0.8-0.22,1.2c-3.06,0-6.11,0-9.03,0c0.56,0.72,1.39,1.78,2.41,3.09
				c-1.5,0.13-2.59,0.22-4.02,0.34c1.13,0.67,1.9,1.13,2.87,1.7c-2.56,1.07-4.73,1.98-6.84,2.86c0.56,0.25,1.36,0.61,2.16,0.96
				c0.02,0.31,0.05,0.62,0.07,0.93c-1.98,0.4-3.96,0.8-6.03,1.22c2.66,1.14,1.24,2.01-0.13,2.62c-1.17,0.52-2.48,0.72-4.12,1.17
				c1.3,0.15,2.18,0.25,3.38,0.39c-0.97,1.83-1.8,3.4-2.67,5.02c0.18,0.62,0.45,1.53,0.72,2.48c1.81-0.61,3.49-1.17,4.6-1.54
				c0-1.4-0.36-2.56,0.06-3.24c2.73-4.42,7.6-6.19,11.98-7.55c3.82-1.19,6.4-2.78,8.22-6.27c3.41,1.69,4.46-1.35,6.2-3.27
				c0.51,0.44,0.97,0.84,1.42,1.23c0.36-0.76,1.11-1.58,0.98-2.23c-0.25-1.27-0.73-3.22-1.58-3.51
				C233.37,194.87,230.66,194.71,228.28,194.32z M203.56,164.42c0.13-0.19,0.26-0.38,0.38-0.57c-3.8-2.16-7.54-4.45-11.43-6.42
				c-1.46-0.74-3.32-1.21-4.92-1.04c-7.26,0.79-14.16,2.74-19.72,7.83c-1.09,1-2.26,2.37-2.51,3.73c-0.56,3.07-0.48,6.25-0.84,9.37
				c-0.71,6.1,0.94,11.29,6.04,16.24c-0.84-4.55-4.84-8.02-2.28-11.39c0-1.79-0.15-2.9,0.03-3.96c0.35-1.97,1.34-3.93,1.26-5.87
				c-0.18-4.32-0.1-4.75,3.2-5.31c0.3-0.96,0.3-2.12,0.82-2.46c6.11-3.94,12.53-6.17,19.85-3.45
				C196.78,162.35,200.19,163.33,203.56,164.42z M276.24,196.99c1.06-0.61,2.02-1.17,2.99-1.73c-0.08-0.13-0.15-0.27-0.23-0.4
				c-1.51,0.69-3.03,1.38-4.55,2.07c-0.57-1.4-0.92-3.56-1.61-3.68c-1.26-0.21-2.73,0.8-4.11,1.29c-0.12-0.16-0.24-0.32-0.36-0.48
				c0.88-0.62,1.76-1.23,3.15-2.2c-4.29,0.04-6.16,4.57-10.38,3.09c-0.37,1.08-0.76,2.2-1.22,3.54c1.98,0.49,4.54,0.05,3.41,2.75
				c1-0.3,2.17-1.08,2.72-0.76c2.22,1.25,4.82,2.44,6.21,4.41c2.04,2.86,4.66,2.93,7.52,3.21c0.73,0.07,1.38,0.72,2.1,1.02
				c2.38,1,4.49,3.18,7.47,1.66c-1.19-0.24-2.38-0.49-4.07-0.83c0.96-0.77,1.52-1.23,2.08-1.68c-0.27,0.18-0.54,0.35-0.8,0.53
				c-2.31-2.66-4.62-5.32-7.2-8.3c3.04-0.82,5.44-1.48,7.85-2.13c-0.04-0.16-0.09-0.33-0.13-0.49c-3.17,0.72-6.34,1.44-9.54,2.17
				C277.06,198.92,276.67,197.99,276.24,196.99z M204.15,230.4c-0.17,0,0.37,0.15,0.77-0.02c4.59-2.06,8.64,0.58,12.46,2.09
				c3.21,1.27,6.18,2.77,9.77,2.98c0.55-2.82-0.35-4.6-2.87-5.35c-4.1-1.21-7.45-3.27-9.66-7.12c-0.41-0.72-2.74-1.31-3.13-0.91
				C208.82,224.77,206.43,227.75,204.15,230.4z M316.96,254.11c0.67,4.83,2.86,8.35,3.85,12.28c2.06,8.16,6.16,15.8,9.45,23.65
				c0.23,0.56,0.63,1.05,0.95,1.57c0.1-0.07,0.2-0.15,0.31-0.22c-0.63-2.71-1.26-5.43-1.97-8.5c0.88,0.45,1.25,0.64,2.31,1.18
				c-3.58-10.04-6.47-19.52-10.84-28.4c-0.31,0.11-0.63,0.21-0.94,0.32c0.18,0.7,0.36,1.41,0.54,2.11
				c-0.14,0.06-0.28,0.12-0.41,0.19C319.28,257.09,318.36,255.91,316.96,254.11z M241.07,232.21c-0.64,1.64-1.25,3.2-1.88,4.81
				c0.88,0.38,1.64,0.7,3.11,1.32c-3.12,2.12-5.67,3.86-8.22,5.59c0.17,0.31,0.34,0.63,0.5,0.94c2.19-0.34,4.74-0.09,6.47-1.17
				c1.89-1.17,4.88-2.01,4.53-5.44c-0.12-1.21,0.34-2.54,0.8-3.72c0.69-1.77-0.27-6.33-1.71-7.32c0.37-0.52,0.75-1.04,1.12-1.56
				c-0.16-0.33-0.31-0.66-0.47-0.98c-1.93,0.72-4.26,0.99-5.66,2.28c-1.16,1.07-1.21,3.33-1.88,5.46
				C238.49,232.39,239.55,232.32,241.07,232.21z M175.62,223.83c-3.45,1.52-7.16,2.41-9.87,4.55c-2.86,2.26-4.78,5.72-7.12,8.65
				c0.14,0.14,0.29,0.27,0.43,0.41c0.52-0.27,1.03-0.54,1.61-0.85c0.1,0.47,0.19,0.89,0.25,1.19c3.6-2.27,7.17-4.52,11.01-6.94
				c-0.51,0.85-0.88,1.45-1.39,2.3C175.43,231.79,175.95,228.35,175.62,223.83z M234.46,155.34c-1.53,5.01-3.05,9.99-4.57,14.96
				c0.38-0.08,0.76-0.15,1.15-0.23c0.47,1.12,0.93,2.25,1.56,3.75c0.47-1.51,0.85-2.71,1.35-4.33c0.18,1.64,0.31,2.81,0.45,4.03
				c1.06-3.13,2.08-6.11,3.09-9.1c-0.19-0.13-0.38-0.27-0.58-0.4c-0.39,0.7-0.78,1.4-1.17,2.11c-0.19-0.16-0.38-0.31-0.57-0.47
				c1.31-2.07,2.62-4.14,3.94-6.21c-0.14-0.11-0.29-0.22-0.43-0.33c-1.21,1.48-2.43,2.95-4.22,5.13
				C234.46,160.64,234.46,157.88,234.46,155.34z M272.96,237.14c3.23-0.06,3.57-5.32,7.11-3.15c2.37-2.32,4.79-4.59,7.05-7.01
				c0.38-0.41,0.03-1.5,0.01-2.27c-0.78,0.23-1.71,0.26-2.32,0.71c-1.65,1.24-2.99,3.49-4.76,3.85
				C275.8,230.15,274.57,233.24,272.96,237.14z M175.49,279.68c0.16,0.05,0.32,0.1,0.47,0.15c0.12,1.25,0.24,2.49,0.36,3.74
				c0.21-0.04,0.41-0.09,0.62-0.13c1.84-4.61,3.68-9.22,5.62-14.07c-3.22,0.49-7.14,4.8-7.82,8.2c-0.28,1.38-0.38,2.8-0.57,4.2
				c0.16,0.03,0.33,0.05,0.49,0.07C174.94,281.11,175.22,280.39,175.49,279.68z M282.78,355.4c-7.15,3.58-10.21,9.71-11.15,18.19
				c1.57-1.36,3.43-2.18,3.57-3.22C275.96,364.42,278.67,359.6,282.78,355.4z M246.94,204.16c-0.32-0.05-0.64-0.1-0.96-0.15
				c-0.46,0.76-0.82,2.07-1.4,2.18c-3.52,0.64-3.15,3.51-3.57,5.89c-0.1,0.54,0.46,1.19,0.71,1.79c1.74-0.8,4.48-1.2,5-2.49
				C247.55,209.28,246.94,206.6,246.94,204.16z M186.48,215.86c-5.4-0.82-12.83,3.22-12.29,6.61
				C178.81,221.52,182.84,219.68,186.48,215.86z M332.92,304.42c0.58,4.75,1.15,9.51,1.7,14.06
				C338.34,315.6,338.09,309.64,332.92,304.42z M182.32,331.36c-2.74-6.17-7.17-12-2.69-19.34
				C173.95,314.92,175.49,324.83,182.32,331.36z M175.66,307.39c-4,0.42-5.75,2.13-5.63,5.01c0.05,1.23,1.46,2.4,2.26,3.59
				c0.39-0.11,0.78-0.21,1.17-0.32C174.15,313.08,174.84,310.5,175.66,307.39z M321.96,308.75c-0.27-0.07-0.54-0.14-0.81-0.21
				c-0.06,0.83-0.12,1.67-0.19,2.64c-0.7-0.44-1.15-0.72-1.31-0.82c-0.93,3.5-1.83,6.89-2.84,10.69
				C321.02,317.62,321.96,313.37,321.96,308.75z M252.05,236.01c-0.4,0.02-0.79,0.05-1.19,0.07c0.76,1.09,1.52,2.17,2.31,3.31
				c0.82-0.42,1.47-0.74,2.11-1.07c-0.33-0.92-0.83-1.71-0.86-2.53c-0.04-0.88,0.65-1.84,0.47-2.65c-0.21-0.97-0.99-1.82-1.52-2.72
				c-0.19,0.91-0.37,1.82-0.59,2.72C252.56,234.1,252.3,235.06,252.05,236.01z M225.21,248.48c-1.25,2.76-2.42,5.35-4.02,8.89
				c1.91-0.53,3.53-0.51,3.97-1.22c0.68-1.1,0.67-2.7,0.71-4.09C225.91,251.12,225.54,250.16,225.21,248.48z M314.2,148.04
				c4.7-0.99,8.92-1.88,13.44-2.83C322.86,143.25,318.43,144.18,314.2,148.04z M274.64,161.94c0,1.67,0,3.91,0,6.98
				c2.01-2.61,3.4-4.41,5.03-6.52c-1.03,0.26-1.66,0.43-2.36,0.6c0.06-0.7,0.1-1.19,0.13-1.62
				C276.64,161.54,275.91,161.68,274.64,161.94z M179.69,215.8c-0.16-0.26-0.32-0.52-0.48-0.78c-4.27,1.53-8.54,3.06-12.81,4.59
				c0.18,0.45,0.37,0.9,0.55,1.34C171.2,219.24,175.45,217.52,179.69,215.8z M197.52,227.16c-3.52,2.98-4.89,7.03-4.74,14.39
				C194.38,236.7,195.96,231.89,197.52,227.16z M212.28,346.99c-2.1-2.41-4.05-4.64-6.18-7.08
				C206.16,344.82,206.81,345.55,212.28,346.99z M255.39,231.84c1.54-0.72,2.61-1.23,4.36-2.05c-1.38-1.45-2.5-2.62-3.63-3.8
				c-0.25,0.17-0.49,0.35-0.74,0.52C255.39,228.12,255.39,229.73,255.39,231.84z M354.23,229.62c-3.79-1.86-6.68-3.27-9.56-4.68
				C346.62,228.71,349.97,229.17,354.23,229.62z M239.84,172.7c-2.67,4.18,1.04,6.17,2.16,9.03
				C241.28,178.71,240.56,175.71,239.84,172.7z M247.74,249.61c-0.05-0.26-0.1-0.52-0.15-0.78c-1.85-0.31-3.7-0.78-5.56-0.87
				c-0.83-0.04-1.7,0.66-2.55,1.02c0.14,0.49,0.28,0.98,0.42,1.47C242.51,250.17,245.12,249.89,247.74,249.61z M201.07,188.59
				c-4.9-0.36-7.6,2.65-10.37,5.51C194.05,192.32,197.4,190.54,201.07,188.59z M236.45,249.27c-0.3-0.21-0.6-0.41-0.91-0.62
				c-1.66,2.04-3.31,4.07-5.02,6.17c0.42,0.21,1.03,0.51,1.9,0.95C233.79,253.57,235.12,251.42,236.45,249.27z M185.48,202.47
				c0.29,0.47,0.58,0.93,0.87,1.4c1.18-0.94,2.27-2.01,3.55-2.79c2.02-1.24,4.17-2.29,6.26-3.42c-0.13-0.23-0.25-0.46-0.38-0.69
				C192.34,198.81,188.91,200.64,185.48,202.47z M255.64,212.08c0.59-0.04,1.17-0.08,1.76-0.12c0-1.32,0.15-2.66-0.12-3.92
				c-0.06-0.27-1.65-0.21-2.53-0.3C255.05,209.19,255.34,210.63,255.64,212.08z M204.93,203.17c0.01-0.32,0.03-0.63,0.04-0.95
				c-4.18,0-8.37,0-12.55,0c-0.01,0.07-0.02,0.13-0.03,0.2C196.57,202.67,200.75,202.92,204.93,203.17z M258.05,220.27
				c-0.42-0.34-0.84-0.68-1.25-1.02c-0.9,1.03-1.83,2.03-2.62,3.14c-0.07,0.1,0.81,0.87,1.25,1.33
				C256.29,222.58,257.17,221.42,258.05,220.27z M310,214.12c-0.35,0.21-0.71,0.41-1.06,0.62c1.33,2.29,2.67,4.57,4,6.86
				c0.34-0.2,0.68-0.4,1.02-0.6C312.64,218.7,311.32,216.41,310,214.12z M195.14,144.2c0.14,3.87,4.19,3.58,5.62,6.09
				c0.19-0.21,0.38-0.42,0.57-0.62C199.27,147.84,197.21,146.02,195.14,144.2z M205.81,263.16c1.05-3.2,1.97-6.03,2.9-8.87
				c-0.34-0.1-0.69-0.19-1.03-0.29C205.95,256.6,205.61,259.6,205.81,263.16z M322.24,290.65c-0.39-0.01-0.79-0.01-1.18-0.02
				c0,2.06,0,4.12,0,6.17c0.28,0,0.56,0,0.84,0C322.02,294.76,322.13,292.71,322.24,290.65z M156.59,168.37
				c-0.13-0.26-0.25-0.53-0.38-0.79c-2.26,0.98-4.52,1.96-6.77,2.94c0.19,0.39,0.37,0.78,0.56,1.17
				C152.2,170.58,154.4,169.47,156.59,168.37z M282.09,164.1c-0.3-0.23-0.6-0.46-0.91-0.68c-1.42,2.14-2.83,4.29-4.25,6.43
				c0.24,0.16,0.47,0.31,0.71,0.47C279.12,168.25,280.61,166.18,282.09,164.1z M241.18,218.08c3.24,1.99,4.44,1.6,4.62-0.89
				C244.22,217.5,242.7,217.79,241.18,218.08z M244.04,247.35c1.38-1.32,2.44-2.33,4.05-3.87
				C243.63,244.01,243.33,244.33,244.04,247.35z"/>
			<path fill-rule="evenodd" clip-rule="evenodd" d="M320.62,336.6c1.03,1.61,2.09,3.25,3.1,4.83
				C320.73,341.55,320.29,340.9,320.62,336.6z"/>
			<path fill-rule="evenodd" clip-rule="evenodd" d="M267,282.2c0.61-1.96,1.13-3.96,1.85-5.88c0.71-1.89,1.62-3.7,2.74-6.19
				c-1.35,0.28-1.88,0.22-2.07,0.45c-2.31,2.74-4.81,3.91-8.49,2.26c-1.18-0.53-3.32,0.38-4.72,1.16c-3.12,1.74-6.16,1.89-9.46,0.72
				c-3-1.07-6.02-2.06-9.27-0.61c-0.62,0.28-1.74-0.27-2.5-0.67c-1.15-0.6-2.2-1.4-3.29-2.11c-0.26,0.18-0.53,0.35-0.79,0.53
				c0.26,1.13,0.19,2.53,0.84,3.34c3.54,4.38,7.26,8.62,10.95,12.89c0.24,0.28,0.83,0.58,1.09,0.47c3.17-1.33,3.62,1.34,4.34,3.13
				c0.85,2.12,1.48,4.38,1.75,6.64c0.09,0.79-1.01,2.08-1.88,2.54c-3.07,1.61-6.28,2.95-9.43,4.41c-2.48,1.15-4.85,0.54-7.46,0.24
				c-2.92-0.34-4.89-2.33-7.58-2.84c-1.14-0.22-2.1-1.4-3.64-2.51c0.06-1.82-0.77-4.14-3.47-5.63c-0.61-0.33-1.3-1.75-1.06-2.16
				c1.19-2.11,0.21-3.71-0.47-5.66c-0.5-1.44,0.34-3.34,0.61-5.25c-0.65-0.11-1.55-0.26-1.86-0.31c-0.92-3.56-1.5-7.07-2.8-10.29
				c-0.61-1.51-2.64-2.44-4.02-3.62c0.11-0.04,0.85-0.26,1.73-0.54c0.08-1.22,0.17-2.48,0.31-4.61c-0.64,1.14-0.86,1.54-1.05,1.88
				c-0.75-3.66,0.41-8.67,1.93-8.29c2.08,0.52,3.9,2.06,6.27,3.42c0.14-0.22,0.76-1.17,1.68-2.59c1.81,1.52,3.69,3.1,5.78,4.85
				c0.51-1.21,0.91-2.17,1.31-3.13c0.31,0.07,0.62,0.14,0.93,0.21c-0.38,2.17-0.76,4.34-1.17,6.72c4.06-0.82,6.93-2.72,8.63-6.25
				c1.4-2.9,4.07-2.67,6.61-2.53c0.98,0.05,1.94,0.59,3.68,1.16c-1.53,2.29-2.92,4.37-4.09,6.12c1.05-0.08,2.95-0.22,4.85-0.36
				c0.06,0.29,0.12,0.57,0.18,0.86c-1.27,0.57-2.55,1.15-3.82,1.72c0.11,0.29,0.22,0.58,0.33,0.86c2.05-0.59,4.09-1.18,5.72-1.64
				c1.07,2.11,2.13,4.21,3.34,6.58c1.56-1.45,2.04-4.01,5.36-2.08c1.7,0.98,5.35-1.4,7.97-2.22c-1.4-2.9-3.14-4.99-3.27-7.17
				c-0.12-2.18,1.37-4.46,2.25-6.97c3.3,2.8,6.07,5.15,8.93,7.58c-0.61,0.15-1.51,0.37-2.37,0.59c1.25,3.87,2,4.29,5.6,3.49
				c0.55-0.12,1.26,0.4,1.88,0.66c0.73,0.31,1.44,0.67,2.32,1.08c-0.24,0.77-0.48,1.52-0.78,2.51c2.45-0.15,5.29,1.49,5.88-2.86
				c1.79,0.81,3.36,1.52,4.92,2.23c0.14-0.15,0.28-0.31,0.41-0.46c-1.07-1.26-2.15-2.53-3.22-3.79c0.07-0.16,0.13-0.32,0.19-0.48
				c1.36,0.53,2.71,1.05,4.31,1.68c0.53-0.74,1.17-1.63,2.14-2.99c0.23,4,2.61,7.62-0.46,11.03c-1.46,1.62-3.36,2.82-3.23,5.45
				c0.01,0.2-2.33,0.72-3.57,0.72c-1.88,0.01-3.76-0.31-5.64-0.49c-0.02,0.35-0.04,0.7-0.05,1.06c1.37,0,2.79-0.21,4.12,0.04
				c4.11,0.76,4.6,1.82,2.96,5.68c-0.17,0.4-0.15,1.06,0.06,1.42c1.87,3.15,0.54,5.26-1.37,8.06c-1.33,1.96-2.17,3.97-4.48,4.96
				c-2.11,0.91-4.17,1.94-6.27,2.88c-1.55,0.69-3.11,1.85-4.69,1.9c-5.85,0.16-11-2.32-15.97-5.09c-0.69-0.38-1.55-1.59-1.4-2.18
				c0.84-3.29,0.3-7.33,4.46-9.01c0.46-0.19,0.96-0.6,1.16-1.03c1.77-3.77,5.85-3.88,8.88-5.67c4.02,3.26,6.32-0.78,9.7-2.13
				c-0.82-1.14-1.45-2.01-2.08-2.88c-0.19,0.12-0.38,0.25-0.57,0.37c0.14,0.42,0.28,0.84,0.43,1.29
				C272.03,279.94,269.51,281.07,267,282.2z M256.06,296.71c4.32,0,8.07,0.38,11.71-0.11c3.31-0.44,6.97,2.62,9.88-0.86
				c-2.72-0.12-5.5-0.2-8.27-0.38c-1.36-0.09-2.92-0.9-4.01-0.46c-2.93,1.18-4.98,0.56-6.62-3.13
				C257.55,293.97,256.8,295.35,256.06,296.71z M229.91,298.41c4.15-0.68,8.3-1.36,12.45-2.04
				C238.94,294.6,231.87,295.7,229.91,298.41z M224.92,276.82c0.96,2.2,1.67,3.82,2.36,5.39c1.93,0.39,3.96,0.79,5.98,1.2
				c0.22-0.47,0.44-0.95,0.66-1.42C229.63,282.51,229.09,277.24,224.92,276.82z M275.28,290.17c0.07-0.17,0.14-0.33,0.21-0.5
				c-2.86-0.66-5.71-1.38-8.6-1.9c-0.58-0.1-1.3,0.59-1.95,0.91c0.66,0.5,1.3,1.38,1.99,1.42
				C269.71,290.27,272.5,290.17,275.28,290.17z M237.67,289.24c-0.03-0.31-0.07-0.63-0.1-0.94c-2.4,0.11-4.8,0.21-7.68,0.34
				C232.28,291.67,234.84,291.65,237.67,289.24z M239.43,261.12c0.17-0.55,0.35-1.11,0.52-1.66c-1.08-0.28-2.16-0.63-3.26-0.77
				c-0.17-0.02-0.46,0.91-0.69,1.4C237.15,260.43,238.29,260.77,239.43,261.12z M261.01,259.07c-0.11,0.3-0.23,0.61-0.34,0.92
				c1.2,0.42,2.39,0.84,3.59,1.26c0.18-0.96,0.41-1.92,0.49-2.89c0.02-0.23-0.51-0.51-1.12-1.07c-0.06,1.08-0.1,1.72-0.14,2.43
				C262.61,259.48,261.81,259.28,261.01,259.07z"/>
			<path fill-rule="evenodd" clip-rule="evenodd" d="M238.63,321.78c-1.41-0.87-3.01-1.55-4.2-2.66c-2.46-2.27-4.92-4.61-6.92-7.27
				c-0.64-0.85-0.3-3.65,0.41-4.02c1.26-0.66,3.18-0.4,4.73-0.07c3.92,0.84,7.81,1.86,11.66,2.96c2.36,0.67,4.6,1.76,6.96,2.42
				c1.28,0.36,2.79,0.54,4.05,0.23c5-1.25,9.98-2.63,14.89-4.19c1.55-0.49,2.88-1.67,4.32-2.54c2.02,2.09,1.52,6.13-0.49,8.56
				c-3.78,4.58-8.98,6.46-14.33,7.91c-2.12,0.57-4.58-0.16-6.88-0.21c-1.79-0.04-3.62-0.13-5.37,0.16
				c-2.39,0.39-4.52,0.32-6.56-1.22C240.34,321.43,239.23,321.78,238.63,321.78z"/>
			<path fill-rule="evenodd" clip-rule="evenodd" d="M326.73,249.13c-0.51-1.78-1.01-3.56-1.68-5.91c1.09,0.77,1.68,1.19,2.87,2.03
				c-0.78-1.95-1.28-3.21-1.87-4.69c0.67,0.07,1.21,0.13,1.56,0.17c-2.73-6.16-5.5-12.42-8.28-18.68c0.29-0.15,0.58-0.31,0.87-0.46
				c1.79,2.32,3.59,4.64,5.38,6.96c0.18-0.13,0.35-0.26,0.53-0.39c-1.58-2.29-3.15-4.58-4.96-7.21
				c2.87,0.66,17.45,16.79,18.71,20.18c-2.5-0.37-5.02-0.74-8.21-1.21c1.42,1.97,2.46,3.43,3.51,4.88
				c-0.16,0.17-0.33,0.34-0.49,0.51c-1.38-1.14-2.75-2.27-4.13-3.41c-0.09,0.08-0.18,0.16-0.26,0.24c1.72,2.93,3.31,5.95,5.2,8.77
				c1,1.48,2.07,2.61,0.09,3.53c4.29,4.7,10.05,7.79,11.38,14.58c-0.58-0.9-1.09-1.86-1.75-2.7c-0.93-1.18-1.27-3.22-3.72-2.32
				c-0.49,0.18-1.55-1.21-2.35-1.88c-1.34-1.13-2.68-2.25-4.02-3.38c-0.31,0.18-0.62,0.36-0.93,0.54c1.66,3.42,3.32,6.84,4.99,10.25
				c-0.28,0.17-0.57,0.34-0.85,0.51c-0.77-1.11-1.54-2.22-2.32-3.34c-0.53,0.64-1.06,1.27-1.59,1.91c-0.49-0.6-1.06-1.16-1.46-1.82
				c-0.88-1.44-1.55-3.01-2.52-4.38c-5.2-7.37-8.7-15.44-10.52-24.3c-0.5-2.41-2-4.61-2.98-6.94c-0.42-1-0.67-2.08-0.99-3.12
				c0.52-0.18,1.04-0.35,1.56-0.53c1.26,3.66,2.4,7.37,3.81,10.98c1.45,3.7,3.17,7.29,4.76,10.94
				C326.27,249.32,326.5,249.22,326.73,249.13z"/>
			<path fill-rule="evenodd" clip-rule="evenodd" d="M161.02,262.1c2.66-3.72,4.66-7.05,7.18-9.94c3.52-4.03,7.43-7.73,10.63-11.02
				c-1.1,5.09-1.91,11.31-7.61,15.37c0.22,0.16,0.45,0.32,0.67,0.48c3.13-1.92,6.26-3.84,9.38-5.76c0.15,0.18,0.31,0.36,0.46,0.54
				c-2.3,2.11-4.59,4.23-6.89,6.34c0.11,0.2,0.22,0.39,0.33,0.59c1.57-0.77,3.14-1.54,4.71-2.31c0.14,0.08,0.29,0.16,0.43,0.24
				c-0.71,0.86-1.41,1.74-2.14,2.58c-0.97,1.11-2.53,2.06-2.85,3.32c-1.23,4.85-5.26,7.76-7.68,11.76
				c-0.75,1.23-2.68,1.77-3.35,3.01c-1.36,2.49-2.23,5.24-3.29,7.89c-0.37,0.93-0.7,1.87-1.05,2.8c-0.3-0.08-0.6-0.16-0.9-0.24
				c1.48-7.39,2.99-14.78,4.41-22.19C163.73,264.19,164.39,262.38,161.02,262.1z"/>
			<path fill-rule="evenodd" clip-rule="evenodd" d="M228.28,194.32c2.38,0.39,5.09,0.55,7.57,1.39c0.85,0.29,1.33,2.24,1.58,3.51
				c0.13,0.65-0.62,1.46-0.98,2.23c-0.46-0.4-0.91-0.79-1.42-1.23c-1.74,1.92-2.8,4.96-6.2,3.27c-1.81,3.49-4.4,5.09-8.22,6.27
				c-4.39,1.37-9.26,3.13-11.98,7.55c-0.42,0.68-0.06,1.84-0.06,3.24c-1.11,0.37-2.79,0.94-4.6,1.54c-0.28-0.95-0.54-1.86-0.72-2.48
				c0.86-1.62,1.69-3.19,2.67-5.02c-1.2-0.14-2.08-0.24-3.38-0.39c1.64-0.45,2.95-0.65,4.12-1.17c1.37-0.61,2.79-1.48,0.13-2.62
				c2.08-0.42,4.06-0.82,6.03-1.22c-0.02-0.31-0.05-0.62-0.07-0.93c-0.8-0.36-1.6-0.71-2.16-0.96c2.11-0.88,4.28-1.79,6.84-2.86
				c-0.97-0.57-1.74-1.03-2.87-1.7c1.44-0.12,2.52-0.21,4.02-0.34c-1.02-1.31-1.85-2.37-2.41-3.09c2.91,0,5.97,0,9.03,0
				c0.07-0.4,0.15-0.8,0.22-1.2c-2.85-1.21-5.69-2.43-8.54-3.64c0.04-0.13,0.08-0.26,0.12-0.39c3,0.93,6,1.87,9.01,2.78
				c0.45,0.13,1.28,0.28,1.35,0.13C227.76,196.15,227.99,195.23,228.28,194.32z"/>
			<path fill-rule="evenodd" clip-rule="evenodd" d="M308.43,159.97c2.68-0.7,5.32-1.79,8.04-1.98c3.33-0.24,6.74,0.04,10.05,0.54
				c1.66,0.25,3.12,1.65,4.78,2.23c1.32,0.47,2.8,0.49,4.36,0.73c-2.2,1.32-2.61,2.75-0.47,4.83c0.77,0.75,0.13,2.79,0.54,4.11
				c1.51,4.82-0.31,9.18-1.45,13.71c-1.42,5.63-4.89,9.93-8.82,14.08c3.57-5.73,5.42-12.09,7.12-18.62
				c-0.53-0.4-1.25-0.93-2.31-1.72c1.09-0.33,1.82-0.56,2.54-0.78c0.02-0.17,0.04-0.35,0.07-0.52c-1.12-0.23-2.24-0.46-3.32-0.68
				c0.58-0.92,1.41-1.78,1.65-2.78c0.14-0.59-0.64-1.41-0.99-2.08c1.49-1.12,0.65-2.35-1.5-3.33c0.63-0.51,1.18-0.96,1.43-1.16
				c-1.25-1.25-2.21-2.74-3.58-3.49c-5.51-3-11.54-3.22-17.64-2.87c-0.18,0.01-0.37-0.18-0.56-0.28L308.43,159.97z"/>
			<path fill-rule="evenodd" clip-rule="evenodd" d="M203.56,164.42c-3.37-1.09-6.78-2.07-10.1-3.3
				c-7.32-2.72-13.75-0.49-19.85,3.45c-0.53,0.34-0.52,1.5-0.82,2.46c-3.3,0.56-3.38,1-3.2,5.31c0.08,1.93-0.91,3.89-1.26,5.87
				c-0.19,1.06-0.03,2.18-0.03,3.96c-2.56,3.37,1.44,6.85,2.28,11.39c-5.11-4.95-6.75-10.14-6.04-16.24
				c0.36-3.12,0.28-6.3,0.84-9.37c0.25-1.36,1.42-2.73,2.51-3.73c5.56-5.09,12.46-7.04,19.72-7.83c1.6-0.17,3.47,0.3,4.92,1.04
				c3.89,1.98,7.63,4.26,11.43,6.42C203.82,164.03,203.69,164.23,203.56,164.42z"/>
			<path fill-rule="evenodd" clip-rule="evenodd" d="M276.24,196.99c0.42,1,0.82,1.93,1.3,3.06c3.2-0.73,6.37-1.45,9.54-2.17
				c0.04,0.16,0.09,0.33,0.13,0.49c-2.41,0.65-4.82,1.31-7.85,2.13c2.59,2.98,4.89,5.64,7.2,8.3c0.27-0.18,0.54-0.35,0.8-0.53
				c-0.56,0.46-1.12,0.91-2.08,1.68c1.69,0.35,2.88,0.59,4.07,0.83c-2.98,1.52-5.09-0.66-7.47-1.66c-0.72-0.3-1.38-0.95-2.1-1.02
				c-2.85-0.28-5.48-0.35-7.52-3.21c-1.4-1.97-3.99-3.15-6.21-4.41c-0.56-0.31-1.73,0.46-2.72,0.76c1.13-2.7-1.43-2.26-3.41-2.75
				c0.46-1.34,0.84-2.45,1.22-3.54c4.22,1.48,6.09-3.05,10.38-3.09c-1.38,0.97-2.26,1.58-3.15,2.2c0.12,0.16,0.24,0.32,0.36,0.48
				c1.38-0.5,2.84-1.5,4.11-1.29c0.69,0.12,1.04,2.28,1.61,3.68c1.52-0.69,3.03-1.38,4.55-2.07c0.08,0.13,0.15,0.27,0.23,0.4
				C278.26,195.82,277.3,196.38,276.24,196.99z"/>
			<path fill-rule="evenodd" clip-rule="evenodd" d="M204.15,230.4c2.28-2.65,4.67-5.63,7.35-8.33c0.39-0.39,2.71,0.2,3.13,0.91
				c2.21,3.85,5.56,5.91,9.66,7.12c2.52,0.74,3.42,2.53,2.87,5.35c-3.59-0.21-6.56-1.71-9.77-2.98c-3.82-1.51-7.86-4.15-12.46-2.09
				C204.52,230.55,203.98,230.4,204.15,230.4z"/>
			<path fill-rule="evenodd" clip-rule="evenodd" d="M316.96,254.11c1.4,1.8,2.32,2.99,3.24,4.17c0.14-0.06,0.28-0.12,0.41-0.19
				c-0.18-0.7-0.36-1.4-0.54-2.11c0.31-0.11,0.63-0.21,0.94-0.32c4.37,8.88,7.26,18.36,10.84,28.4c-1.06-0.54-1.43-0.73-2.31-1.18
				c0.71,3.07,1.34,5.79,1.97,8.5c-0.1,0.07-0.2,0.15-0.31,0.22c-0.32-0.52-0.72-1.01-0.95-1.57c-3.28-7.85-7.38-15.49-9.45-23.65
				C319.81,262.46,317.63,258.94,316.96,254.11z"/>
			<path fill-rule="evenodd" clip-rule="evenodd" d="M241.07,232.21c-1.52,0.1-2.58,0.17-3.29,0.22c0.67-2.13,0.72-4.39,1.88-5.46
				c1.4-1.29,3.73-1.57,5.66-2.28c0.16,0.33,0.32,0.66,0.47,0.98c-0.37,0.52-0.75,1.04-1.12,1.56c1.44,0.99,2.4,5.56,1.71,7.32
				c-0.46,1.18-0.92,2.51-0.8,3.72c0.35,3.43-2.64,4.27-4.53,5.44c-1.73,1.07-4.28,0.83-6.47,1.17c-0.17-0.31-0.34-0.63-0.5-0.94
				c2.55-1.73,5.1-3.47,8.22-5.59c-1.47-0.63-2.23-0.95-3.11-1.32C239.82,235.42,240.43,233.85,241.07,232.21z"/>
			<path fill-rule="evenodd" clip-rule="evenodd" d="M159.92,258.54c3.08-5.69,4.06-12.69,10.87-16.07
				c-0.24-0.22-0.49-0.45-0.73-0.67c-1.28,0.53-2.56,1.06-4.43,1.83c2.27-6.34,6.22-10.12,12.67-12.73
				c-1.82,3.77-2.98,7.01-4.82,9.8c-3.43,5.19-7.23,10.14-10.94,15.14c-0.74,0.99-1.79,1.75-2.7,2.62
				C159.84,258.46,159.92,258.54,159.92,258.54z"/>
			<path fill-rule="evenodd" clip-rule="evenodd" d="M175.62,223.83c0.33,4.52-0.18,7.97-5.07,9.31c0.51-0.85,0.88-1.45,1.39-2.3
				c-3.85,2.43-7.41,4.67-11.01,6.94c-0.06-0.3-0.15-0.73-0.25-1.19c-0.58,0.3-1.09,0.58-1.61,0.85c-0.14-0.14-0.29-0.27-0.43-0.41
				c2.33-2.93,4.25-6.39,7.12-8.65C168.46,226.24,172.16,225.35,175.62,223.83z"/>
			<path fill-rule="evenodd" clip-rule="evenodd" d="M137.26,225.38c1.48-2.07,0.82-5.72,4.82-6.27c-0.13,1.14-0.24,2.13-0.42,3.69
				c4.83-6.89,10.92-10.75,19.23-10.34c-0.94,0.34-1.95,0.57-2.82,1.05c-3.21,1.77-6.46,3.5-9.53,5.49
				c-2.73,1.77-5.17,3.99-7.89,5.77c-0.88,0.57-2.25,0.37-3.4,0.54C137.24,225.34,137.26,225.38,137.26,225.38z"/>
			<path fill-rule="evenodd" clip-rule="evenodd" d="M234.46,155.34c0,2.54,0,5.31,0,8.92c1.79-2.18,3.01-3.66,4.22-5.13
				c0.14,0.11,0.29,0.22,0.43,0.33c-1.31,2.07-2.62,4.14-3.94,6.21c0.19,0.16,0.38,0.31,0.57,0.47c0.39-0.7,0.78-1.4,1.17-2.11
				c0.19,0.13,0.38,0.27,0.58,0.4c-1.01,2.98-2.03,5.97-3.09,9.1c-0.14-1.22-0.27-2.38-0.45-4.03c-0.51,1.61-0.88,2.81-1.35,4.33
				c-0.62-1.5-1.09-2.63-1.56-3.75c-0.38,0.08-0.77,0.15-1.15,0.23C231.41,165.33,232.92,160.35,234.46,155.34z"/>
			<path fill-rule="evenodd" clip-rule="evenodd" d="M272.96,237.14c1.61-3.89,2.84-6.99,7.1-7.87c1.77-0.37,3.11-2.61,4.76-3.85
				c0.61-0.46,1.53-0.49,2.32-0.71c0.01,0.77,0.37,1.86-0.01,2.27c-2.26,2.43-4.68,4.69-7.05,7.01
				C276.53,231.82,276.19,237.08,272.96,237.14z"/>
			<path fill-rule="evenodd" clip-rule="evenodd" d="M175.49,279.68c-0.27,0.72-0.55,1.43-0.82,2.15c-0.16-0.02-0.33-0.05-0.49-0.07
				c0.18-1.4,0.29-2.82,0.57-4.2c0.68-3.4,4.6-7.7,7.82-8.2c-1.94,4.85-3.78,9.46-5.62,14.07c-0.21,0.04-0.41,0.09-0.62,0.13
				c-0.12-1.25-0.24-2.49-0.36-3.74C175.81,279.78,175.65,279.73,175.49,279.68z"/>
			<path fill-rule="evenodd" clip-rule="evenodd" d="M282.78,355.4c-4.1,4.2-6.82,9.02-7.58,14.96c-0.13,1.04-1.99,1.86-3.57,3.22
				C272.57,365.1,275.62,358.98,282.78,355.4z"/>
			<path fill-rule="evenodd" clip-rule="evenodd" d="M246.94,204.16c0,2.44,0.61,5.12-0.23,7.22c-0.52,1.29-3.25,1.69-5,2.49
				c-0.25-0.6-0.81-1.26-0.71-1.79c0.42-2.37,0.05-5.25,3.57-5.89c0.58-0.1,0.94-1.42,1.4-2.18
				C246.3,204.06,246.62,204.11,246.94,204.16z"/>
			<path fill-rule="evenodd" clip-rule="evenodd" d="M317.37,213.4c0.02,0.53-0.17,1.32,0.1,1.53c1.41,1.1,2.93,2.06,4.67,3.24
				c-6.52-1.26-8.95-0.32-13.07-8.54c3.51,0.26,6.15,1.33,8.23,3.8L317.37,213.4z"/>
			<path fill-rule="evenodd" clip-rule="evenodd" d="M186.48,215.86c-3.64,3.82-7.67,5.67-12.29,6.61
				C173.65,219.08,181.08,215.04,186.48,215.86z"/>
			<path fill-rule="evenodd" clip-rule="evenodd" d="M332.92,304.42c5.17,5.22,5.42,11.18,1.7,14.06
				C334.07,313.92,333.5,309.17,332.92,304.42z"/>
			<path fill-rule="evenodd" clip-rule="evenodd" d="M182.32,331.36c-6.83-6.54-8.37-16.44-2.69-19.34
				C175.15,319.36,179.58,325.19,182.32,331.36z"/>
			<path fill-rule="evenodd" clip-rule="evenodd" d="M175.66,307.39c-0.82,3.11-1.51,5.69-2.2,8.28c-0.39,0.11-0.78,0.22-1.17,0.32
				c-0.79-1.19-2.2-2.36-2.26-3.59C169.91,309.52,171.66,307.81,175.66,307.39z"/>
			<path fill-rule="evenodd" clip-rule="evenodd" d="M142.48,292.42c1.43-4.96,2.84-9.92,7.46-13.83
				c-2.32,5.94-4.46,11.4-6.56,16.79c-0.24-0.88-0.54-1.97-0.85-3.06C142.53,292.33,142.48,292.42,142.48,292.42z"/>
			<path fill-rule="evenodd" clip-rule="evenodd" d="M187.32,295.23c-0.27-0.32-0.54-0.64-1-1.21c-0.27,0.9-0.5,1.68-0.92,3.07
				c-0.46-5.43-1.05-10.26,3.74-13.89c-0.33,2.77,1.33,2.05,3.13,1.62c-4.41,0.65-4.73,3.49-4.59,6.74c0.05,1.24-0.29,2.5-0.45,3.75
				L187.32,295.23z"/>
			<path fill-rule="evenodd" clip-rule="evenodd" d="M321.96,308.75c0,4.62-0.94,8.87-5.15,12.3c1.01-3.79,1.91-7.18,2.84-10.69
				c0.16,0.1,0.61,0.38,1.31,0.82c0.07-0.97,0.13-1.8,0.19-2.64C321.41,308.61,321.69,308.68,321.96,308.75z"/>
			<path fill-rule="evenodd" clip-rule="evenodd" d="M355.45,257.3c-0.87,1.36-1.7,1.29-2.66,0.02c-2.82-3.74-5.68-7.45-8.38-10.99
				c4.02,1.64,6.44,5.5,9.26,8.91c0.59,0.71,1.16,1.44,1.75,2.15C355.42,257.38,355.45,257.3,355.45,257.3z"/>
			<path fill-rule="evenodd" clip-rule="evenodd" d="M252.05,236.01c0.25-0.96,0.51-1.91,0.73-2.87c0.21-0.9,0.39-1.81,0.59-2.72
				c0.53,0.9,1.31,1.75,1.52,2.72c0.17,0.81-0.51,1.77-0.47,2.65c0.04,0.82,0.53,1.62,0.86,2.53c-0.64,0.32-1.29,0.65-2.11,1.07
				c-0.8-1.14-1.55-2.23-2.31-3.31C251.26,236.06,251.65,236.03,252.05,236.01z"/>
			<path fill-rule="evenodd" clip-rule="evenodd" d="M225.21,248.48c0.33,1.68,0.7,2.64,0.66,3.59c-0.05,1.39-0.04,2.99-0.71,4.09
				c-0.44,0.71-2.06,0.68-3.97,1.22C222.79,253.83,223.96,251.24,225.21,248.48z"/>
			<path fill-rule="evenodd" clip-rule="evenodd" d="M314.2,148.04c4.22-3.86,8.66-4.79,13.44-2.83
				C323.12,146.16,318.9,147.05,314.2,148.04z"/>
			<path fill-rule="evenodd" clip-rule="evenodd" d="M234.88,146.87c-0.61-1.78-1.23-3.56-1.74-5.07c3.9,2.82,6.14,10.05,4.29,14.33
				c-0.86-3.07-1.74-6.21-2.62-9.36C234.8,146.77,234.88,146.87,234.88,146.87z"/>
			<path fill-rule="evenodd" clip-rule="evenodd" d="M274.64,161.94c1.28-0.26,2-0.4,2.8-0.56c-0.04,0.43-0.08,0.92-0.13,1.62
				c0.7-0.18,1.33-0.34,2.36-0.6c-1.63,2.11-3.01,3.91-5.03,6.52C274.64,165.85,274.64,163.61,274.64,161.94z"/>
			<path fill-rule="evenodd" clip-rule="evenodd" d="M179.69,215.8c-4.25,1.72-8.49,3.44-12.74,5.16c-0.18-0.45-0.37-0.9-0.55-1.34
				c4.27-1.53,8.54-3.06,12.81-4.59C179.38,215.28,179.53,215.54,179.69,215.8z"/>
			<path fill-rule="evenodd" clip-rule="evenodd" d="M197.52,227.16c-1.56,4.74-3.14,9.54-4.74,14.39
				C192.63,234.18,194,230.14,197.52,227.16z"/>
			<path fill-rule="evenodd" clip-rule="evenodd" d="M212.28,346.99c-5.47-1.43-6.12-2.17-6.18-7.08
				C208.23,342.34,210.18,344.58,212.28,346.99z"/>
			<path fill-rule="evenodd" clip-rule="evenodd" d="M255.39,231.84c0-2.11,0-3.72,0-5.33c0.25-0.17,0.49-0.35,0.74-0.52
				c1.12,1.18,2.24,2.35,3.63,3.8C258,230.62,256.92,231.12,255.39,231.84z"/>
			<path fill-rule="evenodd" clip-rule="evenodd" d="M354.23,229.62c-4.25-0.45-7.61-0.91-9.56-4.68
				C347.55,226.35,350.44,227.77,354.23,229.62z"/>
			<path fill-rule="evenodd" clip-rule="evenodd" d="M239.84,172.7c0.72,3.01,1.44,6.02,2.16,9.03
				C240.88,178.86,237.17,176.88,239.84,172.7z"/>
			<path fill-rule="evenodd" clip-rule="evenodd" d="M247.74,249.61c-2.62,0.28-5.23,0.56-7.84,0.84c-0.14-0.49-0.28-0.98-0.42-1.47
				c0.85-0.36,1.72-1.06,2.55-1.02c1.86,0.09,3.71,0.56,5.56,0.87C247.64,249.08,247.69,249.34,247.74,249.61z"/>
			<path fill-rule="evenodd" clip-rule="evenodd" d="M201.07,188.59c-3.67,1.95-7.02,3.73-10.37,5.51
				C193.48,191.24,196.17,188.23,201.07,188.59z"/>
			<path fill-rule="evenodd" clip-rule="evenodd" d="M236.45,249.27c-1.33,2.15-2.66,4.3-4.02,6.5c-0.87-0.44-1.48-0.74-1.9-0.95
				c1.71-2.1,3.36-4.14,5.02-6.17C235.85,248.86,236.15,249.07,236.45,249.27z"/>
			<path fill-rule="evenodd" clip-rule="evenodd" d="M185.48,202.47c3.43-1.83,6.87-3.67,10.3-5.5c0.12,0.23,0.25,0.46,0.38,0.69
				c-2.09,1.13-4.24,2.18-6.26,3.42c-1.27,0.78-2.37,1.85-3.55,2.79C186.06,203.41,185.77,202.94,185.48,202.47z"/>
			<path fill-rule="evenodd" clip-rule="evenodd" d="M255.64,212.08c-0.3-1.45-0.59-2.89-0.89-4.34c0.88,0.09,2.47,0.03,2.53,0.3
				c0.27,1.26,0.12,2.61,0.12,3.92C256.81,212,256.23,212.04,255.64,212.08z"/>
			<path fill-rule="evenodd" clip-rule="evenodd" d="M204.93,203.17c-4.18-0.25-8.36-0.5-12.54-0.75c0.01-0.07,0.02-0.14,0.03-0.2
				c4.18,0,8.37,0,12.55,0C204.96,202.54,204.95,202.85,204.93,203.17z"/>
			<path fill-rule="evenodd" clip-rule="evenodd" d="M258.05,220.27c-0.88,1.15-1.75,2.3-2.63,3.45c-0.44-0.46-1.32-1.23-1.25-1.33
				c0.79-1.11,1.72-2.11,2.62-3.14C257.21,219.59,257.63,219.93,258.05,220.27z"/>
			<path fill-rule="evenodd" clip-rule="evenodd" d="M310,214.12c1.32,2.29,2.64,4.58,3.96,6.88c-0.34,0.2-0.68,0.4-1.02,0.6
				c-1.33-2.29-2.67-4.57-4-6.86C309.29,214.53,309.64,214.32,310,214.12z"/>
			<path fill-rule="evenodd" clip-rule="evenodd" d="M187.23,295.32c2.01-1.45,1.83,1.36,3,1.54c-0.77,1.01-1.54,2.01-2.31,3.02
				c-0.27-0.13-0.53-0.25-0.8-0.38c0.07-1.42,0.13-2.84,0.2-4.25C187.32,295.23,187.23,295.32,187.23,295.32z"/>
			<path fill-rule="evenodd" clip-rule="evenodd" d="M308.36,159.92c-2.86,1.43-5.72,2.86-8.58,4.28c-0.12-0.26-0.24-0.52-0.36-0.78
				c2.88-1.43,5.14-4.21,9-3.47C308.43,159.97,308.36,159.92,308.36,159.92z"/>
			<path fill-rule="evenodd" clip-rule="evenodd" d="M195.14,144.2c2.06,1.82,4.13,3.64,6.19,5.46c-0.19,0.21-0.38,0.42-0.57,0.62
				C199.33,147.78,195.28,148.06,195.14,144.2z"/>
			<path fill-rule="evenodd" clip-rule="evenodd" fill="#FFFFFF" d="M205.81,263.16c-0.2-3.56,0.14-6.55,1.87-9.16
				c0.34,0.1,0.69,0.19,1.03,0.29C207.78,257.13,206.86,259.96,205.81,263.16z"/>
			<path fill-rule="evenodd" clip-rule="evenodd" d="M322.24,290.65c-0.11,2.05-0.23,4.11-0.34,6.16c-0.28,0-0.56,0-0.84,0
				c0-2.06,0-4.12,0-6.17C321.46,290.64,321.85,290.65,322.24,290.65z"/>
			<path fill-rule="evenodd" clip-rule="evenodd" d="M317.31,213.43c2.84,0.61,5.68,1.22,8.52,1.83c-0.15,0.48-0.29,0.96-0.44,1.43
				c-2.67-1.1-5.33-2.21-8.01-3.3C317.37,213.4,317.31,213.43,317.31,213.43z"/>
			<path fill-rule="evenodd" clip-rule="evenodd" fill="#FFFFFF" d="M156.59,168.37c-2.2,1.1-4.4,2.21-6.59,3.31
				c-0.19-0.39-0.37-0.78-0.56-1.17c2.26-0.98,4.52-1.96,6.77-2.94C156.34,167.84,156.47,168.1,156.59,168.37z"/>
			<path fill-rule="evenodd" clip-rule="evenodd" d="M282.09,164.1c-1.48,2.07-2.96,4.14-4.44,6.22c-0.24-0.16-0.47-0.31-0.71-0.47
				c1.42-2.14,2.83-4.29,4.25-6.43C281.48,163.65,281.79,163.88,282.09,164.1z"/>
			<path fill-rule="evenodd" clip-rule="evenodd" d="M241.18,218.08c1.52-0.29,3.04-0.58,4.62-0.89
				C245.62,219.68,244.42,220.07,241.18,218.08z"/>
			<path fill-rule="evenodd" clip-rule="evenodd" d="M244.04,247.35c-0.72-3.02-0.41-3.34,4.05-3.87
				C246.48,245.02,245.43,246.03,244.04,247.35z"/>
			<path fill-rule="evenodd" clip-rule="evenodd" fill="#FFFFFF" d="M229.91,298.41c1.96-2.71,9.02-3.8,12.45-2.04
				C238.22,297.05,234.06,297.73,229.91,298.41z"/>
			<path fill-rule="evenodd" clip-rule="evenodd" fill="#FFFFFF" d="M267,282.2c2.52-1.13,5.04-2.26,7.56-3.39
				c-0.15-0.45-0.29-0.87-0.43-1.29c0.19-0.12,0.38-0.25,0.57-0.37c0.63,0.87,1.26,1.74,2.08,2.88c-3.39,1.35-5.68,5.39-9.7,2.13
				C267.06,282.17,267,282.2,267,282.2z"/>
			<path fill-rule="evenodd" clip-rule="evenodd" fill="#FFFFFF" d="M224.92,276.82c4.17,0.42,4.71,5.69,9,5.18
				c-0.22,0.47-0.44,0.95-0.66,1.42c-2.03-0.41-4.05-0.81-5.98-1.2C226.59,280.64,225.88,279.02,224.92,276.82z"/>
			<path fill-rule="evenodd" clip-rule="evenodd" fill="#FFFFFF" d="M239.43,261.12c-1.14-0.35-2.28-0.69-3.42-1.04
				c0.23-0.49,0.52-1.42,0.69-1.4c1.1,0.14,2.17,0.49,3.26,0.77C239.78,260.01,239.6,260.57,239.43,261.12z"/>
			<path fill-rule="evenodd" clip-rule="evenodd" fill="#FFFFFF" d="M261.01,259.07c0.8,0.21,1.6,0.41,2.48,0.64
				c0.04-0.71,0.08-1.35,0.14-2.43c0.61,0.56,1.14,0.84,1.12,1.07c-0.07,0.97-0.31,1.93-0.49,2.89c-1.2-0.42-2.39-0.84-3.59-1.26
				C260.78,259.68,260.89,259.37,261.01,259.07z"/>
		</g>
	</g>
</g>
</svg>
