<?xml version="1.0" encoding="utf-8"?>
<!-- Generator: Adobe Illustrator 16.0.0, SVG Export Plug-In . SVG Version: 6.00 Build 0)  -->
<!DOCTYPE svg PUBLIC "-//W3C//DTD SVG 1.1//EN" "http://www.w3.org/Graphics/SVG/1.1/DTD/svg11.dtd">
<svg version="1.1" id="octopus_x5F_symbol" xmlns="http://www.w3.org/2000/svg" xmlns:xlink="http://www.w3.org/1999/xlink" x="0px"
	 y="0px" width="500px" height="500px" viewBox="0 0 500 500" enable-background="new 0 0 500 500" xml:space="preserve">
<g id="octopus">
	<path id="circle" d="M458.56,239.05c0,109.93-89.12,199.05-199.05,199.05S60.46,348.98,60.46,239.05
		c0-109.93,89.12-199.05,199.04-199.05S458.56,129.12,458.56,239.05"/>
	<path id="right_tentacles" fill="#FFFFFF" d="M425.34,261.49c5.86-9.05,12.25-17.84,17.34-27.27c2.1-3.89,2.39-9.26,1.79-13.79
		c-1.36-10.27-10.12-15.23-20.56-12.47c-1.46,0.39-2.91,0.81-4.75,1.32c3.47-6.34,13.22-7.74,21.44-3.52
		c9.54,4.9,14.14,16.58,10.61,28.5c-1.7,5.73-4.1,11.36-6.95,16.66c-2.86,5.3-6.67,10.14-10.35,15.59
		c5.97,5.06,34.46,12.72,26.17,25.65c-2.6-1.64-20.67-9.63-23.45-11.62c-15.28-10.91-31.25-21.1-45.53-33.08
		c-13.37-11.21-21.36-25.87-20-43.31c0.44-5.64,2.68-11.12,3.92-15.96c-8.29,10.71-8.23,27.48,0.46,43.08
		c8.55,15.35,22.1,26.17,36.66,36.06c9.75,6.63,19.77,12.91,29.45,19.63c1.65,1.14,14.8,4.54,14.54,6.22
		c-3,19.18-6.85,38.02-21.23,57.62c-7.99-6.99-15.72-13.03-27.21-12.49c2.2,14.33,10.02,23.67,25.03,27.66
		c-0.27,0.55-0.53,1.11-0.8,1.66c-2.46-0.2-4.91-0.41-7.37-0.61c10.16,1.82,6.03,7.93,4.98,13.88
		c-23.65-5.13-34.1-20.34-37.92-41.84c-6.1,1.47-11.83,2.57-17.35,4.23c-20.58,6.2-40.88,13.26-61.68,18.73
		c-22.34,5.88-45.37,8.32-68.51,2.6c-30.86-7.63-50.59-26.85-59.08-55.28c-7.71-25.82-0.15-48.23,20.78-66.01
		c22.63-19.23,65.79-19.86,86.93-1.43c11.08,9.66,16.68,30.46,11.68,43.35c-5.99,15.45-20.12,17.06-33.03,2.52
		c4.12,1.85,6.9,3.39,9.89,4.38c8.79,2.89,13.61,0.14,15.23-8.44c3.67-19.45-11.36-36.68-32.37-36.94
		c-21.4-0.26-39.27,5.54-48.49,25.38c-10.08,21.69,6.45,50.99,31.36,56.29c13.69,2.91,27.22,2.05,39.96-2
		c23.04-7.32,45.61-15.9,68.38-23.94c4.22-1.49,8.49-2.89,13.73-4.68c-11.64-10.42-21.33-21.57-27.34-35.18
		c-6.24-14.12-3.2-28.43-3.18-42.92c-0.51,2.95-1.12,5.88-1.48,8.84c-0.38,3.08-0.5,6.2-1.58,9.27c-0.96-8.25-4.18-16.36-0.42-24.76
		c0.96-2.13-0.53-5.21-0.59-7.85c-0.11-4.26-0.3-8.57,0.13-12.79c1.76-17.27-4.58-29.81-19.17-37.38
		c-14.78-7.66-32.58-6.12-45.57,4.35c-10.1,8.14-12.64,19.14-10.16,31.04c2.55,12.2,8.71,22.58,21.89,27.51
		c9.63,3.6,23.1-3.25,25.51-12.73c0.73-2.89,1.04-5.88,1.64-9.34c5.55,14.93-8.4,30.17-25.28,28.19c-16.99-2-26.51-12.8-32.01-26.67
		c-16.06-40.51,21.95-65.89,53.67-61.96c29.85,3.69,48.6,25.43,49.92,47.41c0.03,0.59,0.52,1.17,1.04,2.26
		c9.59-16.72,23.42-27.72,43.5-30.74c20.56-3.09,38.41,3.23,54.45,16.18c-3.03-0.79-6.06-1.62-9.1-2.37
		c-18-4.44-35.17-3.93-50.06,7.47c-2.55,1.96-3.77,5.46-5.54,8.29c-0.33,0.53-0.14,1.55-0.57,1.81c-8.59,5.3-7.18,14.67-5.92,21.32
		c1.65,8.7,3.39,18.5,11.38,25.51c2.67,2.34,3.71,6.25,6,9.08c1.64,2.03,4.07,3.52,6.24,5.14c3.3,2.46,6.9,4.6,9.95,7.3
		c2.33,2.07,3.99,4.81,5.95,7.25C423.33,261.42,424.33,261.46,425.34,261.49 M407.47,319.64c-2.75-0.47-5.58-1.53-8.24-1.3
		c-7.26,0.63-14.7,1.07-21.63,2.92c-19.9,5.31-39.67,11.08-59.35,17.05c-23.89,7.25-48.07,10.09-72.75,2.83
		c-7.88-2.32-15.21-6.38-23.74-10.04c8.76,7.16,18,11.3,28.17,13.58c26.71,5.98,52.33,2.49,77.29-6.55
		C352.99,328.8,379.53,322.37,407.47,319.64 M331.62,314.89c-3.13,2.95-6.28,4.55-6.44,6.43c-0.18,2.03,2.44,4.33,3.84,6.51
		c2.31-1.53,5.68-2.65,6.56-4.73C336.23,321.56,333.61,318.75,331.62,314.89 M300.11,328.12c3.3,3.08,5.35,6.34,7.01,6.2
		c2.35-0.19,4.42-2.88,6.61-4.51c-1.69-1.96-3.08-5.03-5.15-5.55C306.73,323.8,304.14,326.14,300.11,328.12 M346.52,311.8
		c3.07,3.32,4.84,6.7,6.52,6.7c2.35-0.01,4.64-2.54,6.95-3.99c-1.5-2.06-2.63-5.24-4.61-5.86
		C353.51,308.06,350.75,310.16,346.52,311.8 M384.67,310.58c0-0.68,0.01-1.35,0.01-2.03c-3.05-1.96-6.1-3.92-9.21-5.92
		c-3,4.02-2.64,7.53,1.28,9.21C378.79,312.71,382,311.08,384.67,310.58 M290.87,327.91c-3.21,2.58-5.77,3.66-6.21,5.29
		c-0.35,1.29,1.58,4.18,3.07,4.65c1.41,0.44,4.64-0.97,5.11-2.24C293.42,334.03,291.98,331.76,290.87,327.91 M257.58,331.21
		c-2.23,2.14-4.51,3.35-4.47,4.55c0.05,1.43,2.08,2.85,3.25,4.27c1.44-1.06,3.68-1.89,4.06-3.23
		C260.77,335.62,259.03,333.87,257.58,331.21 M267.36,335.32c2.75,2.07,4.09,3.8,5.59,3.97c1.25,0.15,2.71-1.53,4.07-2.4
		c-1.11-1.43-1.96-3.6-3.4-4.07C272.4,332.42,270.49,333.98,267.36,335.32"/>
	<path id="left_tentacle" fill="#FFFFFF" d="M220.61,120.19c4.88,13.37,12.9,19.58,24.48,19.83c16.08,0.35,21.66-15.83,17.82-26.5
		c-5.23-14.52-28.69-31.8-44.03-32.41c-7.83-0.31-21.66,10.28-24.98,19.35c-5.35,14.59-13.34,27.13-25.02,37.45
		c-9.72,8.58-21.1,11.73-32.63,12.36c0.71,15.23,1.4,30.02,2.15,46.02c8.12-2.8,16.86-6.17,25.83-8.8c9.4-2.76,18.9-5.65,28.6-6.86
		c6.57-0.82,13.55,1.17,21.26,2c-1.31,2.04-1.6,2.78-1.79,2.75c-19.64-3.06-35.35,6.86-51.69,14.73
		c-6.47,3.11-12.88,6.58-19.72,8.63c-6.4,1.92-9.05,5.43-8.47,12.69c16.5,4.97,33.25,10.35,46.95,22.33
		c14.21,12.43,20.76,28.42,21.63,46.97c15.47-5.51,30.33-35.37,36.52-72.81c3.39,5.44,5.03,17.75,4.03,30.77
		c-2.4,30.97-13.84,56.98-38.8,75.64c-1.2,0.9-2.59,2.46-2.66,3.82c-0.69,13.23,0.56,26.19,9.68,36.92
		c12.48,14.68,33.13,13.64,45.66-2.87c4.58-6.04,6.97-13.81,10.45-20.98c1.19,13.11-3.68,23.97-13,32.49
		c-26.54,24.25-57.46,4.35-65.41-23.63c-1.46-5.14-2.39-10.42-3.21-14.05c-13.28,0.38-26.14,2.65-38.46,0.72
		c-33.6-5.27-59.69-33.42-66.32-69.74c-1.58-8.66-2.38-17.59-2.21-26.34c0.1-5.54-1.94-7.61-6.38-9.88
		c-22.45-11.48-39.42-28.94-52.21-50.74c-0.83-1.41-1.24-3.07-0.81-5.83c1.58,1.05,3.08,2.79,4.74,3c3.54,0.45,7.93,1.33,10.51-0.29
		c2.3-1.44,2.76-5.97,3.81-9.22c0.73-2.26,1.08-4.66,2.64-6.87c10.12,18.34,23.62,32.21,39.6,43.77c0.73-0.45,1.46-0.89,2.2-1.34
		c-1.46-2.37-2.45-5.28-4.44-7.01c-14.03-12.19-24.56-25.58-30.27-39.47c10.48-6.45,26.02-8.41,31.67-19.5
		c4.47-8.77,16.37-28.12,30.24-36.33c2.37-1.4,17.12,8.68,19.5,9.59c10.33,3.93,17.92,0.44,24.38-7.2c1.86-2.2,4.21-4.33,5.11-6.95
		c3.69-10.78,3.34-26.13,12.29-31.39c7.15-14.19,52.76-22.57,64.17-27.64c2.44-1.08,9.48,5.67,12.09,5.95
		c24.84,2.59,28.5,38.43,34.62,63.04c4.65,18.71-4.22,37.42-20.44,43.1c-15.03,5.27-34.06-3.14-40.29-18.22
		c-1.36-3.29-0.98-7.27-1.41-10.93C219.23,120.27,219.92,120.23,220.61,120.19 M112.36,246.77c-2.46,18.52,0.97,35.39,15.86,48.12
		c11.88,10.16,25.66,10.25,39.61,6.46C167.65,268.8,147.73,249.31,112.36,246.77 M182.01,81.24c-11.62,1.51-18.09,9.79-24.66,18.18
		c-5.57,7.13-11.13,14.45-17.72,20.54c-8.49,7.83-19.63,8.54-31.11,7.31c0.46,1.15,0.53,1.7,0.84,1.99
		c0.33,0.31,0.87,0.47,1.34,0.53c11.51,1.51,22.54-0.01,30.97-8.14c6.65-6.41,12.15-14.08,17.76-21.51
		C165.55,92.04,171.55,84.01,182.01,81.24 M27.06,199.84c0.58,1,1.17,2.01,1.75,3.01c3.39,0.34,7.29,1.89,10.05,0.75
		c4.24-1.74,5.83-6.66,2.4-10.25c-2.08-2.18-7.25-3.47-9.83-2.38C29.12,191.96,28.45,196.74,27.06,199.84 M65.58,175.25
		c1.32-11.51-5.98-22.43-16.58-26.93C54.7,157.58,60.14,166.42,65.58,175.25 M65.39,206.59c-4.56,2.02-8.13,2.69-10.22,4.84
		c-1.36,1.4-1.67,5.84-0.49,7.34c1.9,2.4,5.43,3.48,9.09,5.59C64.33,218.14,64.73,213.84,65.39,206.59 M139.25,128.52
		c-1.3,3.94-2.29,6.96-3.29,9.98c3.05-0.06,6.79,0.95,8.96-0.46c2.38-1.55,3.31-5.33,4.88-8.14
		C146.77,129.51,143.75,129.11,139.25,128.52 M113.31,239.37c4.7-1.42,8.19-1.56,10.19-3.38c1.37-1.24,1.69-5.41,0.65-7.18
		c-1.27-2.15-4.48-3.17-7.73-5.23C115.33,229.11,114.59,232.86,113.31,239.37 M115.3,137.36c0.6,6.7,3.96,9.3,9.68,6.86
		c2.05-0.88,4.8-5.32,4.4-5.82C125.11,133.1,120.21,135.21,115.3,137.36 M133.36,243.45c5.15,0.68,8.85,2.29,10.44,1.08
		c1.77-1.34,2.54-5.48,1.89-7.94c-0.33-1.26-5.27-2.76-7.1-1.93C136.6,235.56,135.81,239.04,133.36,243.45 M152,256.02
		c4.42,0.44,7.94,1.83,9.23,0.68c1.78-1.59,1.87-5.09,2.68-7.78c-2.79-0.68-5.93-2.42-8.23-1.67
		C154.09,247.76,153.67,251.72,152,256.02 M156.17,113.03c-1.1,4.4-1.95,7.82-2.81,11.24c1.89,0.22,4.99,1.24,5.45,0.51
		c1.88-2.96,2.94-6.45,4.31-9.75C161.33,114.51,159.54,114,156.17,113.03 M167.82,95.4c-1.01,4.28-1.76,7.48-2.51,10.68
		c1.7,0.09,4.42,0.89,4.9,0.15c1.69-2.6,2.6-5.72,3.81-8.65C172.46,97.03,170.91,96.49,167.82,95.4 M168.98,262.19
		c-0.31,3.17-1.32,5.71-0.47,6.85c0.86,1.16,4.09,1.81,5.3,1.07c1.18-0.72,2-3.88,1.36-5.22
		C174.57,263.63,171.87,263.35,168.98,262.19"/>
</g>
</svg>
