<?xml version="1.0" encoding="utf-8"?>
<!-- Generator: Adobe Illustrator 16.0.0, SVG Export Plug-In . SVG Version: 6.00 Build 0)  -->
<!DOCTYPE svg PUBLIC "-//W3C//DTD SVG 1.1//EN" "http://www.w3.org/Graphics/SVG/1.1/DTD/svg11.dtd">
<svg version="1.1" id="zebra_symbol" xmlns="http://www.w3.org/2000/svg" xmlns:xlink="http://www.w3.org/1999/xlink" x="0px" y="0px"
	 width="500px" height="500px" viewBox="0 0 500 500" enable-background="new 0 0 500 500" xml:space="preserve">
<g>
	<defs>
		<rect id="SVGID_1_" x="51.09" y="-5.02" width="500" height="500"/>
	</defs>
	<clipPath id="SVGID_2_">
		<use xlink:href="#SVGID_1_"  overflow="visible"/>
	</clipPath>
	<path clip-path="url(#SVGID_2_)" d="M248.82,345.53c1.69-23.26,14.22-40.76,24.62-60.89c6.73-13.04,12.3-27.07,12.79-41.73
		c0.5-14.66-4.77-30.12-16.38-39.08c14.61,6.64,26.07,19.86,30.56,35.26c7.18,24.62-3.06,50.53-12.25,74.47
		c-6.79,17.69-13.19,36.2-11.85,55.1c0.78,11.09,4.8,21.84,11.52,30.25c15.04-3.81,29.19-9.83,42.1-17.7l-0.4-0.12
		c-5.74-6.34-7.11-15.41-7.92-23.93c-0.86-8.99-1.34-18.39,2.11-26.75c2.79-6.75,7.9-12.21,12.41-17.96
		c23.03-29.38,31.13-69.88,21.17-105.86c7.94,14.9,14.63,30.63,17.73,47.23c3.1,16.6,2.46,34.16-3.86,49.82
		c-6.73,16.68-19.85,31.6-19.99,49.59c-0.03,3.72,0.54,7.4,1.6,10.96c31.25-28.13,50.9-68.89,50.9-114.24
		c0-69.63-46.32-128.44-109.82-147.31c0.03,6.15,2.34,12.29,5.32,17.77c11.91,21.87,31.51,37.17,37.96,62.37
		c4.33,16.94,2.42,34.54-1.18,51.43c-1.85,8.68-4.2,17.25-6.46,25.83c-1.68,6.39-2.27,14.83-6.63,20.02
		c-0.52-16.59,3.57-33.19,4.39-49.74c1.59-32.33-9.66-64.68-41.66-78.29c-11.18-4.75-23.86-6.2-33.92-13.01
		c-13.2-8.92-19.3-25.94-18.02-41.86c-13.57,1.44-26.61,4.64-38.89,9.37c-1.11,2.23-1.96,4.61-2.51,7.03
		c-1.6,6.97-1.1,14.26-0.03,21.33c1.24,8.26,3.46,16.85,9.32,22.8c3.09,3.14,7,5.32,10.62,7.82c19.49,13.41,30.99,37.19,30.33,60.84
		c-0.21,7.36-2.11,14.27-4.29,23.65c-0.86,3.69-4.54,27.85-7.2,34.28c0.98-16.67,2.26-48.29-2.26-64.37s-15.58-31.31-31.54-36.24
		c-5.9-1.82-12.18-2.18-18.06-4.06c-13.34-4.27-23.58-16.9-25-30.83c-0.58-5.63,0.01-11.85-2.86-16.59
		c-9.33,7.83-17.72,16.75-24.97,26.57c1.47,4.73,1.63,9.99,1.18,14.98c-0.69,7.74-2.59,15.42-2.11,23.17
		c1.32,21.57,20.21,38.22,24.95,59.31c4.26,18.95-3.44,38.32-10.98,56.21c-1.53,3.63-3.77,7.81-7.7,8.19
		c6.93-10.26,9.47-23.37,6.89-35.47c-2.59-12.11-10.27-23.03-20.78-29.56c-5.63-3.5-12.18-5.92-16.39-11.03
		c-2.28-2.76-3.6-5.97-4.32-9.4c-0.46,4.87-0.71,9.8-0.71,14.79c0,48.62,22.59,91.96,57.83,120.11
		c1.32-20.02,19.19-36.72,25.48-55.24c5.35-15.74,9.66-32.6,8.81-49.2c-0.68-13.48-5.77-28.83-13.35-40.57
		c-1.97-3.05-14.55-13.33-18.11-14.1c-6.72-1.45,12.48,2.49,16.97,4.76c2.5,1.26,4.55,3.24,6.49,5.25
		c17.49,18.1,28.64,48.67,26.15,74.8c-1.13,11.81-1.48,17.81-4.31,29.33c-4.23,17.17-3.96,35.42,0.76,52.45
		c2.16,7.8,5.53,15.64,10.68,21.75c11.63,2.81,23.77,4.32,36.27,4.32c1.38,0,2.75-0.02,4.12-0.06
		C246.95,385.48,247.44,364.55,248.82,345.53z"/>
</g>
</svg>
